<?xml version="1.0" encoding="utf-8"?>
<svg version="1.1" xmlns:xlink="http://www.w3.org/1999/xlink" width="13px" height="10px" xmlns="http://www.w3.org/2000/svg">
  <g transform="matrix(1 0 0 1 -4 -7 )">
    <path d="M 12.765161290322581 1.3804713804713808  C 12.921720430107529 1.5375982042648706  13.000000000000004 1.728395061728395  13 1.9528619528619529  C 13.000000000000004 2.1773288439955096  12.921720430107529 2.368125701459034  12.765161290322581 2.525252525252525  L 6.692903225806452 8.61952861952862  L 5.5522580645161295 9.764309764309765  C 5.3956989247311835 9.921436588103255  5.205591397849464 10  4.981935483870968 10  C 4.758279569892474 10  4.568172043010753 9.921436588103255  4.411612903225807 9.764309764309765  L 3.2709677419354835 8.61952861952862  L 0.23483870967741938 5.572390572390573  C 0.0782795698924732 5.415263748597081  0 5.224466891133557  0 5  C 0 4.775533108866442  0.0782795698924732 4.5847362514029175  0.23483870967741938 4.427609427609428  L 1.375483870967742 3.282828282828283  C 1.5320430107526883 3.125701459034792  1.722150537634409 3.047138047138046  1.9458064516129034 3.047138047138047  C 2.1694623655913983 3.047138047138046  2.3595698924731185 3.125701459034792  2.5161290322580645 3.282828282828283  L 4.981935483870968 5.765993265993266  L 10.483870967741934 0.23569023569023573  C 10.640430107526884 0.07856341189674487  10.830537634408604 0  11.054193548387097 0  C 11.277849462365591 0  11.467956989247313 0.07856341189674487  11.624516129032259 0.23569023569023573  L 12.765161290322581 1.3804713804713808  Z " fill-rule="nonzero" fill="#414ddf" stroke="none" transform="matrix(1 0 0 1 4 7 )" />
  </g>
</svg>