<svg width="16" height="16" viewBox="0 0 16 16" fill="none" xmlns="http://www.w3.org/2000/svg">
<path fill-rule="evenodd" clip-rule="evenodd" d="M1.46698 0.0323814C0.567762 0.236954 -0.0563074 1.06704 0.00450415 1.97756C0.0244072 2.27515 0.0751754 2.46007 0.214681 2.74306C0.303234 2.92262 0.551104 3.18108 2.74746 5.38405L5.18206 7.826L2.74804 10.268C0.397177 12.6264 0.310032 12.718 0.198299 12.9453C-0.316946 13.9934 0.211496 15.2295 1.32518 15.5813C1.49341 15.6345 1.612 15.6489 1.87634 15.6482C2.24513 15.6472 2.3828 15.6151 2.73435 15.4484C2.93629 15.3526 3.08238 15.213 5.3901 12.9114L7.83214 10.4757L10.2587 12.8989C12.6367 15.2736 12.6902 15.3246 12.9302 15.4426C13.2758 15.6125 13.4322 15.6495 13.8029 15.6489C14.0476 15.6485 14.1756 15.6322 14.3387 15.581C14.9284 15.3957 15.4007 14.9235 15.5873 14.3328C15.6405 14.1643 15.6548 14.0463 15.6539 13.7816C15.6527 13.3996 15.6099 13.2243 15.4365 12.8916C15.3365 12.6997 15.0925 12.4456 12.9037 10.2527L10.4817 7.82619L12.9158 5.38414C15.2667 3.02556 15.3539 2.93404 15.4656 2.70671C15.9809 1.65865 15.4524 0.422513 14.3387 0.0706565C14.1705 0.0175306 14.0519 0.00313914 13.7876 0.00384341C13.4188 0.00482325 13.2811 0.0368825 12.9296 0.20364C12.7276 0.29942 12.5815 0.438955 10.2738 2.74064L7.83178 5.17629L5.40522 2.7531C3.10047 0.451571 2.96725 0.324252 2.75134 0.216745C2.62632 0.154525 2.46097 0.0836701 2.3839 0.0593271C2.17532 -0.00653682 1.69957 -0.0205302 1.46698 0.0323814Z" fill="#B80929"/>
</svg>
