<svg width="41" height="40" viewBox="0 0 41 40" fill="none" xmlns="http://www.w3.org/2000/svg">
<path fill-rule="evenodd" clip-rule="evenodd" d="M19.5961 0.0595352C17.279 0.225725 15.4654 0.61858 13.5486 1.36962C12.8521 1.64255 11.4819 2.30466 10.7642 2.71515C7.36532 4.65917 4.67545 7.46284 2.89757 10.9147C1.89117 12.8687 1.39273 14.2621 1.02687 16.1443C0.693683 17.8585 0.576189 20.1529 0.735028 21.8431C1.08426 25.5588 2.4352 29.0077 4.72474 32.0283C6.67475 34.601 9.23149 36.67 12.2322 38.1036C15.394 39.6142 19.1724 40.2593 22.7844 39.9051C25.9876 39.591 28.7978 38.6193 31.5677 36.868C34.9667 34.719 37.6116 31.6493 39.2734 27.9246C40.1452 25.9706 40.6668 23.8883 40.8638 21.5751C40.9178 20.9411 40.9182 19.1429 40.8646 18.4675C40.5842 14.9418 39.4996 11.8711 37.4784 8.88142C35.9205 6.57701 33.7778 4.52679 31.3826 3.04867C28.8157 1.4646 26.1722 0.531442 23.2531 0.178972C22.5713 0.0966115 21.1018 -0.00567512 20.6863 0.000245665C20.5053 0.00281814 20.0147 0.0294821 19.5961 0.0595352ZM22.5787 3.44275C25.6322 3.80841 28.3101 4.84414 30.7291 6.5951C32.896 8.1635 34.7395 10.3688 35.9116 12.7943C36.7354 14.499 37.25 16.2785 37.5002 18.288C37.5714 18.8604 37.5706 21.0954 37.4989 21.6976C37.1692 24.4676 36.2859 26.9165 34.793 29.1999C33.609 31.0108 32.0204 32.6014 30.1618 33.837C27.1902 35.8125 23.4036 36.8703 20.0305 36.6672C16.2973 36.4423 12.9221 35.1446 10.0518 32.8303C9.43274 32.3312 8.24895 31.1405 7.73212 30.4971C5.74278 28.0205 4.55734 25.2429 4.11785 22.0284C4.04153 21.47 4.02771 21.174 4.02639 20.0643C4.02438 18.3954 4.13533 17.4464 4.50209 15.9955C5.22553 13.1332 6.71198 10.488 8.77533 8.39118C9.67221 7.47975 10.3744 6.89441 11.3893 6.21213C13.7858 4.60098 16.6882 3.60776 19.699 3.36848C20.1549 3.33222 22.0678 3.38159 22.5787 3.44275ZM19.8841 5.06113C18.7246 5.15782 17.9937 5.27076 17.1178 5.48853C13.2725 6.44471 9.90017 8.9252 7.84928 12.306C6.81586 14.0096 6.10377 16.0648 5.83324 18.1247C5.69094 19.2081 5.69069 20.8723 5.83262 21.963C6.32963 25.7814 8.3381 29.3189 11.3752 31.725C13.59 33.4797 16.1718 34.5381 19.1025 34.8929C19.836 34.9817 21.6862 34.9941 22.373 34.9148C25.0306 34.6082 27.3086 33.7561 29.4668 32.2615C30.4052 31.6116 31.583 30.5451 32.3398 29.66C36.3562 24.9628 37.0093 18.1212 33.9571 12.7166C31.6573 8.6443 27.6096 5.86374 23.0519 5.22536C21.6956 5.0354 20.7688 4.98734 19.8841 5.06113ZM22.4098 8.42401C25.7892 8.97174 28.6896 10.7858 30.5219 13.4978C30.7011 13.7631 30.8616 13.9863 30.8786 13.9938C30.8956 14.0013 30.9095 14.0321 30.9095 14.0623C30.9095 14.0925 30.9338 14.1415 30.9634 14.1712C31.0483 14.2562 31.5066 15.1733 31.7077 15.6606C32.3421 17.1982 32.6584 19.0822 32.5546 20.7047C32.4839 21.8097 32.2393 22.9757 31.8738 23.9491C31.6918 24.434 31.2858 25.3398 31.2206 25.4064C31.1948 25.4327 31.1392 25.5273 31.097 25.6165C31.0548 25.7058 30.9954 25.8036 30.9649 25.8339C30.9344 25.8641 30.9095 25.9135 30.9095 25.9437C30.9095 25.9739 30.8946 26.0048 30.8765 26.0123C30.8584 26.0198 30.7411 26.1821 30.616 26.373C29.7101 27.7547 28.3692 29.0498 26.8984 29.9635C26.3991 30.2737 25.3944 30.7655 24.862 30.9602C23.4153 31.4894 22.275 31.6954 20.7892 31.6958C19.8485 31.6962 19.3818 31.6539 18.5876 31.4967C15.8647 30.9576 13.3698 29.4575 11.6282 27.3121C11.2781 26.8809 10.5866 25.8818 10.5866 25.8073C10.5866 25.7853 10.5725 25.7612 10.5554 25.7537C10.5382 25.7462 10.4101 25.5196 10.2707 25.2501C8.78126 22.3702 8.6002 18.8943 9.78177 15.8635C9.97521 15.3672 10.3234 14.609 10.374 14.5739C10.3915 14.5617 10.44 14.4788 10.4819 14.3895C10.5238 14.3002 10.583 14.2025 10.6135 14.1722C10.6439 14.142 10.6689 14.0925 10.6689 14.0623C10.6689 14.0321 10.6828 14.0013 10.6999 13.9938C10.717 13.9863 10.8141 13.8525 10.9158 13.6964C11.4183 12.9249 12.2176 11.9999 12.9216 11.3751C14.3512 10.1064 15.8439 9.2746 17.6009 8.76766C18.1394 8.61225 18.8715 8.4646 19.4933 8.38599C20.1019 8.30902 21.8403 8.33169 22.4098 8.42401ZM17.4774 13.3944C17.4658 13.4246 17.4611 16.4261 17.4669 20.0643L17.4774 26.6792H19.123H20.7686L20.7793 24.9949L20.7901 23.3105L21.8078 23.3104C23.312 23.3102 23.8807 23.2153 24.627 22.8399C25.1828 22.5604 25.4599 22.3571 25.9562 21.8647C26.7177 21.1091 27.1265 20.3918 27.3778 19.3701C27.4639 19.0202 27.5304 17.9423 27.474 17.8113C27.4564 17.7703 27.4458 17.6881 27.4505 17.6285C27.4553 17.569 27.4411 17.5093 27.4192 17.4958C27.3972 17.4823 27.3884 17.4366 27.3995 17.3943C27.4107 17.3519 27.4005 17.3054 27.3769 17.2909C27.3533 17.2764 27.3436 17.2395 27.3555 17.2088C27.3674 17.1781 27.357 17.1407 27.3325 17.1256C27.3079 17.1105 27.299 17.0803 27.3127 17.0584C27.3263 17.0365 27.3151 16.9919 27.2877 16.9592C27.2604 16.9265 27.2518 16.8997 27.2686 16.8997C27.2855 16.8997 27.2739 16.8693 27.2428 16.8322C27.2118 16.7951 27.191 16.7583 27.1967 16.7505C27.2023 16.7428 27.2055 16.7318 27.2038 16.7262C27.202 16.7206 27.1944 16.6835 27.1867 16.6438C27.158 16.4942 26.9072 16.0134 26.6825 15.6767C26.4123 15.2721 25.693 14.5189 25.3351 14.2661C24.7937 13.8835 24.0148 13.5586 23.3604 13.4422C22.8445 13.3505 17.5108 13.3072 17.4774 13.3944ZM22.4649 16.6954C23.0551 16.741 23.2612 16.8234 23.6155 17.1561C24.0082 17.5247 24.2257 18.1548 24.1276 18.6394C24.1014 18.7694 24.0402 18.9571 23.9917 19.0564C23.8596 19.3273 23.4578 19.7327 23.2215 19.8336C22.9478 19.9505 22.4325 20.0023 21.54 20.0027L20.7892 20.003V18.3289V16.6547L21.3754 16.6557C21.6978 16.6561 22.1881 16.674 22.4649 16.6954Z" fill="#B80929"/>
</svg>
