<svg width="40" height="40" viewBox="0 0 40 40" fill="none" xmlns="http://www.w3.org/2000/svg">
<path fill-rule="evenodd" clip-rule="evenodd" d="M18.8804 0.0403666C17.7503 0.220991 17.2352 0.358039 16.48 0.67924C14.6847 1.44281 13.1858 2.81033 12.2787 4.51227C11.9355 5.15631 11.6592 5.86047 11.5161 6.4561C11.2486 7.56955 11.2484 7.57406 11.2484 11.6694C11.2484 15.2227 11.2507 15.3336 11.3307 15.5658C11.5325 16.1526 11.8916 16.4945 12.4878 16.6678C12.7774 16.752 13.0187 16.7526 13.3028 16.6696C13.8865 16.4992 14.2699 16.1342 14.4447 15.5824C14.5255 15.3275 14.5287 15.2004 14.545 11.6056C14.5625 7.74164 14.5588 7.82871 14.7329 7.17416C15.2016 5.41121 16.7298 3.90307 18.4906 3.46574C19.2062 3.28803 20.1177 3.24244 20.7063 3.355C22.1061 3.62257 23.3286 4.38922 24.124 5.49824C24.2641 5.69355 24.3787 5.86474 24.3787 5.87861C24.3787 5.89243 24.4219 5.97265 24.4746 6.05685C24.5821 6.22837 24.8872 6.96416 24.9295 7.15364C25.1211 8.01352 25.1135 7.83043 25.1155 11.6549C25.1175 15.569 25.1141 15.5066 25.3482 15.9061C25.7124 16.5277 26.4804 16.8573 27.1484 16.6789C27.7351 16.5222 28.1705 16.1133 28.3378 15.5618C28.3901 15.3894 28.3991 14.8155 28.3994 11.6136C28.3997 9.22417 28.3844 7.7601 28.3571 7.57189C28.2691 6.96609 28.13 6.33887 27.9872 5.90433C27.1708 3.42048 25.2008 1.38984 22.758 0.513961C22.0821 0.271625 21.6582 0.171424 20.7395 0.0367558C20.3934 -0.0139602 19.2059 -0.0116624 18.8804 0.0403666ZM0.334626 13.0931C-0.0912076 13.3107 -0.10163 13.5325 0.252192 14.8472C0.303728 15.0387 0.374017 15.3227 0.61779 16.3244C0.730382 16.787 0.943832 17.6641 1.09212 18.2734C1.24045 18.8827 1.37935 19.4459 1.40077 19.5249C1.4546 19.7232 1.52928 20.0251 1.7662 21.002C2.16647 22.6524 2.51131 24.0612 2.54967 24.2026C2.59567 24.372 2.64208 24.56 2.91461 25.6797C3.44258 27.8493 3.66271 28.7481 3.69845 28.8802C3.71983 28.9592 3.85893 29.5224 4.00763 30.1317C4.15633 30.7411 4.41418 31.7935 4.58061 32.4706C5.12166 34.6712 5.42353 35.9013 5.63276 36.7584C5.84526 37.6292 5.87234 37.7209 6.00816 38.0304C6.38976 38.9003 7.46973 39.7477 8.38639 39.8966C8.47104 39.9104 8.54027 39.9393 8.54027 39.9608C8.54027 39.9856 12.671 40 19.7831 40C26.679 40 31.026 39.9853 31.026 39.9619C31.026 39.9409 31.1312 39.9019 31.2598 39.8752C31.8644 39.7497 32.64 39.2844 33.0409 38.8067C33.5364 38.2162 33.6273 38.0073 33.9327 36.7584C34.2065 35.639 34.6138 33.9783 34.9846 32.4706C35.6186 29.8918 35.8378 28.9974 36.0354 28.1827C36.1476 27.7201 36.2569 27.2769 36.2783 27.1979C36.3293 27.0096 36.3972 26.7357 36.6441 25.7208C36.7567 25.2581 36.9702 24.3811 37.1185 23.7717C37.2668 23.1624 37.4057 22.5992 37.4271 22.5202C37.4731 22.3508 37.5195 22.1628 37.7921 21.0431C38.3376 18.8011 38.5404 17.9742 38.5766 17.8426C38.5984 17.7636 38.7373 17.2004 38.8853 16.5911C39.0333 15.9817 39.2476 15.1088 39.3615 14.6513C39.6526 13.4819 39.6374 13.3004 39.2312 13.0929L39.0502 13.0004L34.597 13.0108L30.1438 13.0213L30.1184 14.3548C30.0926 15.7061 30.0872 15.7564 29.9146 16.2423C29.8279 16.4864 29.5993 16.8927 29.4112 17.1372C28.961 17.7222 28.3054 18.1454 27.5587 18.3332C27.1513 18.4357 26.4362 18.4457 26.043 18.3546C25.0366 18.1212 24.1528 17.4047 23.7214 16.4726C23.4665 15.9219 23.4364 15.6973 23.435 14.3343C23.4343 13.6573 23.419 13.0801 23.401 13.0518C23.3751 13.011 22.6318 13.0025 19.8216 13.0108L16.2749 13.0213L16.25 14.3138C16.2253 15.6019 16.2173 15.6791 16.0571 16.1807C15.7819 17.0429 14.9555 17.8897 14.0713 18.2155C13.3679 18.4748 12.395 18.4882 11.792 18.247C11.2579 18.0333 10.8596 17.7738 10.4973 17.4034C10.1159 17.0135 9.8922 16.6448 9.69627 16.0828C9.58839 15.7733 9.58729 15.7581 9.57461 14.4385C9.56624 13.5712 9.54646 13.0881 9.51786 13.0536C9.48253 13.011 8.60103 13.0007 4.99462 13.0007H0.515332L0.334626 13.0931Z" fill="#B80929"/>
</svg>
