<svg width="40" height="40" viewBox="0 0 40 40" fill="none" xmlns="http://www.w3.org/2000/svg">
<path fill-rule="evenodd" clip-rule="evenodd" d="M18.8948 0.0270246C17.5999 0.204585 16.3212 1.39968 16.104 2.63554C16.0737 2.80779 16.0183 3.35207 15.981 3.84505C15.8674 5.34284 15.7916 5.60824 15.3392 6.09196C14.8209 6.64599 14.3584 6.84855 13.6124 6.84822C12.8422 6.84789 12.6046 6.72881 11.5683 5.82357C10.5631 4.94562 10.2114 4.72224 9.56952 4.55431C9.10128 4.4318 8.22724 4.42943 7.78502 4.54954C7.1168 4.73093 6.75951 4.95574 6.0242 5.65745C5.61926 6.04393 5.06416 6.68152 4.90146 6.94709C4.61091 7.42145 4.40689 8.35172 4.46271 8.94762C4.54663 9.84334 4.86712 10.4675 5.74904 11.4531C6.64133 12.4502 6.78855 12.6921 6.85948 13.2772C7.0116 14.5319 6.23925 15.6393 5.06559 15.8493C4.8924 15.8803 4.43833 15.9257 4.0565 15.9503C2.78271 16.0324 2.4298 16.0978 1.93844 16.343C1.16103 16.731 0.49248 17.4654 0.203313 18.2489C0.0528685 18.6565 -0.016228 19.3788 0.00321047 20.3412C0.0183611 21.093 0.0319598 21.234 0.11343 21.4846C0.432572 22.4665 1.0544 23.1992 1.93297 23.6287C2.44658 23.8797 2.71786 23.9344 3.85232 24.0158C5.41969 24.1283 5.62943 24.1912 6.19012 24.7167C6.67135 25.1677 6.85279 25.6308 6.85887 26.4234C6.86451 27.1573 6.75225 27.3838 5.90659 28.3453C5.05571 29.3127 4.81366 29.6675 4.62871 30.2185C4.36531 31.0031 4.44919 32.1767 4.82171 32.919C4.95382 33.1823 5.32119 33.6154 5.91296 34.2054C6.57497 34.8655 6.86822 35.092 7.28521 35.2656C7.7414 35.4555 8.10277 35.5206 8.69303 35.5192C9.75557 35.5167 10.3467 35.2523 11.4072 34.3054C12.6111 33.2303 12.793 33.1326 13.5792 33.1387C14.3737 33.1447 14.832 33.3272 15.2921 33.8205C15.7657 34.3282 15.8497 34.5878 15.9404 35.8221C15.975 36.2918 16.0224 36.8217 16.046 36.9997C16.2229 38.335 17.1135 39.4067 18.4108 39.8455C18.7937 39.9749 18.811 39.9769 19.738 39.9951C21.1304 40.0225 21.5846 39.9426 22.2799 39.5482C22.8581 39.2201 23.5387 38.4436 23.7552 37.865C23.8934 37.4957 23.9605 37.0691 24.046 36.0169C24.167 34.5285 24.2387 34.3042 24.7609 33.7785C25.2353 33.3011 25.6434 33.1447 26.4309 33.1386C27.1786 33.1329 27.4033 33.2452 28.3955 34.1211C29.1295 34.7691 29.4713 35.0202 29.9064 35.2314C30.35 35.4466 30.7271 35.5206 31.3766 35.5195C32.3247 35.5181 32.9225 35.2871 33.643 34.6438C34.417 33.9528 34.9899 33.2853 35.2129 32.8145C35.4539 32.306 35.5313 31.9391 35.5313 31.306C35.5313 30.1779 35.2911 29.6834 34.0778 28.3138C33.214 27.3387 33.1783 27.2583 33.1819 26.2972C33.1839 25.7278 33.1922 25.6611 33.2851 25.4601C33.4244 25.1589 33.7284 24.7681 33.9821 24.564C34.4219 24.2101 34.7681 24.1176 35.9503 24.0379C37.5718 23.9286 38.0624 23.7796 38.7818 23.1783C39.1527 22.8684 39.4485 22.4922 39.6642 22.0563C39.9761 21.426 39.9927 21.3223 39.9927 19.9941C39.9927 18.7021 39.9762 18.5878 39.7047 17.9996C39.4449 17.4368 39.015 16.939 38.4694 16.5693C37.856 16.1536 37.4314 16.0477 35.9912 15.9511C35.1623 15.8955 34.6716 15.8135 34.4048 15.6858C33.9029 15.4457 33.4377 14.94 33.2688 14.4511C33.1853 14.2093 33.1734 14.0982 33.1734 13.5615C33.1734 12.9542 33.1747 12.9456 33.3039 12.683C33.4292 12.4282 33.672 12.1189 34.4406 11.2345C35.0257 10.5613 35.2825 10.1325 35.4483 9.55197C35.5217 9.29526 35.5392 9.13053 35.5386 8.70259C35.5375 7.81904 35.321 7.15944 34.8417 6.57906C34.1868 5.78617 33.3149 4.99781 32.8482 4.77671C32.3428 4.53728 31.9847 4.46386 31.3357 4.46651C30.197 4.47113 29.7024 4.70292 28.4363 5.82541C27.6904 6.48669 27.3948 6.69573 27.1192 6.75691C26.5323 6.88722 25.6914 6.84091 25.359 6.66C24.9211 6.42167 24.4583 5.94351 24.2914 5.55695C24.1727 5.2822 24.1274 4.98882 24.0437 3.95074C23.9286 2.52316 23.8419 2.16354 23.4797 1.60889C22.9864 0.853528 22.313 0.339061 21.5074 0.102042C21.2425 0.0241251 21.0908 0.012609 20.1872 0.0019097C19.6257 -0.00474675 19.0441 0.00656514 18.8948 0.0270246ZM20.6459 2.31162C20.8083 2.33273 21.0196 2.38941 21.1155 2.43764C21.5607 2.66151 21.6318 2.85283 21.739 4.11531C21.8952 5.95482 21.9672 6.22847 22.518 7.07772C22.7847 7.48875 23.2729 8.00828 23.669 8.30243C24.5549 8.96048 25.4383 9.21224 26.6773 9.15981C27.8379 9.11068 28.5249 8.81404 29.5586 7.91566C30.8388 6.80305 30.901 6.7623 31.318 6.76373C31.7626 6.76524 31.997 6.92148 32.7202 7.6982C33.144 8.15333 33.2329 8.32028 33.2329 8.66176C33.2329 9.07401 33.1433 9.22057 32.3379 10.1255C31.7402 10.7971 31.4711 11.1679 31.2367 11.6429C30.9479 12.2278 30.8623 12.604 30.8368 13.3989C30.8139 14.1123 30.8622 14.493 31.0511 15.0885C31.4487 16.342 32.5037 17.4386 33.8064 17.9526C34.1227 18.0773 34.5396 18.1417 35.6581 18.2382C37.167 18.3685 37.329 18.4228 37.5563 18.875C37.7232 19.2072 37.7757 20.3375 37.6488 20.8659C37.5853 21.1302 37.3983 21.3886 37.1955 21.4922C36.9476 21.6189 36.7562 21.6501 35.6194 21.7485C35.0827 21.7949 34.4873 21.8615 34.2964 21.8963C33.2119 22.0946 31.9347 23.1012 31.3214 24.2411C30.9762 24.8827 30.8253 25.535 30.8253 26.3851C30.8253 26.9885 30.8842 27.4021 31.0347 27.8552C31.2488 28.4996 31.5404 28.9395 32.4255 29.9536C33.0898 30.7148 33.2075 30.9074 33.2278 31.2668C33.2397 31.4764 33.2244 31.5819 33.1624 31.7192C32.9994 32.0796 32.1327 32.9452 31.7365 33.143C31.5812 33.2206 31.506 33.2324 31.273 33.2157C30.898 33.1889 30.7219 33.0818 29.9796 32.4293C28.8935 31.4745 28.3576 31.1355 27.6195 30.9362C27.1632 30.813 26.1015 30.7798 25.5707 30.8721C24.018 31.1422 22.7087 32.2057 22.0854 33.7029C21.9168 34.1079 21.8666 34.4077 21.7599 35.6459C21.6349 37.0962 21.5589 37.3238 21.1293 37.534C20.6407 37.7731 19.3661 37.7731 18.8776 37.534C18.4523 37.3259 18.377 37.0977 18.2488 35.6258C18.1286 34.2474 18.0853 34.0307 17.8209 33.4886C17.2141 32.2444 16.1669 31.3421 14.8784 30.9533C14.5321 30.8488 14.4623 30.8422 13.6737 30.8394C12.7516 30.836 12.4548 30.8804 11.9055 31.104C11.3635 31.3246 11.0051 31.5766 10.08 32.388C9.21056 33.1505 9.08021 33.2257 8.63027 33.2242C8.2916 33.2231 8.11106 33.1081 7.52109 32.5182C6.93324 31.9303 6.77332 31.6817 6.77258 31.3547C6.7716 30.9187 6.87533 30.7471 7.70694 29.8091C8.29168 29.1496 8.5265 28.8197 8.77797 28.3044C9.072 27.702 9.14583 27.3747 9.16956 26.5689C9.18671 25.9863 9.17748 25.8371 9.10116 25.4673C8.79615 23.9886 7.92537 22.8737 6.54757 22.1979C5.95657 21.908 5.75872 21.8669 4.3832 21.7486C2.9062 21.6216 2.67163 21.5454 2.46663 21.1264C2.32897 20.8451 2.26236 20.2879 2.29646 19.7031C2.34804 18.8186 2.55811 18.4953 3.16499 18.3667C3.28109 18.3422 3.71294 18.2936 4.12466 18.2587C6.2466 18.0794 6.84486 17.8545 7.84582 16.86C8.45581 16.254 8.83433 15.6112 9.04938 14.8162C9.14906 14.4476 9.15662 14.3596 9.15682 13.5622C9.15706 12.7409 9.15229 12.6891 9.04411 12.3371C8.982 12.135 8.861 11.8293 8.77524 11.6578C8.5109 11.1293 8.36748 10.9379 7.32589 9.72352C6.88521 9.20975 6.77217 8.99401 6.77217 8.66662C6.77217 8.28912 6.87463 8.12503 7.50443 7.49381C8.13863 6.85814 8.29303 6.76283 8.6885 6.76283C9.04844 6.76283 9.2837 6.89935 9.95747 7.49916C10.964 8.39521 11.4862 8.74649 12.1274 8.95868C12.6462 9.1304 13.1223 9.18737 13.8166 9.16091C15.0295 9.11464 16.044 8.67932 16.877 7.84771C17.2782 7.44714 17.5749 7.02149 17.8398 6.46647C18.0804 5.96262 18.1286 5.71678 18.2475 4.3897C18.3805 2.90466 18.4499 2.68164 18.8462 2.46594C19.1672 2.29124 19.9634 2.22296 20.6459 2.31162ZM18.6354 11.5982C17.2758 11.8599 15.9059 12.4558 14.8785 13.2323C14.4541 13.553 13.6929 14.2916 13.3598 14.7057C12.6466 15.5925 11.8398 17.3458 11.655 18.4106C11.5672 18.9164 11.5323 20.1827 11.586 20.9129C11.7463 23.0928 13.0408 25.3677 14.9143 26.7622C16.5706 27.995 18.5379 28.5779 20.5853 28.4426C22.3113 28.3286 23.961 27.6846 25.3122 26.5976C28.0768 24.3734 29.1639 20.6821 28.0447 17.3192C27.059 14.3573 24.464 12.1215 21.4531 11.6401C20.887 11.5496 19.0312 11.522 18.6354 11.5982ZM20.8406 13.8699C22.1814 14.0606 23.4074 14.6827 24.373 15.6624C24.8634 16.16 25.2144 16.6549 25.5191 17.2784C25.7882 17.8289 25.9258 18.2257 26.0563 18.8276C26.185 19.4204 26.1848 20.5684 26.056 21.1622C25.7762 22.4525 25.2634 23.3933 24.3331 24.3237C23.5865 25.0703 22.9324 25.4884 22.007 25.8105C21.2611 26.0701 20.8599 26.1352 20.0034 26.1352C19.3798 26.1352 19.1756 26.1196 18.8335 26.0458C15.888 25.4107 13.8387 22.9256 13.8372 19.9868C13.837 19.4123 13.888 19.0069 14.0291 18.4627C14.6413 16.1016 16.6244 14.2997 19.0642 13.8877C19.4379 13.8246 20.4505 13.8145 20.8406 13.8699Z" fill="#B80929"/>
</svg>
