<svg width="43" height="40" viewBox="0 0 43 40" fill="none" xmlns="http://www.w3.org/2000/svg">
<path d="M31.031 40H21.8952C20.1127 40.0016 18.3444 39.6838 16.6741 39.0616L9.55727 36.4184C9.16748 36.2698 8.85217 35.9733 8.68002 35.5933C8.50787 35.2133 8.49281 34.7807 8.63812 34.3897C8.78343 33.9987 9.07735 33.6809 9.45586 33.5056C9.83438 33.3302 10.2668 33.3116 10.6591 33.4536L17.7748 36.0968C19.0932 36.5867 20.4887 36.8367 21.8952 36.8349H31.031C31.4284 36.8349 31.8095 36.677 32.0904 36.396C32.3714 36.1151 32.5292 35.734 32.5292 35.3366C32.5292 34.9393 32.3714 34.5582 32.0904 34.2772C31.8095 33.9963 31.4284 33.8384 31.031 33.8384C30.6116 33.8384 30.2093 33.6718 29.9127 33.3752C29.6161 33.0786 29.4495 32.6764 29.4495 32.2569C29.4495 31.8375 29.6161 31.4352 29.9127 31.1386C30.2093 30.842 30.6116 30.6754 31.031 30.6754H33.1872C33.5845 30.6754 33.9656 30.5176 34.2466 30.2366C34.5275 29.9556 34.6854 29.5745 34.6854 29.1772C34.6854 28.7798 34.5275 28.3988 34.2466 28.1178C33.9656 27.8368 33.5845 27.679 33.1872 27.679C32.7677 27.679 32.3654 27.5123 32.0689 27.2157C31.7723 26.9192 31.6056 26.5169 31.6056 26.0975C31.6056 25.678 31.7723 25.2757 32.0689 24.9792C32.3654 24.6826 32.7677 24.5159 33.1872 24.5159H35.3422C35.6386 24.516 35.9284 24.4282 36.1748 24.2636C36.4213 24.099 36.6134 23.8649 36.7268 23.5911C36.8402 23.3173 36.8699 23.016 36.8121 22.7253C36.7542 22.4346 36.6115 22.1676 36.4018 21.9581C36.2631 21.8184 36.098 21.7077 35.9161 21.6324C35.7342 21.5571 35.5391 21.5187 35.3422 21.5195C34.9228 21.5195 34.5205 21.3529 34.2239 21.0563C33.9273 20.7597 33.7607 20.3574 33.7607 19.938C33.7607 19.5186 33.9273 19.1163 34.2239 18.8197C34.5205 18.5231 34.9228 18.3565 35.3422 18.3565H37.4984C37.7943 18.3555 38.0833 18.267 38.329 18.1019C38.5746 17.9369 38.7659 17.7028 38.8787 17.4292C38.9915 17.1556 39.0207 16.8548 38.9627 16.5646C38.9047 16.2744 38.762 16.0079 38.5527 15.7987C38.4147 15.6594 38.2504 15.5489 38.0695 15.4734C37.8885 15.398 37.6944 15.3591 37.4984 15.359H22.5647C22.2895 15.3593 22.0189 15.2878 21.7798 15.1516C21.5407 15.0154 21.3412 14.8191 21.2012 14.5821C21.0612 14.3452 20.9854 14.0759 20.9814 13.8007C20.9773 13.5255 21.0452 13.254 21.1782 13.0131C21.6587 12.0383 21.9859 10.9953 22.1482 9.9207C22.5056 7.61486 22.0649 5.53043 20.8387 3.7254C20.6809 3.50058 20.4556 3.33179 20.1955 3.24344C19.9354 3.15509 19.6539 3.15176 19.3918 3.23393C19.1297 3.3161 18.9005 3.47952 18.7374 3.70054C18.5742 3.92156 18.4856 4.18874 18.4844 4.46343C18.536 9.88064 16.033 13.8175 11.2463 15.8503C11.0544 15.9361 10.8473 15.9829 10.6371 15.9877C10.427 15.9926 10.2179 15.9555 10.0222 15.8786C9.82658 15.8017 9.6482 15.6866 9.49754 15.5399C9.34689 15.3933 9.22699 15.2181 9.14484 15.0246C9.06269 14.8311 9.01995 14.6231 9.01912 14.4129C9.01829 14.2026 9.05939 13.9943 9.14 13.8002C9.22062 13.606 9.33914 13.4299 9.48863 13.2821C9.63812 13.1342 9.81558 13.0177 10.0106 12.9393C11.9844 12.0958 13.4225 10.857 14.286 9.24065C14.9903 7.92167 15.3403 6.3254 15.3224 4.49612C15.3066 2.49709 16.5391 0.810142 18.4559 0.213385C20.3727 -0.383372 22.3369 0.295624 23.4588 1.94883C26.064 5.78241 25.5938 9.7615 24.88 12.1981H37.4984C38.5501 12.1982 39.5709 12.554 40.3949 13.2077C41.2188 13.8614 41.7974 14.7746 42.0367 15.7987C42.2761 16.8229 42.162 17.8979 41.713 18.849C41.264 19.8002 40.5066 20.5715 39.5638 21.0377C40.0805 22.1424 40.1443 23.4054 39.7415 24.5566C39.3387 25.7077 38.5014 26.6555 37.4087 27.1971C37.9257 28.3021 37.9895 29.5655 37.5865 30.7169C37.1835 31.8683 36.3458 32.8162 35.2526 33.3576C35.5855 34.0679 35.7338 34.8507 35.6839 35.6336C35.6339 36.4164 35.3873 37.174 34.9669 37.8362C34.5464 38.4985 33.9657 39.0439 33.2784 39.4221C32.5912 39.8004 31.8197 39.9991 31.0352 40H31.031Z" fill="#B80929"/>
<path d="M10.6351 37.6579H1.58151C1.16207 37.6579 0.759805 37.4913 0.463214 37.1947C0.166623 36.8981 0 36.4958 0 36.0764V14.396C0 13.9765 0.166623 13.5743 0.463214 13.2777C0.759805 12.9811 1.16207 12.8145 1.58151 12.8145H10.6351C11.0546 12.8145 11.4568 12.9811 11.7534 13.2777C12.05 13.5743 12.2166 13.9765 12.2166 14.396V36.0764C12.2166 36.4958 12.05 36.8981 11.7534 37.1947C11.4568 37.4913 11.0546 37.6579 10.6351 37.6579ZM3.16619 34.4949H9.05363V15.9775H3.16302L3.16619 34.4949Z" fill="#B80929"/>
</svg>
