<svg width="36" height="40" viewBox="0 0 36 40" fill="none" xmlns="http://www.w3.org/2000/svg">
<path fill-rule="evenodd" clip-rule="evenodd" d="M27.2081 0.0464046C25.1333 0.383234 23.3949 1.48683 22.2545 3.19115C21.5447 4.25183 21.1609 5.34987 21.0459 6.64929C20.9754 7.44534 21.0747 8.37697 21.3126 9.1526C21.3469 9.26441 21.3617 9.36851 21.3455 9.3839C21.2872 9.43936 12.5752 14.6166 12.5096 14.6348C12.4668 14.6466 12.3183 14.539 12.1012 14.3389C11.4696 13.7566 10.4483 13.1571 9.59763 12.8694C7.79199 12.2587 5.76959 12.3931 4.04175 13.2388C1.91324 14.2805 0.414133 16.3223 0.0550474 18.6686C-0.0272814 19.2068 -0.0151934 20.4412 0.0774673 20.9555C0.34769 22.4555 1.04038 23.7914 2.09542 24.8475C3.21878 25.9721 4.63936 26.6817 6.24698 26.9214C6.87306 27.0147 8.07357 26.9836 8.67429 26.8585C10.0106 26.5802 11.216 25.9774 12.1319 25.1293L12.3809 24.8988L16.8646 27.6723C19.3306 29.1977 21.3644 30.4619 21.384 30.4815C21.4045 30.5019 21.3942 30.5896 21.3602 30.6861C21.2476 31.0052 21.0943 31.7781 21.0472 32.2646C21.0114 32.6335 21.0114 32.8861 21.0473 33.3059C21.206 35.1648 21.9596 36.7465 23.2882 38.0096C23.8355 38.5298 24.3506 38.8903 25.0323 39.23C26.0793 39.7519 26.8919 39.9573 28.0543 39.9939C29.0508 40.0253 29.6848 39.9396 30.5862 39.6519C32.9368 38.9017 34.7587 36.945 35.3828 34.5006C35.6 33.6497 35.643 32.4005 35.4855 31.5121C35.3127 30.5368 34.828 29.3816 34.2518 28.5718C33.9283 28.1171 33.1261 27.2962 32.6894 26.9729C30.291 25.1977 27.1005 25.0369 24.5423 26.5624C24.2208 26.7541 23.747 27.1016 23.432 27.3766C23.2277 27.555 23.1651 27.5896 23.1053 27.5576C23.0329 27.5189 14.1791 22.0405 14.1633 22.0247C14.1589 22.0203 14.207 21.8323 14.2703 21.6069C14.6194 20.3634 14.6264 19.2087 14.2923 17.965C14.2394 17.768 14.2085 17.5952 14.2236 17.5809C14.2784 17.5293 23.0531 12.3184 23.0826 12.32C23.0993 12.3209 23.2691 12.46 23.4601 12.6291C24.1402 13.2316 25.1351 13.8128 25.9696 14.0951C27.7738 14.7053 29.7919 14.5723 31.5255 13.7288C33.4829 12.7765 34.9529 10.9114 35.4212 8.78592C35.5503 8.19998 35.6018 7.57953 35.5754 6.9278C35.5191 5.53756 35.1342 4.34898 34.3702 3.20651C33.3088 1.61919 31.7313 0.551363 29.8109 0.120157C29.4251 0.0335407 29.2334 0.0170015 28.4627 0.00385174C27.8175 -0.0071336 27.4639 0.00487268 27.2081 0.0464046ZM28.8375 3.37733C30.0897 3.54693 31.251 4.39872 31.8127 5.55974C32.5901 7.16629 32.1438 9.12515 30.7476 10.2346C29.9597 10.8608 29.1302 11.127 28.1058 11.0826C26.5003 11.013 25.132 9.95485 24.6081 8.37754C24.2976 7.44297 24.3588 6.49414 24.788 5.58804C25.1968 4.7251 25.8159 4.11441 26.7038 3.69832C27.3623 3.38979 28.1047 3.2781 28.8375 3.37733ZM8.26845 15.9931C10.5329 16.6446 11.7368 19.027 10.8825 21.1659C10.6873 21.6546 10.4143 22.0604 10.0061 22.4686C9.46283 23.0118 8.867 23.3492 8.11992 23.5363C7.69615 23.6425 6.76088 23.6309 6.33241 23.5142C5.6075 23.3168 5.10687 23.0332 4.56075 22.5106C4.02978 22.0025 3.67907 21.4093 3.483 20.6874C3.3522 20.2058 3.3529 19.2765 3.48443 18.7911C3.87778 17.3393 5.00678 16.2747 6.51704 15.9317C6.90573 15.8434 7.86501 15.8771 8.26845 15.9931ZM29.298 29.0192C30.4452 29.3523 31.2817 30.0422 31.7908 31.0748C32.101 31.7041 32.1728 32.0193 32.1743 32.7576C32.1756 33.451 32.1012 33.8197 31.8503 34.3628C31.4848 35.154 30.7968 35.8647 30.0145 36.2593C29.4753 36.5312 28.7073 36.6841 28.0778 36.6446C25.5553 36.4866 23.8365 34.0104 24.59 31.6197C25.0244 30.2416 26.2171 29.1975 27.6525 28.9388C28.0115 28.8741 28.9577 28.9203 29.298 29.0192Z" fill="#B80929"/>
</svg>
