<svg width="35" height="40" viewBox="0 0 35 40" fill="none" xmlns="http://www.w3.org/2000/svg">
<path fill-rule="evenodd" clip-rule="evenodd" d="M2.09723 0.0382857C1.67185 0.0606939 1.59776 0.0765714 1.35001 0.198531C0.822213 0.458367 0.332091 0.972735 0.128335 1.48061C0.0436007 1.6918 0.0424578 1.74384 0.0142538 6.81633C-0.00137889 9.63367 -0.00468501 17.8806 0.00698846 25.1429L0.028213 38.3469L0.190172 38.6327C0.53458 39.24 0.839723 39.5313 1.45629 39.8414L1.77172 40H9.65017H17.5286V38.102V36.2041H10.8178H4.10699L3.94025 35.9947L3.77352 35.7853L3.77695 22.6987C3.78066 8.59747 3.80719 4.07804 3.88703 3.93273C3.93074 3.85314 3.98344 3.84196 4.45642 3.81192C4.74307 3.79367 10.1664 3.77865 16.5082 3.77857C27.5027 3.77837 28.8018 3.79016 28.9027 3.89114C28.9786 3.96698 28.9943 5.86804 28.9961 15.1531L28.998 25.3469H30.9211H32.8442L32.8205 13.9082C32.807 7.37359 32.7804 2.27347 32.7586 2.01241C32.715 1.49249 32.6285 1.25816 32.3514 0.909673C32.1309 0.632408 31.8412 0.417551 31.3769 0.186898L31.0007 0L16.7851 0.00673469C8.96646 0.0104082 2.35695 0.0246122 2.09723 0.0382857ZM7.13956 7.54984C6.75899 7.5842 6.69568 7.61204 6.4967 7.83229C6.29058 8.06045 6.24303 8.2562 6.24299 8.87755C6.24291 9.36531 6.25156 9.42665 6.35021 9.63702C6.48878 9.93249 6.67046 10.0707 7.00393 10.1342C7.20336 10.1722 9.42878 10.1812 16.6307 10.173L25.998 10.1623L26.2265 9.92343C26.369 9.77441 26.465 9.63441 26.4816 9.55143C26.5228 9.34555 26.5126 8.28261 26.4679 8.12175C26.4438 8.03522 26.338 7.88927 26.2014 7.75441L25.9748 7.53061L16.7211 7.52539C11.6316 7.52253 7.31989 7.53355 7.13956 7.54984ZM8.79393 12.2419C6.95703 12.2641 6.84813 12.2696 6.72156 12.3461C6.34209 12.5756 6.10385 13.3249 6.21732 13.932C6.28107 14.2731 6.45809 14.6462 6.58813 14.7134C6.89046 14.8697 7.00768 14.8718 16.628 14.8868L25.9518 14.9014L26.2537 14.6038L26.5557 14.3061L26.5407 13.6327C26.5257 12.9602 26.5255 12.9588 26.3902 12.7067C26.2261 12.4009 26.1236 12.3438 25.6241 12.2801C25.2256 12.2293 12.2732 12.2 8.79393 12.2419ZM8.32454 16.9347C7.02907 16.9601 6.97021 16.9647 6.78466 17.0551C6.39385 17.2457 6.2607 17.5082 6.23295 18.1429C6.1985 18.9299 6.29001 19.1796 6.73646 19.5166L6.95968 19.6851L15.8462 19.6607C24.4802 19.637 25.5639 19.6205 25.9953 19.5061C26.3441 19.4136 26.5095 19.1008 26.5405 18.4748C26.5668 17.9435 26.4983 17.5653 26.3308 17.3164C26.1748 17.0845 26.0508 17.0408 25.3674 16.9766C24.8299 16.926 10.5551 16.891 8.32454 16.9347ZM7.24213 21.6736C6.89805 21.7066 6.67107 21.8044 6.47638 22.0035C6.27903 22.2054 6.24291 22.3596 6.24291 23C6.24291 23.8082 6.33397 24.0102 6.80699 24.2516C6.95262 24.3258 7.08976 24.3407 7.95458 24.3752C9.30479 24.4292 18.7135 24.3923 19.1193 24.3314C19.561 24.2651 19.754 24.1533 19.9325 23.8603L20.0796 23.6185L20.0781 23.0848C20.0763 22.4693 20.0121 22.215 19.8052 22.0034C19.6008 21.7943 19.3939 21.7107 18.9822 21.6709C18.5418 21.6282 7.6883 21.6307 7.24213 21.6736ZM32.1205 27.712C32.0011 27.7607 30.9938 28.804 29.1232 30.8164C27.2857 32.7931 26.3479 33.7555 26.2604 33.7542C26.2283 33.7538 25.9725 33.54 25.6919 33.2791C23.9958 31.7021 23.861 31.5918 23.6295 31.5918C23.5435 31.5918 23.4355 31.6407 23.3103 31.7364C23.0983 31.8982 22.5083 32.545 22.2322 32.9181C21.9927 33.2419 22.0039 33.3883 22.2908 33.683C22.9279 34.3374 25.7714 36.8109 26.283 37.1558C26.3828 37.223 26.5009 37.2653 26.5891 37.2653C26.716 37.2653 26.773 37.2238 27.0796 36.9081C27.8524 36.1122 31.5993 32.0956 33.0733 30.4829C33.746 29.7469 33.8349 29.636 33.9441 29.396L34.0239 29.2207L33.9186 29.041C33.7652 28.7792 32.6663 27.8132 32.4119 27.7164C32.2812 27.6667 32.233 27.666 32.1205 27.712ZM20.896 27.7929C20.6194 27.8216 20.5064 27.8724 20.3109 28.0559C20.045 28.3054 20.0485 28.2835 20.0142 29.9184C19.997 30.7378 19.9817 33.2006 19.9803 35.3914L19.9776 39.3747L20.2123 39.6214C20.4337 39.8541 20.4632 39.8713 20.7327 39.9238C20.9655 39.9693 22.0349 39.9796 26.5082 39.9796H31.998L32.1787 39.8833C32.2781 39.8302 32.4572 39.6944 32.5767 39.5814L32.7939 39.3759V36.2822C32.7939 34.2467 32.7799 33.1798 32.7528 33.1631C32.7301 33.1491 32.4501 33.3913 32.1303 33.7015L31.549 34.2653L31.5286 36.3488C31.5045 38.8124 31.5425 38.6271 31.0505 38.68C30.5227 38.7369 21.4577 38.7209 21.3998 38.6631C21.3688 38.632 21.3383 38.3455 21.3153 37.8685C21.2676 36.8784 21.299 29.4064 21.3516 29.2449C21.3855 29.1409 21.4188 29.118 21.5723 29.0927C21.6718 29.0763 23.2743 29.0505 25.1336 29.0354L28.5141 29.0079L29.0519 28.4428C29.3478 28.132 29.595 27.862 29.6014 27.8428C29.6078 27.8236 29.4996 27.796 29.3608 27.7815C29.0418 27.7481 21.2261 27.7587 20.896 27.7929Z" fill="#B80929"/>
</svg>
