<svg width="40" height="40" viewBox="0 0 40 40" fill="none" xmlns="http://www.w3.org/2000/svg">
<path fill-rule="evenodd" clip-rule="evenodd" d="M34.8982 0.0487767C34.6304 0.151229 34.4657 0.301906 33.3805 1.43762C32.8011 2.044 32.2277 2.64283 32.1062 2.76836L31.8854 2.99662L34.4683 5.51444C35.8889 6.89928 37.0706 8.03185 37.0943 8.03132C37.118 8.03075 37.7278 7.44736 38.4494 6.73484C39.3346 5.86075 39.7857 5.38622 39.8361 5.27601C39.8774 5.18544 39.9179 4.98352 39.9268 4.82288C39.9552 4.30935 39.965 4.32221 37.8941 2.16075C35.8522 0.0296664 35.8475 0.0256239 35.3435 0.00222603C35.1578 -0.00638993 34.999 0.0101887 34.8982 0.0487767ZM3.87816 2.35994C3.22302 2.42405 2.44681 2.70784 1.86889 3.09454C1.72752 3.18915 1.43731 3.44379 1.22396 3.66046C0.626434 4.26713 0.249414 4.97225 0.0762778 5.80685C0.00261337 6.16178 0 6.68825 0 21.1808C0 35.7191 0.0024092 36.1989 0.0769311 36.56C0.271097 37.5008 0.831542 38.4251 1.56627 39.0162C2.0947 39.4412 2.59226 39.6938 3.29885 39.8953L3.61274 39.9849L18.6192 39.9969C29.6236 40.0056 33.7125 39.9965 33.9514 39.9627C35.6656 39.7195 37.0566 38.4623 37.5361 36.7228L37.6274 36.3915V25.6317V14.872L37.5166 14.6835C37.26 14.247 36.5989 13.8208 35.8716 13.6231C35.1642 13.4308 34.3956 13.6422 33.8706 14.1732C33.6543 14.3921 33.3073 14.9332 33.3833 14.9332C33.3986 14.9332 33.3882 14.9608 33.3603 14.9945C33.3323 15.0282 33.3231 15.0557 33.3399 15.0557C33.3566 15.0557 33.3496 15.0807 33.3243 15.1112C33.2904 15.1519 33.2784 17.7062 33.2788 24.7642C33.2791 30.0429 33.269 34.3885 33.2565 34.4211C33.244 34.4538 33.2368 34.497 33.2406 34.5172C33.2443 34.5374 33.243 34.5677 33.2375 34.5846C33.2321 34.6014 33.2252 34.629 33.2222 34.6458C33.2193 34.6627 33.1585 34.7796 33.0872 34.9057C32.9276 35.1877 32.6835 35.402 32.3835 35.5234L32.1557 35.6156H18.8234H5.4911L5.26051 35.5224C4.93454 35.3906 4.6832 35.1541 4.52281 34.8283L4.38859 34.5557L4.37805 21.2647C4.36862 9.29689 4.37393 7.95117 4.43159 7.74777C4.56666 7.27124 4.94895 6.88336 5.38461 6.78078C5.57077 6.73697 7.37298 6.72676 15.0173 6.72627L24.4209 6.72562L24.5928 6.63897C25.0978 6.38449 25.7143 5.8024 25.9287 5.37781C25.9966 5.24322 26.0405 5.13309 26.0262 5.13309C26.0119 5.13309 26.0254 5.10267 26.0562 5.06551C26.143 4.96077 26.131 3.96455 26.0387 3.62224C25.8785 3.02765 25.6249 2.6782 25.2028 2.47039L24.9298 2.33597L14.5775 2.33099C8.88379 2.32821 4.06906 2.34124 3.87816 2.35994ZM28.4178 6.36959C27.2154 7.5648 24.4214 10.3374 22.209 12.5309L18.1864 16.5191L17.2384 18.901C16.717 20.2111 16.2907 21.3068 16.291 21.336C16.2915 21.3762 17.919 23.1875 18.6427 23.9533L18.7351 24.0512L21.2837 22.715L23.8322 21.3788L27.1773 18.1325C29.017 16.3471 31.0828 14.3313 31.7677 13.6529C32.4527 12.9746 33.381 12.0618 33.8305 11.6245C34.28 11.1872 34.9799 10.5052 35.3858 10.1089L36.1237 9.38832L33.3913 6.80132C31.8885 5.37846 30.6465 4.21029 30.6314 4.20539C30.6164 4.20045 29.6202 5.17434 28.4178 6.36959ZM14.9379 24.0218C14.7161 24.9111 14.6406 25.2757 14.6755 25.2891C14.7025 25.2994 15.339 25.2153 16.09 25.1023C16.841 24.9893 17.4708 24.8968 17.4895 24.8968C17.5082 24.8967 17.5174 24.8796 17.5099 24.8587C17.4941 24.8144 15.3023 22.7734 15.2706 22.7734C15.2589 22.7734 15.1092 23.3351 14.9379 24.0218Z" fill="#B80929"/>
</svg>
