<svg width="41" height="40" viewBox="0 0 41 40" fill="none" xmlns="http://www.w3.org/2000/svg">
<path fill-rule="evenodd" clip-rule="evenodd" d="M19.662 0.0119041C19.5474 0.0214547 19.2283 0.057697 18.9531 0.0925212C14.3147 0.679154 10.4342 3.97082 9.06818 8.47762C8.73841 9.56555 8.58918 10.6359 8.58918 11.9134C8.58918 13.8638 8.94881 15.4205 9.79898 17.1502C10.3485 18.2682 10.993 19.1955 11.8622 20.119C12.1748 20.4509 12.2113 20.505 12.1463 20.5387C12.1052 20.56 11.8652 20.6667 11.6128 20.7757C10.1855 21.3927 8.47933 22.3926 7.27546 23.3178C3.586 26.1532 1.18997 29.9142 0.312982 34.2468C0.0877291 35.3595 0.0327193 35.9399 0.0104902 37.4373C-0.0096954 38.7952 -0.00773524 38.8411 0.0801387 39.0741C0.206006 39.4078 0.508081 39.7278 0.840642 39.8797C1.06364 39.9816 1.15619 39.9997 1.45751 40C1.75771 40.0003 1.85034 39.9826 2.06224 39.8845C2.38959 39.733 2.67327 39.4502 2.81824 39.1309L2.93402 38.8761L2.9633 37.6041C2.99362 36.2864 3.04233 35.7803 3.23292 34.8028C3.676 32.5304 4.7078 30.3351 6.22806 28.4301C6.77666 27.7427 8.00906 26.5143 8.7143 25.952C10.407 24.6022 12.2987 23.5871 14.4874 22.8542C14.8527 22.7318 15.1811 22.6317 15.2173 22.6317C15.2534 22.6317 15.4894 22.7233 15.7417 22.8353C16.3023 23.0841 16.9604 23.308 17.5976 23.4667C18.6958 23.7403 19.4565 23.8172 20.7815 23.7885C21.6122 23.7706 21.8988 23.7475 22.4146 23.6575C24.4477 23.3026 26.1394 22.5619 27.7947 21.3018C28.2872 20.9269 29.3514 19.8808 29.7511 19.3787C30.7208 18.1606 31.5213 16.6083 31.945 15.1247C32.2507 14.0542 32.3768 13.1103 32.3768 11.8925C32.3768 10.9213 32.3359 10.4727 32.1684 9.60497C31.2039 4.61133 27.0836 0.74876 22.0184 0.0899772C21.5124 0.0241656 20.0842 -0.0231704 19.662 0.0119041ZM21.8724 3.07064C24.4629 3.50004 26.6505 4.95503 28.0822 7.20063C29.0377 8.69933 29.547 10.7601 29.4017 12.539C29.2291 14.6513 28.3641 16.5737 26.8999 18.0992C24.5093 20.5898 20.8908 21.4794 17.6445 20.3747C14.9823 19.4687 12.8654 17.3251 11.9868 14.6458C11.6804 13.7113 11.5503 12.8949 11.5503 11.9062C11.5503 10.5305 11.8474 9.2365 12.444 8.01389C13.128 6.61196 14.1512 5.42359 15.4498 4.52275C16.6467 3.69243 18.1472 3.14454 19.6412 2.99224C20.2053 2.93472 21.2804 2.97251 21.8724 3.07064ZM32.4691 22.6518C32.1562 22.7804 31.8849 23.0413 31.731 23.3616L31.6108 23.6118L31.6108 26.3123L31.6107 29.0127H28.9432C26.317 29.0127 26.2718 29.0141 26.0363 29.1022C25.7211 29.2202 25.4183 29.5045 25.2654 29.826C25.1665 30.034 25.1464 30.1305 25.1464 30.3978C25.1463 31.0016 25.4083 31.4341 25.9296 31.6908L26.208 31.8279L28.9093 31.8397L31.6107 31.8516V34.5177C31.6107 37.1248 31.6127 37.1891 31.6984 37.4182C31.8182 37.7385 32.1466 38.0647 32.4728 38.1878C33.2109 38.4661 34.0576 38.1123 34.3179 37.4168C34.4029 37.1895 34.405 37.1198 34.405 34.518V31.8521L37.1064 31.84L39.8078 31.8279L40.0862 31.6908C40.423 31.5249 40.6652 31.2649 40.7882 30.9373C40.9069 30.6208 40.8896 30.0845 40.7514 29.8015C40.623 29.5383 40.3506 29.2721 40.077 29.1423L39.8476 29.0336L37.1263 29.0223L34.405 29.011L34.405 26.3114L34.4049 23.6118L34.2859 23.3616C33.9607 22.6776 33.1637 22.3662 32.4691 22.6518Z" fill="#B80929"/>
</svg>
