<svg width="25" height="25" viewBox="0 0 25 25" fill="none" xmlns="http://www.w3.org/2000/svg"><path d="M12.3218 12.0426C13.9762 12.0426 15.4086 11.4492 16.5794 10.2785C17.7497 9.10795 18.3433 7.67573 18.3433 6.02111C18.3433 4.36706 17.7499 2.93464 16.5792 1.76372C15.4084 0.593375 13.976 0 12.3218 0C10.6672 0 9.23493 0.593375 8.0644 1.76391C6.89386 2.93445 6.30029 4.36687 6.30029 6.02111C6.30029 7.67573 6.89386 9.10815 8.0644 10.2787C9.23532 11.449 10.6677 12.0426 12.3218 12.0426ZM9.10047 2.79979C9.99863 1.90162 11.0523 1.46503 12.3218 1.46503C13.5911 1.46503 14.6449 1.90162 15.5433 2.79979C16.4415 3.69815 16.8782 4.75196 16.8782 6.02111C16.8782 7.29064 16.4415 8.34425 15.5433 9.24261C14.6449 10.141 13.5911 10.5776 12.3218 10.5776C11.0526 10.5776 9.99902 10.1408 9.10047 9.24261C8.20211 8.34444 7.76532 7.29064 7.76532 6.02111C7.76532 4.75196 8.20211 3.69815 9.10047 2.79979Z" fill="#EEB8B8"/><path d="M22.8578 19.2235C22.8241 18.7363 22.7558 18.2049 22.6553 17.6438C22.5538 17.0785 22.4231 16.544 22.2667 16.0555C22.105 15.5507 21.8855 15.0521 21.6137 14.5743C21.3319 14.0784 21.0008 13.6466 20.6293 13.2912C20.2408 12.9195 19.7651 12.6206 19.215 12.4026C18.6668 12.1857 18.0593 12.0759 17.4095 12.0759C17.1543 12.0759 16.9075 12.1806 16.4308 12.4909C16.1375 12.6822 15.7943 12.9035 15.4114 13.1482C15.0839 13.3568 14.6402 13.5523 14.0922 13.7294C13.5576 13.9023 13.0148 13.9901 12.4788 13.9901C11.9432 13.9901 11.4004 13.9023 10.8654 13.7294C10.318 13.5525 9.87414 13.357 9.54722 13.1484C9.16785 12.906 8.82453 12.6847 8.52679 12.4907C8.05053 12.1804 7.80372 12.0757 7.54851 12.0757C6.89849 12.0757 6.29119 12.1857 5.74321 12.4028C5.19351 12.6204 4.71763 12.9193 4.32872 13.2914C3.95717 13.647 3.62606 14.0786 3.34453 14.5743C3.07312 15.0521 2.85339 15.5505 2.69165 16.0557C2.53544 16.5442 2.40478 17.0785 2.30331 17.6438C2.20261 18.2042 2.13451 18.7358 2.10075 19.224C2.06757 19.7014 2.05078 20.1983 2.05078 20.7003C2.05078 22.0053 2.46563 23.0618 3.28369 23.841C4.09164 24.6098 5.16052 24.9997 6.46075 24.9997H18.4984C19.7982 24.9997 20.8671 24.6098 21.6753 23.841C22.4935 23.0624 22.9084 22.0055 22.9084 20.7001C22.9082 20.1964 22.8912 19.6995 22.8578 19.2235ZM20.6651 22.7795C20.1313 23.2876 19.4225 23.5346 18.4982 23.5346H6.46075C5.53626 23.5346 4.82749 23.2876 4.29382 22.7797C3.77025 22.2813 3.51581 21.601 3.51581 20.7003C3.51581 20.2319 3.53126 19.7693 3.56216 19.3253C3.5923 18.8897 3.6539 18.4111 3.74527 17.9026C3.83548 17.4004 3.95031 16.9291 4.08687 16.5024C4.21791 16.0933 4.39663 15.6882 4.61826 15.298C4.82978 14.926 5.07316 14.6069 5.34171 14.3498C5.59291 14.1093 5.90953 13.9125 6.28261 13.7648C6.62765 13.6283 7.01541 13.5535 7.43636 13.5422C7.48767 13.5695 7.57903 13.6216 7.72704 13.7181C8.02821 13.9144 8.37535 14.1383 8.7591 14.3834C9.19169 14.6592 9.74902 14.9083 10.4149 15.1232C11.0956 15.3433 11.7899 15.4551 12.479 15.4551C13.1681 15.4551 13.8626 15.3433 14.5429 15.1234C15.2094 14.9081 15.7665 14.6592 16.1997 14.383C16.5924 14.132 16.9298 13.9146 17.231 13.7181C17.379 13.6218 17.4703 13.5695 17.5216 13.5422C17.9428 13.5535 18.3305 13.6283 18.6758 13.7648C19.0487 13.9125 19.3653 14.1095 19.6165 14.3498C19.885 14.6067 20.1284 14.9258 20.3399 15.2981C20.5618 15.6882 20.7407 16.0935 20.8715 16.5022C21.0083 16.9295 21.1233 17.4006 21.2133 17.9024C21.3045 18.4119 21.3663 18.8906 21.3964 19.3255V19.3259C21.4275 19.7682 21.4431 20.2305 21.4433 20.7003C21.4431 21.6012 21.1887 22.2813 20.6651 22.7795Z" fill="#EEB8B8"/></svg>