<svg width="19" height="20" viewBox="0 0 19 20" fill="none" xmlns="http://www.w3.org/2000/svg"><path d="M8.93039 18.854H3.71392C2.29626 18.854 1.14601 17.6995 1.14601 16.2861V3.71392C1.14601 2.29626 2.30051 1.14601 3.71392 1.14601H9.01528C9.33362 1.14601 9.58829 0.891341 9.58829 0.573005C9.58829 0.254669 9.33362 0 9.01528 0H3.71392C1.66384 0 0 1.66808 0 3.71392V16.2861C0 18.3362 1.66808 20 3.71392 20H8.93039C9.24873 20 9.5034 19.7453 9.5034 19.427C9.5034 19.1087 9.24448 18.854 8.93039 18.854Z" fill="#B70A29"/><path d="M18.3701 9.59759L14.7283 5.95583C14.5034 5.73087 14.1426 5.73087 13.9176 5.95583C13.6927 6.18078 13.6927 6.54156 13.9176 6.76652L16.5832 9.43205H4.95753C4.63919 9.43205 4.38452 9.68672 4.38452 10.0051C4.38452 10.3234 4.63919 10.5781 4.95753 10.5781H16.5832L13.9176 13.2436C13.6927 13.4685 13.6927 13.8293 13.9176 14.0543C14.028 14.1646 14.1765 14.2241 14.3208 14.2241C14.4652 14.2241 14.6137 14.1689 14.7241 14.0543L18.3658 10.4125C18.595 10.1833 18.595 9.8183 18.3701 9.59759Z" fill="#B70A29"/></svg>