<svg width="20" height="20" viewBox="0 0 20 20" fill="none" xmlns="http://www.w3.org/2000/svg"><path d="M7.73747 15.2031H3.16733C2.91742 15.2031 2.71484 15.4057 2.71484 15.6556C2.71484 15.9055 2.91742 16.1081 3.16733 16.1081H7.73747C7.98738 16.1081 8.18996 15.9055 8.18996 15.6556C8.18996 15.4057 7.98738 15.2031 7.73747 15.2031Z" fill="black"/><path d="M14.5702 15.2031H10.0001C9.75019 15.2031 9.54761 15.4057 9.54761 15.6556C9.54761 15.9055 9.75019 16.1081 10.0001 16.1081H14.5702C14.8201 16.1081 15.0227 15.9055 15.0227 15.6556C15.0227 15.4057 14.8201 15.2031 14.5702 15.2031Z" fill="black"/><path d="M14.5701 3.89062H3.16733C2.91742 3.89062 2.71484 4.0932 2.71484 4.34311C2.71484 4.59302 2.91742 4.7956 3.16733 4.7956H14.5701C14.8199 4.7956 15.0225 4.59302 15.0225 4.34311C15.0225 4.0932 14.8199 3.89062 14.5701 3.89062Z" fill="black"/><path d="M14.5702 6.15234H10.0001C9.75019 6.15234 9.54761 6.35492 9.54761 6.60483C9.54761 6.85474 9.75019 7.05732 10.0001 7.05732H14.5702C14.8201 7.05732 15.0227 6.85474 15.0227 6.60483C15.0227 6.35492 14.8201 6.15234 14.5702 6.15234Z" fill="black"/><path d="M14.5702 8.41602H10.0001C9.75019 8.41602 9.54761 8.61859 9.54761 8.8685C9.54761 9.11841 9.75019 9.32099 10.0001 9.32099H14.5702C14.8201 9.32099 15.0227 9.11841 15.0227 8.8685C15.0227 8.61859 14.8201 8.41602 14.5702 8.41602Z" fill="black"/><path d="M14.5702 10.6777H10.0001C9.75019 10.6777 9.54761 10.8803 9.54761 11.1302C9.54761 11.3801 9.75019 11.5827 10.0001 11.5827H14.5702C14.8201 11.5827 15.0227 11.3801 15.0227 11.1302C15.0227 10.8803 14.8201 10.6777 14.5702 10.6777Z" fill="black"/><path d="M14.5702 12.9414H10.0001C9.75019 12.9414 9.54761 13.144 9.54761 13.3939C9.54761 13.6438 9.75019 13.8464 10.0001 13.8464H14.5702C14.8201 13.8464 15.0227 13.6438 15.0227 13.3939C15.0227 13.144 14.8201 12.9414 14.5702 12.9414Z" fill="black"/><path d="M7.73747 12.9414H3.16733C2.91742 12.9414 2.71484 13.144 2.71484 13.3939C2.71484 13.6438 2.91742 13.8464 3.16733 13.8464H7.73747C7.98738 13.8464 8.18996 13.6438 8.18996 13.3939C8.18996 13.144 7.98738 12.9414 7.73747 12.9414Z" fill="black"/><path d="M7.73747 6.15234H3.16733C2.91742 6.15234 2.71484 6.35492 2.71484 6.60483V11.175C2.71484 11.4249 2.91742 11.6275 3.16733 11.6275H7.73747C7.98738 11.6275 8.18996 11.4249 8.18996 11.175V6.60483C8.18996 6.35492 7.98738 6.15234 7.73747 6.15234ZM7.28498 10.7225H3.61982V7.05732H7.28498V10.7225Z" fill="black"/><path d="M19.095 3.43823H17.7376V2.08076C17.7376 1.58175 17.3316 1.17578 16.8326 1.17578H0.904977C0.405973 1.17578 0 1.58175 0 2.08076V16.5604C0 17.8079 1.01493 18.8228 2.26244 18.8228H17.7376C18.9851 18.8228 20 17.8079 20 16.5604V4.3432C20 3.8442 19.594 3.43823 19.095 3.43823ZM19.095 16.5604C19.095 17.3089 18.4861 17.9179 17.7376 17.9179H2.26244C1.51394 17.9179 0.904977 17.3089 0.904977 16.5604V2.08076H16.8326V15.8817C16.8326 16.5054 17.34 17.0129 17.9638 17.0129C18.2137 17.0129 18.4163 16.8103 18.4163 16.5604C18.4163 16.3105 18.2137 16.1079 17.9638 16.1079C17.8391 16.1079 17.7376 16.0064 17.7376 15.8817V4.3432H19.095V16.5604Z" fill="black"/></svg>