<svg width="20" height="20" viewBox="0 0 20 20" fill="none" xmlns="http://www.w3.org/2000/svg"><path d="M18.4812 7.09062H17.7696L14.5834 1.08117C14.4318 0.795232 14.0771 0.686443 13.7912 0.837889C13.5052 0.98949 13.3963 1.34418 13.5479 1.63012L16.4431 7.09055H3.64191L6.53707 1.63012C6.68867 1.34418 6.57977 0.98949 6.29383 0.837889C6.00793 0.686326 5.6532 0.795232 5.5016 1.08117L2.31543 7.09062H1.51879C0.681328 7.09062 0 7.77195 0 8.60941C0 9.44687 0.681328 10.1282 1.51879 10.1282H1.56094C1.56223 10.1366 1.5632 10.145 1.56469 10.1533L2.78672 17.0054C3.01652 18.2939 4.1332 19.229 5.44195 19.229H14.643C15.9517 19.229 17.0684 18.2939 17.2982 17.0054L18.5202 10.1533C18.5218 10.1446 18.5229 10.1359 18.5242 10.1271C19.3418 10.1042 20 9.43246 20 8.60941C20 7.77191 19.3187 7.09062 18.4812 7.09062ZM16.1445 16.7997C16.0146 17.5283 15.3831 18.0571 14.643 18.0571H5.44199C4.70191 18.0571 4.07047 17.5283 3.94051 16.7997L2.75074 10.1282H17.3343L16.1445 16.7997ZM18.4812 8.95621H1.51879C1.32754 8.95621 1.17199 8.80066 1.17199 8.60941C1.17199 8.41816 1.32754 8.26258 1.51879 8.26258H18.4812C18.6724 8.26258 18.828 8.41812 18.828 8.60941C18.828 8.80066 18.6725 8.95621 18.4812 8.95621Z" fill="#B70A29"/><path d="M9.97464 10.9414C9.65101 10.9414 9.38867 11.2038 9.38867 11.5274V16.6583C9.38867 16.9819 9.65105 17.2443 9.97464 17.2443C10.2983 17.2443 10.5606 16.9819 10.5606 16.6583V11.5274C10.5606 11.2038 10.2983 10.9414 9.97464 10.9414Z" fill="#B70A29"/><path d="M7.97542 16.5611L7.1112 11.4302C7.05749 11.111 6.75483 10.8959 6.436 10.9496C6.11686 11.0034 5.90175 11.3057 5.9555 11.6248L6.81975 16.7558C6.86796 17.042 7.11604 17.2445 7.39686 17.2445C7.42921 17.2445 7.46198 17.2418 7.49487 17.2363C7.81405 17.1826 8.02917 16.8802 7.97542 16.5611Z" fill="#B70A29"/><path d="M13.4724 10.9496C13.1536 10.8961 12.8511 11.1109 12.7972 11.4301L11.933 16.561C11.8793 16.8801 12.0944 17.1824 12.4136 17.2362C12.4465 17.2418 12.4792 17.2444 12.5116 17.2444C12.7924 17.2444 13.0405 17.0419 13.0887 16.7557L13.9529 11.6248C14.0067 11.3056 13.7916 11.0033 13.4724 10.9496Z" fill="#B70A29"/></svg>