<svg width="40" height="40" viewBox="0 0 40 40" fill="none" xmlns="http://www.w3.org/2000/svg"><rect width="40" height="40" rx="5" fill="#F9F9F9"/><path d="M28.9825 27.8952C28.909 27.8475 28.356 27.46 27.8021 26.2879C26.7851 24.1355 26.5716 21.1033 26.5716 18.9387C26.5716 18.9293 26.5714 18.92 26.5711 18.9106C26.56 16.0498 24.847 13.5837 22.3956 12.4772V10.785C22.3956 9.24932 21.1483 8 19.6152 8H19.3848C17.8517 8 16.6044 9.24932 16.6044 10.785V12.4771C14.1449 13.5872 12.4284 16.0659 12.4284 18.9387C12.4284 21.1033 12.2149 24.1354 11.1979 26.2879C10.6441 27.46 10.0911 27.8474 10.0175 27.8952C9.70785 28.0385 9.55517 28.3695 9.62641 28.705C9.69833 29.0438 10.015 29.2774 10.3609 29.2774H15.7294C15.7594 31.3351 17.4388 33 19.5 33C21.5613 33 23.2407 31.3351 23.2707 29.2774H28.6392C28.985 29.2774 29.3018 29.0438 29.3737 28.705C29.4448 28.3695 29.2922 28.0384 28.9825 27.8952ZM18.0693 10.785C18.0693 10.0583 18.6595 9.46724 19.3849 9.46724H19.6153C20.3407 9.46724 20.9308 10.0583 20.9308 10.785V12.0016C20.4685 11.9061 19.9899 11.8558 19.4998 11.8558C19.0099 11.8558 18.5315 11.906 18.0694 12.0015V10.785H18.0693ZM19.5 31.5328C18.2465 31.5328 17.224 30.5261 17.1942 29.2775H21.8058C21.7761 30.526 20.7536 31.5328 19.5 31.5328ZM22.4493 27.8102C22.4491 27.8102 12.0301 27.8102 12.0301 27.8102C12.1568 27.6127 12.2857 27.3891 12.4139 27.1364C13.3955 25.2007 13.8933 22.4426 13.8933 18.9387C13.8933 15.8422 16.4084 13.323 19.4998 13.323C22.5912 13.323 25.1063 15.8422 25.1063 18.9412C25.1063 18.9502 25.1064 18.9592 25.1068 18.9682C25.1096 22.458 25.6073 25.2062 26.5862 27.1364C26.7143 27.3892 26.8434 27.6127 26.97 27.8102H22.4493Z" fill="#B70A29"/></svg>