<svg width="20" height="21" viewBox="0 0 20 21" fill="none" xmlns="http://www.w3.org/2000/svg"><path d="M2.91114 19.3054H1.49401L2.4961 18.3033C3.03641 17.7629 3.37382 17.0602 3.46453 16.2978C2.05459 15.3726 1.02358 14.1552 0.471684 12.7592C-0.079823 11.3642 -0.149128 9.82857 0.271282 8.31825C0.775712 6.50602 1.95883 4.85424 3.60263 3.66713C5.38892 2.37717 7.61264 1.69531 10.0334 1.69531C13.083 1.69531 15.6534 2.57147 17.4667 4.22901C19.1003 5.7223 20 7.73654 20 9.90073C20 10.9522 19.7859 11.9752 19.3637 12.9415C18.9268 13.9414 18.287 14.8317 17.4621 15.5877C15.6463 17.2518 13.0775 18.1314 10.0334 18.1314C8.90333 18.1314 7.72413 17.9805 6.67132 17.7037C5.67479 18.7259 4.32441 19.3054 2.91114 19.3054ZM10.0334 2.86932C5.17936 2.86932 2.20087 5.76413 1.40228 8.63308C0.647628 11.3442 1.76007 13.906 4.3781 15.4859L4.67062 15.6625L4.66162 16.004C4.64378 16.68 4.48263 17.3311 4.19417 17.9196C4.89658 17.682 5.53395 17.2511 6.03305 16.6615L6.28124 16.3682L6.64929 16.4783C7.68214 16.7872 8.88396 16.9573 10.0334 16.9573C16.0745 16.9573 18.826 13.2994 18.826 9.90073C18.826 8.07023 18.062 6.3637 16.6746 5.09554C15.0814 3.63915 12.7849 2.86932 10.0334 2.86932Z" fill="#495FEA"/></svg>