<svg width="20" height="21" viewBox="0 0 20 21" fill="none" xmlns="http://www.w3.org/2000/svg"><path d="M19.9259 10.2628C19.7684 10.0336 15.9834 4.66602 9.99995 4.66602C4.86569 4.66602 0.29062 10.0028 0.0981168 10.2303C-0.0327056 10.3853 -0.0327056 10.6128 0.0981168 10.7686C0.29062 10.9961 4.86569 16.3329 9.99995 16.3329C15.1342 16.3329 19.7092 10.9961 19.9017 10.7686C20.0226 10.6253 20.0334 10.4178 19.9259 10.2628ZM9.99995 15.4995C5.88407 15.4995 1.97065 11.5745 0.97649 10.4995C1.96901 9.42363 5.87825 5.49939 9.99995 5.49939C14.8158 5.49939 18.2151 9.41863 19.0451 10.477C18.0867 11.5178 14.1508 15.4995 9.99995 15.4995Z" fill="#B1B1B1"/><path d="M10.0013 7.16602C8.16299 7.16602 6.66797 8.66104 6.66797 10.4994C6.66797 12.3377 8.16299 13.8328 10.0013 13.8328C11.8397 13.8328 13.3347 12.3377 13.3347 10.4994C13.3347 8.66104 11.8397 7.16602 10.0013 7.16602ZM10.0013 12.9995C8.623 12.9995 7.5013 11.8778 7.5013 10.4994C7.5013 9.12109 8.623 7.99939 10.0013 7.99939C11.3797 7.99939 12.5014 9.12109 12.5014 10.4994C12.5014 11.8778 11.3797 12.9995 10.0013 12.9995Z" fill="#B1B1B1"/></svg>