<svg width="17" height="16" viewBox="0 0 17 16" fill="none" xmlns="http://www.w3.org/2000/svg"><path fill-rule="evenodd" clip-rule="evenodd" d="M9.31818 1.18164C9.31818 0.629356 8.87047 0.181641 8.31818 0.181641C7.7659 0.181641 7.31818 0.629356 7.31818 1.18164V6.99982H1.5C0.947715 6.99982 0.5 7.44754 0.5 7.99982C0.5 8.55211 0.947715 8.99982 1.5 8.99982H7.31818V14.818C7.31818 15.3703 7.7659 15.818 8.31818 15.818C8.87047 15.818 9.31818 15.3703 9.31818 14.818V8.99982H15.1364C15.6886 8.99982 16.1364 8.55211 16.1364 7.99982C16.1364 7.44754 15.6886 6.99982 15.1364 6.99982H9.31818V1.18164Z" fill="#B1B1B1"/></svg>