<svg width="20" height="20" viewBox="0 0 20 20" fill="none" xmlns="http://www.w3.org/2000/svg"><path d="M19.1395 13.5968C19.5493 13.074 19.7459 12.5136 19.7208 11.9364C19.6957 11.3007 19.4113 10.803 19.1771 10.4977C19.449 9.82016 19.5535 8.75366 18.646 7.92555C17.981 7.31911 16.8517 7.04726 15.2875 7.12254C14.1876 7.17273 13.2674 7.37767 13.2298 7.38603H13.2256C13.0165 7.42367 12.7948 7.46968 12.569 7.51987C12.5523 7.2522 12.5983 6.5872 13.0918 5.08992C13.6773 3.30824 13.6439 1.94479 12.983 1.03304C12.2888 0.0752824 11.1805 0 10.8542 0C10.5406 0 10.252 0.129653 10.047 0.368047C9.5828 0.90757 9.63717 1.90297 9.69572 2.36303C9.14365 3.84358 7.59618 7.47386 6.28711 8.48181C6.26201 8.49854 6.2411 8.51945 6.22019 8.54036C5.83541 8.94605 5.57611 9.38519 5.40045 9.76997C5.15369 9.63614 4.87347 9.56085 4.57234 9.56085H2.02111C1.05917 9.56085 0.28125 10.343 0.28125 11.3007V18.097C0.28125 19.059 1.06335 19.8369 2.02111 19.8369H4.57234C4.94457 19.8369 5.29171 19.7198 5.57611 19.519L6.55896 19.6361C6.70952 19.657 9.38623 19.9958 12.134 19.9414C12.6317 19.9791 13.1002 20 13.5351 20C14.2838 20 14.9362 19.9414 15.4799 19.8243C16.7597 19.5525 17.6338 19.0088 18.0772 18.21C18.4159 17.5993 18.4159 16.9929 18.3616 16.6081C19.1938 15.8553 19.3402 15.023 19.3109 14.4375C19.2942 14.0987 19.2189 13.8101 19.1395 13.5968ZM2.02111 18.7077C1.68234 18.7077 1.41048 18.4316 1.41048 18.097V11.2965C1.41048 10.9578 1.68652 10.6859 2.02111 10.6859H4.57234C4.91111 10.6859 5.18296 10.9619 5.18296 11.2965V18.0928C5.18296 18.4316 4.90693 18.7035 4.57234 18.7035H2.02111V18.7077ZM18.0688 13.1075C17.8931 13.2915 17.8597 13.5717 17.9935 13.7892C17.9935 13.7934 18.165 14.0862 18.1859 14.4877C18.2152 15.0355 17.9517 15.5207 17.3996 15.9348C17.203 16.0853 17.1236 16.3446 17.2072 16.5788C17.2072 16.583 17.3871 17.1351 17.0943 17.6579C16.8141 18.1598 16.1909 18.5194 15.2457 18.7202C14.4887 18.8833 13.4598 18.9126 12.1968 18.8122C12.18 18.8122 12.1591 18.8122 12.1382 18.8122C9.44896 18.8708 6.73043 18.5194 6.70116 18.5153H6.69698L6.27456 18.4651C6.29965 18.348 6.3122 18.2225 6.3122 18.097V11.2965C6.3122 11.1167 6.28292 10.941 6.23274 10.7779C6.30802 10.4977 6.51713 9.87453 7.01065 9.34337C8.88853 7.85445 10.7246 2.83145 10.804 2.61397C10.8375 2.52614 10.8459 2.42995 10.8291 2.33375C10.758 1.86533 10.7831 1.29235 10.8835 1.12087C11.1052 1.12505 11.7032 1.18779 12.0629 1.68549C12.4895 2.2752 12.4728 3.32915 12.0127 4.72606C11.3101 6.85487 11.2516 7.97574 11.8078 8.46926C12.0838 8.71602 12.4519 8.72857 12.7196 8.63237C12.9747 8.57382 13.2173 8.52363 13.4473 8.48599C13.464 8.48181 13.4849 8.47762 13.5017 8.47344C14.7856 8.19322 17.0859 8.02175 17.8848 8.74948C18.5623 9.36846 18.0813 10.1882 18.027 10.276C17.8722 10.5102 17.9182 10.8156 18.1273 11.0038C18.1315 11.0079 18.5707 11.422 18.5916 11.9783C18.6083 12.3505 18.4327 12.7311 18.0688 13.1075Z" fill="black"/></svg>