<svg width="20" height="20" viewBox="0 0 20 20" fill="none" xmlns="http://www.w3.org/2000/svg"><path d="M0.860531 6.40318C0.450659 6.92597 0.254089 7.48641 0.279184 8.06357C0.304277 8.69929 0.588678 9.19699 0.822889 9.5023C0.551037 10.1798 0.446478 11.2463 1.35405 12.0744C2.01904 12.6809 3.14828 12.9527 4.71247 12.8775C5.81243 12.8273 6.73255 12.6223 6.77019 12.614H6.77437C6.98349 12.5763 7.20516 12.5303 7.431 12.4801C7.44773 12.7478 7.40173 13.4128 6.90821 14.9101C6.32268 16.6918 6.35614 18.0552 7.01695 18.967C7.71122 19.9247 8.81954 20 9.14577 20C9.45944 20 9.74803 19.8703 9.95296 19.632C10.4172 19.0924 10.3628 18.097 10.3043 17.637C10.8563 16.1564 12.4038 12.5261 13.7129 11.5182C13.738 11.5015 13.7589 11.4806 13.7798 11.4596C14.1646 11.054 14.4239 10.6148 14.5996 10.23C14.8463 10.3639 15.1265 10.4391 15.4277 10.4391H17.9789C18.9408 10.4391 19.7188 9.65705 19.7188 8.69929L19.7188 1.90297C19.7188 0.941029 18.9367 0.163113 17.9789 0.163113H15.4277C15.0554 0.163113 14.7083 0.280218 14.4239 0.48097L13.441 0.363865C13.2905 0.342955 10.6138 0.00418472 7.86597 0.0585537C7.36827 0.0209141 6.89984 0 6.46488 0C5.71624 0 5.06379 0.0585537 4.52009 0.175659C3.24029 0.447512 2.36618 0.991219 1.92285 1.79005C1.58408 2.40067 1.58408 3.00711 1.63845 3.39189C0.80616 4.14471 0.659779 4.977 0.689054 5.56253C0.705784 5.9013 0.781065 6.18988 0.860531 6.40318ZM17.9789 1.29235C18.3177 1.29235 18.5895 1.56838 18.5895 1.90297L18.5895 8.70347C18.5895 9.04224 18.3135 9.3141 17.9789 9.3141H15.4277C15.0889 9.3141 14.817 9.03806 14.817 8.70347V1.90715C14.817 1.56838 15.0931 1.29653 15.4277 1.29653H17.9789V1.29235ZM1.93121 6.89251C2.10687 6.70849 2.14033 6.42827 2.00649 6.21079C2.00649 6.20661 1.83502 5.91385 1.81411 5.51234C1.78483 4.96445 2.04832 4.4793 2.60039 4.06525C2.79696 3.91468 2.87642 3.65537 2.79278 3.42116C2.79278 3.41698 2.61294 2.86491 2.9057 2.34212C3.18592 1.84023 3.80909 1.48055 4.7543 1.2798C5.5113 1.11669 6.54016 1.08741 7.80323 1.18779C7.81996 1.18779 7.84087 1.18779 7.86179 1.18779C10.551 1.12924 13.2696 1.48055 13.2988 1.48474H13.303L13.7254 1.53492C13.7003 1.65203 13.6878 1.7775 13.6878 1.90297V8.70347C13.6878 8.88331 13.7171 9.05897 13.7673 9.22208C13.692 9.5023 13.4829 10.1255 12.9893 10.6566C11.1115 12.1455 9.27542 17.1685 9.19596 17.386C9.1625 17.4739 9.15413 17.5701 9.17086 17.6662C9.24196 18.1347 9.21687 18.7077 9.11649 18.8791C8.89483 18.8749 8.29675 18.8122 7.93707 18.3145C7.51047 17.7248 7.5272 16.6708 7.98726 15.2739C8.68989 13.1451 8.74844 12.0243 8.19219 11.5307C7.91616 11.284 7.54811 11.2714 7.28044 11.3676C7.02531 11.4262 6.78274 11.4764 6.55271 11.514C6.53598 11.5182 6.51507 11.5224 6.49834 11.5266C5.21436 11.8068 2.91406 11.9783 2.11523 11.2505C1.43769 10.6315 1.91866 9.8118 1.97304 9.72397C2.12778 9.48975 2.08178 9.18444 1.87266 8.99624C1.86848 8.99205 1.42933 8.578 1.40842 8.02175C1.39169 7.64952 1.56735 7.26893 1.93121 6.89251Z" fill="black"/></svg>