<svg width="12" height="14" viewBox="0 0 12 14" fill="none" xmlns="http://www.w3.org/2000/svg"><path d="M3.14878 2.63907V10.1855C3.14878 10.5249 3.10665 10.8776 3.23211 11.193C3.43052 11.6917 4.07164 12.3859 6.10354 12.3859C8.96292 12.3859 8.96294 10.6952 8.96294 10.6952C8.96294 10.6952 8.96294 10.6952 8.96294 10.6952V2.22237C8.96294 2.22237 8.96294 2.22237 8.96294 2.22237C8.96294 2.22237 8.96294 0 4.89303 0C0.82312 0 0.82312 2.22237 0.82312 2.22237C0.82312 2.22237 0.82312 2.22237 0.82312 2.22237V10.6952C0.82312 10.6952 0.82312 13.8898 6.05586 13.8898C11.2886 13.8898 11.2886 10.6952 11.2886 10.6952V2.22237C11.2886 1.87513 10.1258 1.87513 10.1258 2.22237V10.0391C10.1258 10.4757 10.1848 10.9223 10.0732 11.3444C9.87249 12.1038 9.07146 13.2585 6.05586 13.2585C1.98595 13.2585 1.98595 10.6952 1.98595 10.6952V2.22237C1.98595 2.22237 1.98595 2.22237 1.98595 2.22237C1.98595 2.22236 1.98596 0.631355 4.89303 0.631355C7.80011 0.631355 7.80011 2.22237 7.80011 2.22237C7.80011 2.22237 7.80011 2.22237 7.80011 2.22237V10.6952V10.6952C7.80011 10.6952 7.80009 11.6915 6.10354 11.6915C5.08607 11.6915 4.6445 11.3331 4.45403 11.0462C4.3132 10.8342 4.31162 10.5677 4.31162 10.3131V2.63907C4.31162 2.29182 3.14878 2.29182 3.14878 2.63907Z" fill="#B1B1B1"/></svg>