<svg width="18" height="16" viewBox="0 0 18 16" fill="none" xmlns="http://www.w3.org/2000/svg"><path d="M8.98555 0C7.32965 0 5.71093 0.469192 4.3341 1.34824C2.95727 2.22729 1.88416 3.47672 1.25047 4.93853C0.616787 6.40034 0.450986 8.00887 0.774036 9.56072C1.09709 11.1126 1.89448 12.538 3.06538 13.6569C4.23628 14.7757 5.7281 15.5376 7.35218 15.8463C8.97626 16.155 10.6597 15.9965 12.1895 15.391C13.7194 14.7855 15.027 13.7602 15.9469 12.4446C16.8669 11.129 17.3579 9.58225 17.3579 8C17.3554 5.879 16.4725 3.84556 14.903 2.34579C13.3334 0.846017 11.2053 0.0023935 8.98555 0ZM8.98555 15.0588C7.52446 15.0588 6.09618 14.6448 4.88133 13.8692C3.66648 13.0936 2.71962 11.9911 2.16048 10.7013C1.60135 9.41146 1.45505 7.99217 1.7401 6.62289C2.02514 5.25361 2.72872 3.99585 3.76187 3.00866C4.79502 2.02146 6.11133 1.34918 7.54434 1.07681C8.97736 0.804443 10.4627 0.944232 11.8126 1.4785C13.1625 2.01276 14.3162 2.91751 15.128 4.07833C15.9397 5.23914 16.373 6.6039 16.373 8C16.3707 9.87146 15.5917 11.6657 14.2068 12.989C12.8219 14.3123 10.9441 15.0567 8.98555 15.0588ZM12.8247 10.1177C12.4353 10.7612 11.8755 11.2956 11.2017 11.6671C10.5278 12.0385 9.76354 12.2341 8.98558 12.2341C8.20761 12.2341 7.44333 12.0386 6.76946 11.6671C6.09559 11.2956 5.53585 10.7613 5.14644 10.1178C5.11406 10.0643 5.09301 10.0052 5.08452 9.94395C5.07602 9.88269 5.08023 9.82043 5.09692 9.76072C5.1136 9.70102 5.14243 9.64504 5.18176 9.59598C5.22108 9.54692 5.27014 9.50574 5.32612 9.4748C5.3821 9.44386 5.44391 9.42375 5.50802 9.41563C5.57213 9.40751 5.63729 9.41154 5.69977 9.42748C5.76226 9.44342 5.82084 9.47097 5.87218 9.50855C5.92353 9.54612 5.96662 9.59299 5.99901 9.64648C6.37525 10.2675 6.95249 10.7548 7.64378 11.0352C8.27571 11.2906 8.97308 11.3598 9.64647 11.234C10.3199 11.1082 10.9386 10.793 11.4232 10.329C11.6365 10.1253 11.821 9.89579 11.9721 9.64641C12.0044 9.59285 12.0475 9.54592 12.0989 9.50828C12.1502 9.47064 12.2088 9.44305 12.2713 9.42707C12.3339 9.41108 12.399 9.40703 12.4632 9.41514C12.5274 9.42325 12.5892 9.44336 12.6452 9.47433C12.7012 9.50529 12.7503 9.5465 12.7897 9.5956C12.829 9.6447 12.8578 9.70072 12.8745 9.76047C12.8911 9.82022 12.8953 9.88252 12.8868 9.94382C12.8782 10.0051 12.8571 10.0642 12.8247 10.1177L12.8247 10.1177ZM5.20977 6.43137C5.20977 6.27625 5.25791 6.12461 5.3481 5.99563C5.4383 5.86665 5.56649 5.76612 5.71648 5.70676C5.86646 5.6474 6.0315 5.63187 6.19073 5.66213C6.34995 5.69239 6.49621 5.76709 6.611 5.87678C6.7258 5.98647 6.80397 6.12622 6.83564 6.27836C6.86731 6.4305 6.85106 6.5882 6.78893 6.73151C6.72681 6.87483 6.6216 6.99732 6.48662 7.0835C6.35163 7.16969 6.19294 7.21568 6.03059 7.21568C5.81297 7.21545 5.60433 7.13275 5.45045 6.98571C5.29657 6.83867 5.21001 6.63931 5.20977 6.43137ZM11.1197 6.43137C11.1197 6.27625 11.1678 6.12461 11.258 5.99563C11.3482 5.86665 11.4764 5.76612 11.6264 5.70676C11.7764 5.6474 11.9414 5.63187 12.1006 5.66213C12.2599 5.69239 12.4061 5.76709 12.5209 5.87678C12.6357 5.98647 12.7139 6.12622 12.7456 6.27836C12.7772 6.4305 12.761 6.5882 12.6989 6.73151C12.6367 6.87483 12.5315 6.99732 12.3965 7.0835C12.2616 7.16969 12.1029 7.21568 11.9405 7.21568C11.7229 7.21545 11.5143 7.13275 11.3604 6.98571C11.2065 6.83867 11.1199 6.63931 11.1197 6.43137Z" fill="#B1B1B1"/></svg>