<svg width="20" height="21" viewBox="0 0 20 21" fill="none" xmlns="http://www.w3.org/2000/svg"><path d="M15.2734 13.9609C14.3301 13.9609 13.4724 14.3345 12.8403 14.9414L9.08039 12.612C9.29492 12.1148 9.41406 11.5672 9.41406 10.9922C9.41406 10.4172 9.29492 9.86957 9.08035 9.37242L12.8403 7.04301C13.4724 7.64984 14.3301 8.02344 15.2734 8.02344C17.212 8.02344 18.7891 6.44633 18.7891 4.50781C18.7891 2.5693 17.212 0.992188 15.2734 0.992188C13.3349 0.992188 11.7578 2.5693 11.7578 4.50781C11.7578 5.08012 11.8954 5.6209 12.139 6.09891L8.46707 8.37383C7.7141 7.4682 6.57953 6.89062 5.3125 6.89062C3.0509 6.89062 1.21094 8.73059 1.21094 10.9922C1.21094 13.2538 3.0509 15.0938 5.3125 15.0938C6.57953 15.0938 7.7141 14.5162 8.46707 13.6105L12.139 15.8855C11.8954 16.3635 11.7578 16.9043 11.7578 17.4766C11.7578 19.4151 13.3349 20.9922 15.2734 20.9922C17.212 20.9922 18.7891 19.4151 18.7891 17.4766C18.7891 15.538 17.212 13.9609 15.2734 13.9609ZM15.2734 2.16406C16.5658 2.16406 17.6172 3.21547 17.6172 4.50781C17.6172 5.80016 16.5658 6.85156 15.2734 6.85156C13.9811 6.85156 12.9297 5.80016 12.9297 4.50781C12.9297 3.21547 13.9811 2.16406 15.2734 2.16406ZM5.3125 13.9219C3.69707 13.9219 2.38281 12.6076 2.38281 10.9922C2.38281 9.37676 3.69707 8.0625 5.3125 8.0625C6.92793 8.0625 8.24219 9.37676 8.24219 10.9922C8.24219 12.6076 6.92793 13.9219 5.3125 13.9219ZM15.2734 19.8203C13.9811 19.8203 12.9297 18.7689 12.9297 17.4766C12.9297 16.1842 13.9811 15.1328 15.2734 15.1328C16.5658 15.1328 17.6172 16.1842 17.6172 17.4766C17.6172 18.7689 16.5658 19.8203 15.2734 19.8203Z" fill="#495FEA"/></svg>