<svg width="23" height="21" viewBox="0 0 23 21" fill="none" xmlns="http://www.w3.org/2000/svg"><path d="M17.4002 12.5153L18.1269 13.2023L17.4002 12.5153C16.9875 12.9519 16.7928 13.5509 16.8701 14.1467L17.6197 19.923L12.3577 17.4252L11.9288 18.3286L12.3577 17.4252C11.8149 17.1675 11.1851 17.1675 10.6423 17.4252L11.0712 18.3286L10.6423 17.4252L5.38032 19.923L6.12985 14.1467C6.20716 13.5509 6.01254 12.9519 5.59979 12.5153L1.59815 8.28269L7.32341 7.21055C7.91393 7.09997 8.42347 6.72977 8.71113 6.20231L11.5 1.08858L14.2889 6.20231C14.5765 6.72977 15.0861 7.09997 15.6766 7.21055L21.4018 8.28269L17.4002 12.5153Z" stroke="#FDD237" fill="#FDD237" stroke-width="2"/></svg>