<svg width="34" height="32" viewBox="0 0 34 32" fill="none" xmlns="http://www.w3.org/2000/svg"><path d="M24.4356 20.75C22.8776 20.75 21.4611 21.3477 20.4172 22.3188L14.2076 18.5917C14.5619 17.7962 14.7586 16.92 14.7586 16C14.7586 15.08 14.5619 14.2038 14.2075 13.4084L20.4171 9.68131C21.4611 10.6523 22.8776 11.25 24.4356 11.25C27.6371 11.25 30.2417 8.72663 30.2417 5.625C30.2417 2.52338 27.6371 0 24.4356 0C21.2341 0 18.6294 2.52338 18.6294 5.625C18.6294 6.54069 18.8566 7.40594 19.2589 8.17075L13.1947 11.8106C11.9511 10.3616 10.0773 9.4375 7.98479 9.4375C4.24969 9.4375 1.21094 12.3814 1.21094 16C1.21094 19.6186 4.24969 22.5625 7.98479 22.5625C10.0773 22.5625 11.9511 21.6384 13.1947 20.1894L19.2589 23.8293C18.8566 24.5941 18.6294 25.4593 18.6294 26.375C18.6294 29.4766 21.2341 32 24.4356 32C27.6371 32 30.2417 29.4766 30.2417 26.375C30.2417 23.2734 27.6371 20.75 24.4356 20.75ZM24.4356 1.875C26.5699 1.875 28.3063 3.55725 28.3063 5.625C28.3063 7.69275 26.5699 9.375 24.4356 9.375C22.3012 9.375 20.5648 7.69275 20.5648 5.625C20.5648 3.55725 22.3012 1.875 24.4356 1.875ZM7.98479 20.6875C5.31686 20.6875 3.14632 18.5847 3.14632 16C3.14632 13.4153 5.31686 11.3125 7.98479 11.3125C10.6527 11.3125 12.8233 13.4153 12.8233 16C12.8233 18.5847 10.6527 20.6875 7.98479 20.6875ZM24.4356 30.125C22.3012 30.125 20.5648 28.4427 20.5648 26.375C20.5648 24.3073 22.3012 22.625 24.4356 22.625C26.5699 22.625 28.3063 24.3073 28.3063 26.375C28.3063 28.4427 26.5699 30.125 24.4356 30.125Z" fill="#495FEA"/></svg>