<svg width="16" height="15" viewBox="0 0 16 15" fill="none" xmlns="http://www.w3.org/2000/svg"><path fill-rule="evenodd" clip-rule="evenodd" d="M8.05585 0.0223165C7.192 0.0846122 6.51586 0.231872 5.80124 0.513396C5.54157 0.615702 5.03075 0.86389 4.76318 1.01776C3.49601 1.74647 2.49319 2.79741 1.83037 4.09133C1.45517 4.82377 1.26934 5.34609 1.13294 6.05162C1.00873 6.69417 0.964922 7.55422 1.02414 8.18778C1.15434 9.58062 1.65799 10.8734 2.51156 12.0057C3.23856 12.97 4.19175 13.7456 5.31045 14.283C6.48922 14.8492 7.89787 15.091 9.2445 14.9583C10.4387 14.8405 11.4864 14.4763 12.519 13.8198C13.7862 13.0143 14.7723 11.8636 15.3918 10.4674C15.7168 9.73498 15.9113 8.95442 15.9848 8.08733C16.0049 7.84969 16.0051 7.17564 15.985 6.92246C15.8805 5.60086 15.4762 4.44984 14.7226 3.32916C14.1418 2.46536 13.343 1.69685 12.45 1.14278C11.4931 0.548998 10.5075 0.199209 9.41922 0.0670867C9.16503 0.0362144 8.6172 -0.00212729 8.46229 9.20866e-05C8.3948 0.00105637 8.2119 0.0110512 8.05585 0.0223165ZM9.16781 1.2905C10.3062 1.42757 11.3046 1.81581 12.2064 2.47214C13.0142 3.06005 13.7015 3.88669 14.1385 4.7959C14.4456 5.43488 14.6375 6.10192 14.7307 6.85519C14.7573 7.06972 14.757 7.90753 14.7303 8.13325C14.6073 9.17158 14.278 10.0895 13.7215 10.9455C13.2801 11.6243 12.6878 12.2205 11.9949 12.6836C10.887 13.4241 9.47531 13.8207 8.21779 13.7445C6.82598 13.6603 5.56765 13.1738 4.49756 12.3063C4.26678 12.1192 3.82545 11.6729 3.63276 11.4317C2.8911 10.5033 2.44916 9.46218 2.28531 8.25724C2.25686 8.04795 2.2517 7.93696 2.25121 7.521C2.25046 6.89543 2.29182 6.53972 2.42856 5.99583C2.69827 4.92292 3.25244 3.93139 4.02169 3.1454C4.35606 2.80375 4.61784 2.58434 4.9962 2.32859C5.88968 1.72466 6.97172 1.35235 8.09419 1.26266C8.26416 1.24907 8.97733 1.26757 9.16781 1.2905ZM8.16321 1.89714C7.73092 1.93339 7.45844 1.97572 7.13189 2.05735C5.69828 2.41577 4.44104 3.34557 3.67644 4.61285C3.29117 5.25145 3.02569 6.02181 2.92483 6.79397C2.87178 7.20008 2.87169 7.8239 2.9246 8.23274C3.10989 9.66404 3.85868 10.99 4.99097 11.892C5.81667 12.5497 6.7792 12.9465 7.8718 13.0794C8.14526 13.1127 8.83506 13.1174 9.09112 13.0877C10.0819 12.9727 10.9312 12.6533 11.7358 12.0931C12.0856 11.8495 12.5247 11.4497 12.8069 11.1179C14.3043 9.35718 14.5477 6.79266 13.4098 4.76675C12.5524 3.24028 11.0434 2.198 9.34419 1.9587C8.83856 1.8875 8.49304 1.86948 8.16321 1.89714ZM9.10482 3.1577C10.3647 3.36302 11.446 4.04301 12.1291 5.05957C12.196 5.15903 12.2558 5.2427 12.2621 5.2455C12.2685 5.24831 12.2736 5.25987 12.2736 5.2712C12.2736 5.28252 12.2827 5.30089 12.2937 5.31202C12.3254 5.34388 12.4962 5.68763 12.5712 5.87031C12.8077 6.44667 12.9256 7.15286 12.887 7.76108C12.8606 8.17526 12.7694 8.61234 12.6332 8.97722C12.5653 9.15897 12.4139 9.4985 12.3896 9.52348C12.38 9.53334 12.3593 9.56879 12.3435 9.60225C12.3278 9.63572 12.3056 9.67236 12.2943 9.68371C12.2829 9.69503 12.2736 9.71357 12.2736 9.72489C12.2736 9.73622 12.2681 9.74778 12.2613 9.75059C12.2546 9.75339 12.2109 9.81424 12.1642 9.88579C11.8265 10.4037 11.3266 10.8892 10.7782 11.2317C10.5921 11.348 10.2175 11.5323 10.019 11.6053C9.4797 11.8037 9.05457 11.8809 8.50063 11.881C8.14994 11.8812 7.97592 11.8653 7.67985 11.8064C6.66471 11.6043 5.73457 11.042 5.08528 10.2378C4.95477 10.0762 4.69695 9.70167 4.69695 9.67374C4.69695 9.66549 4.6917 9.65646 4.68531 9.65364C4.6789 9.65084 4.63115 9.5659 4.57919 9.46487C4.0239 8.38537 3.9564 7.08245 4.3969 5.94635C4.46902 5.76033 4.59883 5.47613 4.61768 5.46297C4.6242 5.4584 4.6423 5.4273 4.65793 5.39384C4.67354 5.36037 4.69561 5.32373 4.70698 5.31238C4.71833 5.30106 4.72762 5.28252 4.72762 5.2712C4.72762 5.25987 4.73284 5.24831 4.7392 5.2455C4.74557 5.2427 4.78178 5.19254 4.81968 5.13402C5.00701 4.84486 5.30502 4.4981 5.56749 4.2639C6.10045 3.78834 6.65696 3.47654 7.31198 3.28652C7.51276 3.22826 7.78569 3.17292 8.0175 3.14345C8.24442 3.1146 8.89249 3.1231 9.10482 3.1577ZM7.26594 5.02083C7.26163 5.03216 7.25986 6.15723 7.26203 7.521L7.26597 10.0006H7.87947H8.49296L8.49697 9.36921L8.50097 8.73784L8.8804 8.73779C9.44118 8.73773 9.65321 8.70216 9.93143 8.56145C10.1386 8.45668 10.2419 8.38046 10.427 8.19588C10.7109 7.91264 10.8633 7.64377 10.957 7.2608C10.9891 7.12964 11.0139 6.72559 10.9928 6.67648C10.9863 6.66112 10.9823 6.6303 10.9841 6.60798C10.9858 6.58567 10.9806 6.56327 10.9724 6.55822C10.9642 6.55317 10.9609 6.53604 10.9651 6.52017C10.9692 6.50428 10.9654 6.48686 10.9566 6.48143C10.9478 6.476 10.9442 6.46215 10.9487 6.45064C10.9531 6.43913 10.9492 6.42511 10.9401 6.41946C10.9309 6.41381 10.9276 6.40248 10.9327 6.39428C10.9378 6.38607 10.9336 6.36933 10.9234 6.35707C10.9132 6.34481 10.91 6.33478 10.9163 6.33478C10.9226 6.33478 10.9182 6.3234 10.9066 6.30947C10.8951 6.29555 10.8873 6.28178 10.8894 6.27886C10.8916 6.27595 10.8927 6.27183 10.8921 6.26973C10.8914 6.26764 10.8886 6.25372 10.8857 6.23885C10.875 6.18278 10.7815 6.00254 10.6977 5.87635C10.597 5.72467 10.3288 5.44235 10.1954 5.34757C9.99356 5.20416 9.70321 5.08236 9.45922 5.03876C9.26689 5.00438 7.27841 4.98814 7.26594 5.02083ZM9.12536 6.25821C9.34542 6.27529 9.42223 6.30619 9.55431 6.43088C9.70072 6.56906 9.78183 6.80523 9.74526 6.98691C9.73546 7.03563 9.71266 7.10598 9.69459 7.14322C9.64534 7.24474 9.49552 7.39673 9.40743 7.43456C9.3054 7.47835 9.1133 7.49777 8.78054 7.49792L8.50063 7.49804V6.8705V6.24295L8.71919 6.2433C8.83939 6.24348 9.02217 6.25019 9.12536 6.25821Z" fill="#21B396"/></svg>