<svg width="20" height="20" viewBox="0 0 20 20" fill="none" xmlns="http://www.w3.org/2000/svg"><path fill-rule="evenodd" clip-rule="evenodd" d="M0.292943 17.9394C-0.0976475 18.3298 -0.0976475 18.9629 0.292943 19.3533C0.683533 19.7438 1.3168 19.7438 1.70739 19.3533L9.82198 11.2415L17.9387 19.3619C18.3291 19.7525 18.9621 19.7525 19.3525 19.3619C19.743 18.9713 19.743 18.338 19.3525 17.9474L11.2364 9.82752L19.3599 1.70682C19.7505 1.31636 19.7505 0.683302 19.3599 0.292844C18.9693 -0.0976148 18.336 -0.0976144 17.9454 0.292844L9.82254 8.41298L1.70711 0.293813C1.31668 -0.0968011 0.683659 -0.0968011 0.293224 0.293813C-0.0972099 0.684427 -0.0972099 1.31774 0.293224 1.70835L8.40809 9.82696L0.292943 17.9394Z" fill="#B1B1B1"/></svg>