<svg width="49" height="49" viewBox="0 0 49 49" fill="none" xmlns="http://www.w3.org/2000/svg"><path fill-rule="evenodd" clip-rule="evenodd" d="M22.2009 0.684527C16.0393 1.31709 11.1421 3.57596 7.04096 7.67712C1.29791 13.4201 -1.14371 21.594 0.505135 29.5563C2.42753 38.8393 9.57902 46.0851 18.8465 48.1398C20.7087 48.5528 21.7484 48.6562 24.0321 48.6562C26.3157 48.6562 27.3555 48.5528 29.2177 48.1398C36.4735 46.5312 42.4813 41.753 45.7411 34.9981C47.5981 31.1502 48.3922 26.5247 47.9352 22.2187C47.3392 16.6031 44.9782 11.6404 41.019 7.68126C37.278 3.94023 32.7913 1.69226 27.4128 0.864079C26.4675 0.718522 23.0249 0.599915 22.2009 0.684527ZM26.9615 4.56801C30.3826 5.07183 33.4359 6.33518 36.2401 8.40717C39.8527 11.0765 42.5388 15.0976 43.715 19.5972C44.522 22.6839 44.5223 26.6453 43.7157 29.7393C43.3525 31.1327 42.9476 32.2114 42.253 33.6365C39.327 39.6396 33.5609 43.8389 26.9748 44.7636C24.3787 45.1281 21.3332 44.9714 18.961 44.3512C16.3396 43.6659 13.7523 42.4154 11.6831 40.8336C9.81839 39.4081 8.01601 37.4224 6.78318 35.4349C6.12761 34.3782 5.17144 32.3904 4.83393 31.3827C3.26172 26.6889 3.37704 21.5569 5.15453 17.1086C6.23495 14.4049 8.26487 11.4669 10.2802 9.68986C10.6902 9.32831 11.0469 9.0094 11.0727 8.98113C11.0986 8.95296 11.3732 8.73688 11.6831 8.50098C14.3602 6.46336 17.7095 5.06065 21.074 4.56792C22.7006 4.32976 25.3438 4.32976 26.9615 4.56801Z" fill="#21B396"/><path fill-rule="evenodd" clip-rule="evenodd" d="M46.1769 1.77142C45.5442 1.96253 44.4304 2.90856 43.751 3.83196C43.6218 4.00747 43.4724 4.19717 43.4189 4.25351C43.3655 4.30995 43.0953 4.63074 42.8187 4.96646C42.5419 5.30219 42.2897 5.598 42.258 5.62382C42.2263 5.64965 42.085 5.82563 41.9441 6.01476C41.8031 6.20399 41.6317 6.41528 41.5632 6.4843C41.4945 6.55342 41.0234 7.11696 40.5162 7.73676C39.5192 8.95503 38.817 9.78847 38.5732 10.0434C38.4885 10.1318 38.3829 10.2661 38.3384 10.3419C38.2938 10.4177 38.0806 10.6865 37.8646 10.9394C37.6485 11.1923 37.1251 11.8218 36.7014 12.3383C36.2777 12.8548 35.7523 13.4886 35.5339 13.7469C35.1201 14.2363 34.2984 15.2301 33.0927 16.6994C32.9892 16.8254 32.7548 17.1001 32.5718 17.3098C32.3887 17.5195 31.7574 18.2827 31.1689 19.0057C30.5803 19.7288 29.9694 20.4715 29.8113 20.656C29.2286 21.3362 28.6667 22.0093 28.2092 22.5751C27.9509 22.8945 26.7709 24.3226 25.5869 25.7488L23.4341 28.3418L23.2392 28.1247C23.1319 28.0053 22.8329 27.6599 22.5747 27.3572C22.3164 27.0544 21.414 26.0024 20.5694 25.0192C19.7248 24.036 18.8585 23.0228 18.6443 22.7675C17.8824 21.8596 16.842 20.693 16.5645 20.4352C16.4096 20.2914 15.9659 20.0165 15.5785 19.8244C14.9148 19.4955 14.8227 19.4753 13.9821 19.4753C13.0059 19.4753 12.4647 19.6272 11.766 20.0977C11.166 20.5016 10.483 21.318 10.2355 21.9269C9.93019 22.6778 9.86455 23.8024 10.0823 24.5516C10.2412 25.0982 10.8356 26.1093 11.2686 26.5697C11.3923 26.7012 11.747 27.1016 12.0569 27.4595C12.3668 27.8173 12.7314 28.238 12.867 28.3942C13.187 28.763 15.0134 30.905 15.4643 31.4404C15.6562 31.6683 15.8557 31.9008 15.9076 31.9569C15.9596 32.0131 16.2554 32.3548 16.565 32.7164C16.8746 33.0779 17.15 33.3948 17.177 33.4207C17.204 33.4465 17.4365 33.7209 17.6935 34.0304C17.9506 34.3399 18.2153 34.651 18.2818 34.7214C18.3483 34.7919 18.9968 35.5429 19.723 36.3901C20.822 37.6724 21.1482 37.9918 21.6682 38.2953C22.4592 38.7568 23.1024 38.9065 24.0199 38.8426C24.858 38.784 25.402 38.5881 26.0493 38.111C26.5014 37.7778 27.1292 37.1497 27.1292 37.0305C27.1292 36.9989 27.2511 36.797 27.4001 36.5819C27.6397 36.2362 28.0701 35.5647 29.6368 33.092C29.866 32.7304 30.3991 31.8987 30.8216 31.2436C31.2442 30.5885 32.0709 29.2996 32.6586 28.3794C33.2465 27.4592 33.7536 26.6851 33.7855 26.6593C33.8175 26.6334 33.8911 26.5278 33.949 26.4245C34.007 26.3212 34.4049 25.6873 34.8333 25.0159C35.584 23.8394 35.9203 23.3147 37.585 20.7246C38.0064 20.0689 38.8136 18.8066 39.3787 17.9196C39.9437 17.0326 40.4508 16.2575 40.5056 16.1971C40.5603 16.1368 40.6528 16.0044 40.7111 15.9031C40.8602 15.644 41.9883 13.8699 42.8884 12.4791C43.3062 11.8335 44.0106 10.7348 44.4539 10.0375C46.4469 6.9022 47.2538 5.66852 47.3307 5.6395C47.3761 5.62223 47.4134 5.55827 47.4134 5.49723C47.4134 5.43619 47.4916 5.23899 47.5872 5.05896C48.5 3.34044 48.1387 1.6639 46.8607 1.68775C46.6224 1.69217 46.3147 1.72982 46.1769 1.77142Z" fill="#21B396"/></svg>