<svg width="57" height="49" viewBox="0 0 57 49" fill="none" xmlns="http://www.w3.org/2000/svg"><path fill-rule="evenodd" clip-rule="evenodd" d="M26.6923 0.810596C26.4145 0.886941 25.928 1.08987 25.6113 1.26156C24.5364 1.84436 24.0052 2.53845 21.648 6.44097C17.6004 13.1419 16.2277 15.4114 12.9937 20.7487C11.2285 23.6621 9.35551 26.7585 8.83167 27.6295C8.30773 28.5006 6.22554 31.9424 4.20454 35.278C2.18343 38.6136 0.414316 41.6363 0.272967 41.995C-0.0619293 42.8452 -0.0939494 44.4284 0.206185 45.2972C0.669271 46.6376 1.84426 47.8514 3.21071 48.401L3.84047 48.6543H28.0201H52.1997L52.8318 48.4001C54.1287 47.8786 55.2776 46.7301 55.7741 45.4585C55.9679 44.9626 56.0197 44.6035 56.0227 43.7394C56.0271 42.4044 55.852 41.9027 54.7457 40.0806C54.3263 39.3898 53.1066 37.3747 52.0353 35.6026C50.9641 33.8305 48.9404 30.4884 47.5386 28.1756C46.1367 25.8629 44.1139 22.5208 43.0436 20.7487C41.9732 18.9766 39.802 15.3888 38.2185 12.7757C36.6352 10.1626 34.618 6.82761 33.736 5.3645C32.0237 2.52425 31.4537 1.81716 30.4286 1.26145C29.3384 0.670467 27.8546 0.491457 26.6923 0.810596ZM28.5388 4.42489C28.7661 4.51751 29.0299 4.70176 29.125 4.83446C29.22 4.96716 30.573 7.18912 32.1317 9.77216C33.6905 12.3552 35.5074 15.3533 36.1693 16.4346C36.8313 17.5158 37.6793 18.9166 38.0537 19.5473C38.4281 20.178 39.7346 22.3406 40.9572 24.353C42.1797 26.3653 44.204 29.7074 45.4555 31.7799C46.707 33.8523 48.7545 37.2374 50.0053 39.3023C51.2562 41.3672 52.3265 43.2252 52.3836 43.4313C52.5139 43.9013 52.1811 44.6623 51.7434 44.8956C51.3081 45.1277 4.7321 45.1277 4.29676 44.8956C3.9089 44.6889 3.52674 43.8946 3.61743 43.4835C3.65537 43.3111 4.35477 42.0693 5.17161 40.7242C5.98846 39.3791 8.05277 35.9685 9.75894 33.1451C11.4651 30.3218 13.8613 26.3653 15.0835 24.353C16.3057 22.3406 17.6128 20.178 17.988 19.5473C18.3633 18.9166 19.523 16.9998 20.5652 15.2877C21.6075 13.5757 23.4465 10.5408 24.6519 8.54355C25.8573 6.54626 26.9641 4.79208 27.1112 4.6454C27.3505 4.40708 27.5571 4.31927 27.9905 4.27143C28.0646 4.26324 28.3113 4.33227 28.5388 4.42489ZM26.9721 15.8135C26.3379 16.0319 26.0461 16.2748 25.7709 16.8133C25.5958 17.1559 25.5832 17.4535 25.6394 19.9261C25.6956 22.4 25.7928 24.9888 26.0279 30.271C26.0987 31.8594 26.1367 32.1238 26.3241 32.3301C26.7079 32.7525 27.1555 32.9126 27.9653 32.9172C28.8595 32.9221 29.5621 32.6245 29.8142 32.1338C29.9282 31.9118 30.0014 30.8893 30.0973 28.1756C30.1684 26.1633 30.272 23.6813 30.3275 22.6601C30.4691 20.0539 30.4603 17.1839 30.3097 16.8915C29.7512 15.8065 28.3277 15.3467 26.9721 15.8135ZM27.5027 35.3916C25.5149 35.7751 24.7958 38.4208 26.3073 39.7897C26.8852 40.3131 27.2518 40.4555 28.0201 40.4551C28.8163 40.4548 29.4041 40.2126 29.8992 39.681C31.6279 37.8246 29.9994 34.9097 27.5027 35.3916Z" fill="#B80929"/></svg>