<svg width="66" height="66" viewBox="0 0 101 100" fill="none" xmlns="http://www.w3.org/2000/svg"><path fill-rule="evenodd" clip-rule="evenodd" d="M46.451 0.05891C33.6143 1.37676 23.412 6.08273 14.8679 14.6268C2.9032 26.5913 -2.1835 43.6202 1.25158 60.2085C5.25658 79.548 20.1555 94.6435 39.4627 98.9242C43.3422 99.7844 45.5084 100 50.266 100C55.0237 100 57.1898 99.7844 61.0694 98.9242C76.1857 95.5728 88.7019 85.6181 95.4932 71.5456C99.3619 63.529 101.016 53.8926 100.064 44.9218C98.8225 33.2226 93.9038 22.8837 85.6556 14.6354C77.8618 6.84163 68.5144 2.15835 57.3091 0.432978C55.3398 0.129733 48.1678 -0.117364 46.451 0.05891ZM56.3691 8.1495C63.4963 9.19912 69.8574 11.8311 75.6995 16.1477C83.2257 21.7089 88.8216 30.0861 91.2722 39.4603C92.9534 45.891 92.954 54.1438 91.2736 60.5896C90.5169 63.4926 89.6735 65.7399 88.2263 68.7088C82.1305 81.2152 70.1178 89.9639 56.3967 91.8902C50.9881 92.6497 44.6435 92.3232 39.7013 91.0312C34.24 89.6034 28.8499 86.9982 24.5391 83.7028C20.6542 80.733 16.8992 76.5961 14.3309 72.4555C12.9651 70.254 10.973 66.1128 10.2699 64.0134C6.99447 54.2346 7.23471 43.5429 10.9378 34.2758C13.1887 28.643 17.4177 22.5222 21.6164 18.82C22.4705 18.0668 23.2136 17.4024 23.2674 17.3435C23.3212 17.2848 23.8935 16.8346 24.5391 16.3432C30.1162 12.0981 37.094 9.17584 44.1033 8.1493C47.4922 7.65315 52.9988 7.65315 56.3691 8.1495ZM35.2916 31.0563C34.0189 31.546 32.7347 32.7897 32.1237 34.1243C31.7113 35.0251 31.6507 35.4038 31.7131 36.6851C31.8322 39.1242 32.8548 40.6639 35.101 41.7857C37.3073 42.8875 40.469 42.0662 42.0393 39.9838C42.9598 38.7628 43.308 37.505 43.1769 35.8734C43.0527 34.3245 42.5209 33.2887 41.2751 32.1685C39.6108 30.6722 37.3714 30.2559 35.2916 31.0563ZM62.2716 30.8579C61.9341 30.962 61.2298 31.3335 60.7065 31.6833C57.6321 33.7377 57.3099 38.235 60.0589 40.7184C61.2453 41.7902 62.3812 42.2353 63.9549 42.2452C67.9977 42.2705 70.8466 38.235 69.4319 34.4872C68.5625 32.1839 66.7086 30.8346 64.2674 30.7286C63.5071 30.6955 62.6089 30.7536 62.2716 30.8579ZM30.0171 56.7466C29.0255 57.2054 28.5032 57.9324 28.4011 58.9967C28.3208 59.8313 28.413 60.1688 29.0911 61.5238C30.2792 63.8974 31.3721 65.4016 33.3265 67.3532C39.0956 73.1137 47.5742 75.4833 55.744 73.6184C61.5426 72.2949 66.3668 69.1314 69.6919 64.4716C71.0434 62.5778 72.178 60.2054 72.178 59.2734C72.178 57.709 70.6993 56.3818 69.1326 56.5402C67.9795 56.6568 67.3397 57.1692 66.6642 58.5174C64.5276 62.7812 61.1627 65.7976 56.7222 67.4299C54.584 68.216 52.8066 68.512 50.266 68.5051C47.6792 68.4983 45.9126 68.2017 43.7558 67.4128C39.2518 65.7652 36.0043 62.846 33.9189 58.57C33.6133 57.9436 33.1086 57.2494 32.7973 57.0278C32.0877 56.5224 30.7861 56.391 30.0171 56.7466Z" fill="#21B396"/></svg>