<svg width="21" height="21" viewBox="0 0 21 21" fill="none" xmlns="http://www.w3.org/2000/svg"><path fill-rule="evenodd" clip-rule="evenodd" d="M11.2048 1C11.2048 0.447715 10.7571 0 10.2048 0C9.65254 0 9.20483 0.447715 9.20483 1V9.20483H1C0.447715 9.20483 0 9.65254 0 10.2048C0 10.7571 0.447715 11.2048 1 11.2048H9.20483V19.4094C9.20483 19.9617 9.65254 20.4094 10.2048 20.4094C10.7571 20.4094 11.2048 19.9617 11.2048 19.4094V11.2048H19.4094C19.9617 11.2048 20.4094 10.7571 20.4094 10.2048C20.4094 9.65254 19.9617 9.20483 19.4094 9.20483H11.2048V1Z" fill="#B1B1B1"/></svg>