<svg width="20" height="21" viewBox="0 0 20 21" fill="none" xmlns="http://www.w3.org/2000/svg"><path fill-rule="evenodd" clip-rule="evenodd" d="M0.292943 18.9374C-0.0976475 19.3279 -0.0976475 19.9609 0.292943 20.3514C0.683533 20.7419 1.3168 20.7419 1.70739 20.3514L9.8216 12.2399L17.9387 20.3607C18.3291 20.7513 18.9621 20.7513 19.3525 20.3607C19.743 19.9701 19.743 19.3368 19.3525 18.9462L11.2361 10.8259L19.3599 2.70487C19.7505 2.31441 19.7505 1.68135 19.3599 1.29089C18.9693 0.900432 18.336 0.900432 17.9454 1.29089L9.82217 9.4114L1.70711 1.29261C1.31668 0.901994 0.683659 0.901994 0.293224 1.29261C-0.0972099 1.68322 -0.0972099 2.31653 0.293224 2.70715L8.40771 10.8254L0.292943 18.9374Z" fill="#B1B1B1"/></svg>