<svg width="12" height="15" viewBox="0 0 12 15" fill="none" xmlns="http://www.w3.org/2000/svg"><path d="M10.625 3.01729V1.70115C10.9968 1.48438 11.25 1.08571 11.25 0.62499V0.31251C11.25 0.139775 11.1102 0 10.9375 0H0.31251C0.139775 0 0 0.139775 0 0.31251V0.62502C0 1.08571 0.253184 1.48438 0.62499 1.70118V3.01729C0.62499 4.25569 1.15295 5.44099 2.07337 6.26924L3.44086 7.5L2.07337 8.73076C1.15295 9.55901 0.62499 10.7443 0.62499 11.9827V13.2988C0.253184 13.5156 0 13.9143 0 14.375V14.6875C0 14.8602 0.139775 15 0.31251 15H10.9375C11.1103 15 11.25 14.8602 11.25 14.6875V14.375C11.25 13.9143 10.9968 13.5156 10.625 13.2988V11.9827C10.625 10.7443 10.0971 9.55901 9.17666 8.73076L7.80914 7.5L9.17663 6.26924C10.0971 5.44099 10.625 4.25566 10.625 3.01729ZM8.34047 5.34026L6.45691 7.03553C6.32508 7.15394 6.24999 7.3227 6.24999 7.5C6.24999 7.6773 6.32508 7.84608 6.45691 7.96447L8.34047 9.65974C8.9978 10.2515 9.375 11.0983 9.375 11.9827V13.125H8.59359L5.87493 9.50013C5.75713 9.34266 5.49284 9.34266 5.37504 9.50013L2.65641 13.125H1.875V11.9827C1.875 11.0983 2.2522 10.2514 2.90956 9.65971L4.79312 7.96444C4.92495 7.84603 5.00004 7.67728 5.00004 7.49997C5.00004 7.32267 4.92495 7.15389 4.79312 7.0355L2.90956 5.34023C2.2522 4.74853 1.875 3.90167 1.875 3.01729V1.875H9.375V3.01729C9.375 3.90167 8.9978 4.74853 8.34047 5.34026Z" fill="#D1DADE"/></svg>