<svg width="49" height="48" viewBox="0 0 49 48" fill="none" xmlns="http://www.w3.org/2000/svg"><path fill-rule="evenodd" clip-rule="evenodd" d="M22.2009 0.0282768C16.0393 0.660843 11.1421 2.91971 7.04096 7.02087C1.29791 12.7638 -1.14371 20.9377 0.505135 28.9001C2.42753 38.183 9.57902 45.4289 18.8465 47.4836C20.7087 47.8965 21.7484 48 24.0321 48C26.3157 48 27.3555 47.8965 29.2177 47.4836C36.4735 45.8749 42.4813 41.0967 45.7411 34.3419C47.5981 30.4939 48.3922 25.8685 47.9352 21.5625C47.3392 15.9469 44.9782 10.9842 41.019 7.02501C37.278 3.28398 32.7913 1.03601 27.4128 0.207829C26.4675 0.0622716 23.0249 -0.0563346 22.2009 0.0282768ZM26.9615 3.91176C30.3826 4.41558 33.4359 5.67893 36.2401 7.75092C39.8527 10.4203 42.5388 14.4413 43.715 18.9409C44.522 22.0277 44.5223 25.989 43.7157 29.083C43.3525 30.4764 42.9476 31.5552 42.253 32.9802C39.327 38.9833 33.5609 43.1827 26.9748 44.1073C24.3787 44.4719 21.3332 44.3151 18.961 43.695C16.3396 43.0096 13.7523 41.7591 11.6831 40.1773C9.81839 38.7518 8.01601 36.7661 6.78318 34.7787C6.12761 33.7219 5.17144 31.7341 4.83393 30.7264C3.26172 26.0326 3.37704 20.9006 5.15453 16.4524C6.23495 13.7486 8.26487 10.8106 10.2802 9.03361C10.6902 8.67206 11.0469 8.35315 11.0727 8.32488C11.0986 8.29671 11.3732 8.08063 11.6831 7.84473C14.3602 5.80711 17.7095 4.4044 21.074 3.91167C22.7006 3.67351 25.3438 3.67351 26.9615 3.91176Z" fill="#21B396"/><path fill-rule="evenodd" clip-rule="evenodd" d="M46.1768 1.11517C45.5441 1.30628 44.4303 2.25231 43.7509 3.17571C43.6217 3.35122 43.4723 3.54092 43.4188 3.59726C43.3654 3.6537 43.0952 3.97449 42.8185 4.31021C42.5418 4.64594 42.2895 4.94175 42.2579 4.96757C42.2262 4.9934 42.0849 5.16938 41.944 5.35851C41.803 5.54774 41.6316 5.75903 41.5631 5.82805C41.4944 5.89717 41.0233 6.46071 40.5161 7.08051C39.5191 8.29878 38.8169 9.13222 38.573 9.38718C38.4884 9.47554 38.3828 9.60983 38.3383 9.68562C38.2937 9.7614 38.0805 10.0303 37.8645 10.2832C37.6484 10.536 37.125 11.1655 36.7013 11.682C36.2775 12.1985 35.7522 12.8324 35.5338 13.0906C35.1199 13.5801 34.2982 14.5738 33.0925 16.0431C32.9891 16.1691 32.7547 16.4438 32.5716 16.6535C32.3886 16.8632 31.7573 17.6264 31.1687 18.3495C30.5802 19.0726 29.9692 19.8152 29.8112 19.9997C29.2285 20.6799 28.6666 21.3531 28.209 21.9189C27.9508 22.2382 26.7707 23.6664 25.5867 25.0926L23.434 27.6856L23.239 27.4685C23.1318 27.349 22.8328 27.0036 22.5745 26.7009C22.3163 26.3982 21.4139 25.3461 20.5693 24.3629C19.7247 23.3798 18.8584 22.3665 18.6442 22.1113C17.8823 21.2034 16.8419 20.0367 16.5644 19.779C16.4095 19.6351 15.9657 19.3602 15.5784 19.1682C14.9147 18.8392 14.8226 18.819 13.9819 18.819C13.0058 18.819 12.4646 18.971 11.7659 19.4415C11.1659 19.8454 10.4829 20.6617 10.2354 21.2706C9.93007 22.0216 9.86443 23.1461 10.0822 23.8953C10.2411 24.442 10.8354 25.4531 11.2685 25.9134C11.3921 26.045 11.7469 26.4453 12.0568 26.8032C12.3667 27.1611 12.7313 27.5817 12.8669 27.738C13.1869 28.1068 15.0133 30.2487 15.4642 30.7842C15.6561 31.0121 15.8556 31.2445 15.9075 31.3007C15.9595 31.3568 16.2553 31.6986 16.5649 32.0601C16.8745 32.4217 17.1499 32.7386 17.1769 32.7644C17.2039 32.7902 17.4363 33.0646 17.6934 33.3742C17.9505 33.6837 18.2152 33.9947 18.2817 34.0651C18.3482 34.1357 18.9967 34.8867 19.7229 35.7339C20.8218 37.0161 21.1481 37.3356 21.668 37.639C22.459 38.1006 23.1023 38.2503 24.0198 38.1863C24.8579 38.1278 25.4018 37.9318 26.0491 37.4548C26.5013 37.1216 27.1291 36.4934 27.1291 36.3743C27.1291 36.3426 27.251 36.1407 27.4 35.9257C27.6396 35.58 28.07 34.9084 29.6367 32.4357C29.8659 32.0742 30.399 31.2424 30.8215 30.5873C31.2441 29.9322 32.0707 28.6433 32.6585 27.7231C33.2464 26.8029 33.7535 26.0288 33.7854 26.003C33.8174 25.9772 33.891 25.8716 33.9489 25.7683C34.0068 25.665 34.4048 25.0311 34.8331 24.3596C35.5838 23.1831 35.9202 22.6585 37.5848 20.0684C38.0063 19.4126 38.8134 18.1503 39.3786 17.2634C39.9436 16.3764 40.4507 15.6013 40.5055 15.5409C40.5601 15.4805 40.6526 15.3482 40.7109 15.2469C40.8601 14.9878 41.9882 13.2137 42.8883 11.8229C43.3061 11.1773 44.0105 10.0785 44.4538 9.38126C46.4468 6.24595 47.2537 5.01227 47.3305 4.98325C47.376 4.96598 47.4133 4.90202 47.4133 4.84098C47.4133 4.77994 47.4915 4.58274 47.5871 4.40271C48.4999 2.68419 48.1386 1.00765 46.8606 1.0315C46.6223 1.03592 46.3145 1.07357 46.1768 1.11517Z" fill="#21B396"/></svg>