<svg width="9" height="6" viewBox="0 0 9 6" fill="none" xmlns="http://www.w3.org/2000/svg"><path d="M2.85836 5.68421C2.7271 5.68421 2.60275 5.63185 2.51525 5.54023L0.118108 3.00965C-0.0522936 2.83077 -0.0361745 2.55371 0.152649 2.39446C0.341473 2.23303 0.63392 2.2483 0.802019 2.42718C1.83361 3.51707 3.60585 3.38502 4.46453 2.15428L5.83118 0.195474C5.97165 -0.00522683 6.25718 -0.0597651 6.46903 0.0711269C6.68089 0.2042 6.73845 0.47471 6.60029 0.675411L3.24291 5.49005C3.16462 5.60349 3.03567 5.67548 2.8929 5.68421C2.88138 5.68421 2.86987 5.68421 2.85836 5.68421Z" fill="#767998"/><path d="M4.85823 5.68421C4.72698 5.68421 4.60263 5.63185 4.51513 5.54023L2.11799 3.00965C1.94758 2.83077 1.9637 2.55371 2.15253 2.39446C2.34135 2.23303 2.6338 2.2483 2.8019 2.42718C3.83349 3.51707 5.60573 3.38502 6.46441 2.15428L7.83106 0.195474C7.97152 -0.00522683 8.25706 -0.0597651 8.46891 0.0711269C8.68076 0.2042 8.73833 0.47471 8.60017 0.675411L5.24279 5.49005C5.1645 5.60349 5.03554 5.67548 4.89277 5.68421C4.88126 5.68421 4.86975 5.68421 4.85823 5.68421Z" fill="#767998"/></svg>