<svg width="48" height="48" viewBox="0 0 48 48" fill="none" xmlns="http://www.w3.org/2000/svg"><path d="M36 21.0885V8.376L27.621 0H0V48H36V47.9115C42.7485 47.1615 47.997 41.4465 48 34.5C47.997 27.549 42.7485 21.834 36 21.0885ZM26.997 3.6195L32.379 9H26.997C26.997 9 26.997 3.6195 26.997 3.6195ZM3 45V2.997H24V11.9985H33V21.0885C30.372 21.3795 27.972 22.4235 26.022 24H6V27H23.2755C22.6575 27.924 22.161 28.9335 21.7845 30H6V33H21.0885C21.033 33.4935 21 33.9915 21 34.5C21 38.7435 22.962 42.528 26.025 45H3ZM34.5 44.8245C28.7985 44.811 24.186 40.1985 24.1725 34.5C24.186 28.7985 28.7985 24.186 34.5 24.1725C40.1985 24.186 44.811 28.7985 44.8245 34.5C44.811 40.1985 40.1985 44.811 34.5 44.8245Z" fill="#B80929"/><path d="M30 18H6V21H30V18Z" fill="#B80929"/><path d="M39 28.5L33 34.5L30 31.5L27 34.5L33 40.5L42 31.5L39 28.5Z" fill="#B80929"/></svg>