<svg text="center" width="50" height="49" viewBox="0 0 50 49" fill="none" xmlns="http://www.w3.org/2000/svg"><path fill-rule="evenodd" clip-rule="evenodd" d="M23.1936 0.682574C17.0072 1.31514 12.0904 3.57401 7.9728 7.67517C2.20669 13.4181 -0.244735 21.592 1.41073 29.5544C3.34084 38.8373 10.5211 46.0832 19.8257 48.1379C21.6954 48.5508 22.7393 48.6543 25.0321 48.6543C27.325 48.6543 28.3689 48.5508 30.2386 48.1379C37.5235 46.5292 43.5555 41.751 46.8284 34.9962C48.6928 31.1482 49.4902 26.5227 49.0313 22.2168C48.4328 16.6012 46.0624 11.6385 42.0873 7.6793C38.3313 3.93828 33.8265 1.6903 28.4264 0.862126C27.4773 0.716568 24.0209 0.597962 23.1936 0.682574ZM27.9734 4.56606C31.4082 5.06987 34.4738 6.33322 37.2892 8.40521C40.9163 11.0746 43.6132 15.0956 44.7942 19.5952C45.6044 22.682 45.6047 26.6433 44.7948 29.7373C44.4301 31.1307 44.0237 32.2095 43.3262 33.6345C40.3885 39.6376 34.5993 43.837 27.9867 44.7616C25.3802 45.1262 22.3225 44.9694 19.9407 44.3493C17.3088 43.6639 14.7111 42.4134 12.6336 40.8316C10.7614 39.4061 8.95177 37.4204 7.71399 35.433C7.05578 34.3762 6.09577 32.3884 5.75691 31.3807C4.17838 26.6869 4.29416 21.5549 6.0788 17.1067C7.16355 14.4029 9.20162 11.4649 11.2251 9.68791C11.6367 9.32636 11.9948 9.00745 12.0208 8.97918C12.0467 8.95101 12.3225 8.73493 12.6336 8.49903C15.3214 6.46141 18.6842 5.0587 22.0622 4.56596C23.6954 4.32781 26.3491 4.32781 27.9734 4.56606Z" fill="#21B396"/><path fill-rule="evenodd" clip-rule="evenodd" d="M47.266 1.77142C46.6308 1.96253 45.5125 2.90856 44.8303 3.83196C44.7007 4.00747 44.5507 4.19717 44.4969 4.25351C44.4433 4.30995 44.172 4.63074 43.8942 4.96646C43.6164 5.30219 43.3631 5.598 43.3314 5.62382C43.2995 5.64965 43.1577 5.82563 43.0162 6.01476C42.8746 6.20399 42.7026 6.41528 42.6337 6.4843C42.5648 6.55342 42.0918 7.11696 41.5826 7.73676C40.5815 8.95503 39.8766 9.78847 39.6317 10.0434C39.5467 10.1318 39.4407 10.2661 39.396 10.3419C39.3512 10.4177 39.1372 10.6865 38.9203 10.9394C38.7034 11.1923 38.1778 11.8218 37.7524 12.3383C37.327 12.8548 36.7996 13.4886 36.5802 13.7469C36.1647 14.2363 35.3397 15.2301 34.1292 16.6994C34.0253 16.8254 33.79 17.1001 33.6062 17.3098C33.4224 17.5195 32.7886 18.2827 32.1977 19.0057C31.6068 19.7288 30.9934 20.4715 30.8347 20.656C30.2496 21.3362 29.6854 22.0093 29.2261 22.5751C28.9668 22.8945 27.782 24.3226 26.5932 25.7488L24.4318 28.3418L24.2361 28.1247C24.1284 28.0053 23.8282 27.6599 23.5689 27.3572C23.3097 27.0544 22.4037 26.0024 21.5557 25.0192C20.7077 24.036 19.8379 23.0228 19.6228 22.7675C18.8579 21.8596 17.8133 20.693 17.5347 20.4352C17.3791 20.2914 16.9336 20.0165 16.5447 19.8244C15.8784 19.4955 15.7859 19.4753 14.9418 19.4753C13.9617 19.4753 13.4184 19.6272 12.7169 20.0977C12.1145 20.5016 11.4288 21.318 11.1802 21.9269C10.8737 22.6778 10.8078 23.8024 11.0264 24.5516C11.186 25.0982 11.7827 26.1093 12.2175 26.5697C12.3416 26.7012 12.6978 27.1016 13.009 27.4595C13.3201 27.8173 13.6861 28.238 13.8223 28.3942C14.1436 28.763 15.9774 30.905 16.43 31.4404C16.6228 31.6683 16.823 31.9008 16.8752 31.9569C16.9273 32.0131 17.2243 32.3548 17.5352 32.7164C17.846 33.0779 18.1226 33.3948 18.1496 33.4207C18.1768 33.4465 18.4101 33.7209 18.6682 34.0304C18.9263 34.3399 19.1921 34.651 19.2589 34.7214C19.3256 34.7919 19.9768 35.5429 20.7059 36.3901C21.8092 37.6724 22.1368 37.9918 22.6588 38.2953C23.453 38.7568 24.0988 38.9065 25.02 38.8426C25.8615 38.784 26.4076 38.5881 27.0575 38.111C27.5115 37.7778 28.1418 37.1497 28.1418 37.0305C28.1418 36.9989 28.2642 36.797 28.4138 36.5819C28.6543 36.2362 29.0864 35.5647 30.6595 33.092C30.8896 32.7304 31.4248 31.8987 31.849 31.2436C32.2733 30.5885 33.1033 29.2996 33.6934 28.3794C34.2836 27.4592 34.7928 26.6851 34.8248 26.6593C34.857 26.6334 34.9308 26.5278 34.989 26.4245C35.0472 26.3212 35.4467 25.6873 35.8768 25.0159C36.6305 23.8394 36.9682 23.3147 38.6395 20.7246C39.0627 20.0689 39.8731 18.8066 40.4405 17.9196C41.0078 17.0326 41.5169 16.2575 41.5719 16.1971C41.6268 16.1368 41.7196 16.0044 41.7782 15.9031C41.9279 15.644 43.0606 13.8699 43.9643 12.4791C44.3838 11.8335 45.091 10.7348 45.536 10.0375C47.5371 6.9022 48.3473 5.66852 48.4244 5.6395C48.47 5.62223 48.5074 5.55827 48.5074 5.49723C48.5074 5.43619 48.586 5.23899 48.682 5.05896C49.5984 3.34044 49.2357 1.6639 47.9526 1.68775C47.7133 1.69217 47.4043 1.72982 47.266 1.77142Z" fill="#21B396"/></svg>