<svg width="23" height="21" viewBox="0 0 23 21" fill="none" xmlns="http://www.w3.org/2000/svg"><path d="M10.5936 0.601409C10.9525 -0.168751 12.0475 -0.168752 12.4064 0.601408L14.8145 5.76906C14.9602 6.08178 15.2568 6.2973 15.5993 6.33926L21.2582 7.03257C22.1015 7.1359 22.4399 8.17737 21.8183 8.75668L17.6478 12.6438C17.3954 12.879 17.2821 13.2277 17.348 13.5664L18.4373 19.1625C18.5996 19.9965 17.7137 20.6402 16.9707 20.2281L11.985 17.4628C11.6833 17.2954 11.3167 17.2954 11.015 17.4628L6.02933 20.2281C5.2863 20.6402 4.40037 19.9965 4.56271 19.1625L5.65202 13.5664C5.71794 13.2277 5.60464 12.879 5.35225 12.6438L1.18165 8.75668C0.560085 8.17737 0.89848 7.1359 1.74185 7.03257L7.40071 6.33926C7.74316 6.2973 8.03979 6.08179 8.18552 5.76906L10.5936 0.601409Z" fill="#FDD237"/></svg>