<svg width="81" height="48" viewBox="0 0 81 48" fill="none" xmlns="http://www.w3.org/2000/svg"><path d="M69.2493 16.523C70.1396 14.7956 70.5707 12.8683 70.5012 10.9263C70.4316 8.9842 69.8638 7.09265 68.8523 5.43336C67.8408 3.77406 66.4195 2.40278 64.7251 1.45127C63.0307 0.499763 61.12 0 59.1767 0C57.2334 0 55.3228 0.499763 53.6283 1.45127C51.9339 2.40278 50.5126 3.77406 49.5011 5.43336C48.4896 7.09265 47.9218 8.9842 47.8523 10.9263C47.7827 12.8683 48.2138 14.7956 49.1041 16.523C46.5572 17.8894 44.3164 19.7617 42.5191 22.0252C41.6816 21.4918 40.8157 21.0042 39.9254 20.5647C41.0692 18.4551 41.6453 16.0845 41.5972 13.6852C41.549 11.2859 40.8783 8.94032 39.6507 6.87831C38.4232 4.8163 36.6809 3.10864 34.5947 1.92269C32.5084 0.736737 30.1499 0.113204 27.7501 0.113204C25.3503 0.113204 22.9918 0.736737 20.9055 1.92269C18.8193 3.10864 17.077 4.8163 15.8495 6.87831C14.6219 8.94032 13.9512 11.2859 13.903 13.6852C13.8549 16.0845 14.431 18.4551 15.5748 20.5647C10.903 22.8391 6.96516 26.3817 4.21107 30.7878C1.45699 35.1939 -0.00227117 40.2858 2.65326e-06 45.4818C2.65326e-06 46.1497 0.265308 46.7902 0.737554 47.2625C1.2098 47.7347 1.8503 48 2.51816 48H52.8813C53.5492 48 54.1897 47.7347 54.6619 47.2625C55.1342 46.7902 55.3995 46.1497 55.3995 45.4818C55.4031 42.9265 55.0471 40.3834 54.3418 37.9274H78.0629C78.7308 37.9274 79.3713 37.6621 79.8435 37.1898C80.3158 36.7176 80.581 36.0771 80.581 35.4092C80.581 31.5298 79.5267 27.7233 77.5308 24.3968C75.5348 21.0702 72.6723 18.3486 69.2493 16.523ZM52.8813 11.4867C52.8813 10.2416 53.2505 9.02445 53.9423 7.98918C54.634 6.9539 55.6172 6.14701 56.7676 5.67052C57.9179 5.19404 59.1837 5.06937 60.4049 5.31228C61.6261 5.55519 62.7478 6.15477 63.6282 7.03519C64.5087 7.91562 65.1082 9.03735 65.3511 10.2585C65.594 11.4797 65.4694 12.7455 64.9929 13.8959C64.5164 15.0462 63.7095 16.0294 62.6742 16.7211C61.639 17.4129 60.4218 17.7821 59.1767 17.7821C57.5071 17.7821 55.9058 17.1188 54.7252 15.9382C53.5446 14.7576 52.8813 13.1564 52.8813 11.4867ZM27.6997 5.19132C29.1528 5.19152 30.5833 5.55099 31.8638 6.23773C33.1444 6.92446 34.2353 7.91716 35.0394 9.12745C35.8436 10.3377 36.336 11.7281 36.4728 13.1747C36.6097 14.6213 36.3868 16.0793 35.8239 17.4189C35.2611 18.7585 34.3757 19.9382 33.2467 20.8529C32.1176 21.7677 30.78 22.389 29.3527 22.6618C27.9255 22.9345 26.4529 22.8501 25.0662 22.4162C23.6794 21.9822 22.4215 21.2121 21.4043 20.1744C20.1893 18.9348 19.3674 17.364 19.0416 15.6591C18.7158 13.9542 18.9007 12.1911 19.573 10.5908C20.2454 8.99057 21.3753 7.62449 22.8211 6.66392C24.2668 5.70336 25.964 5.19107 27.6997 5.19132ZM50.2247 42.9637H5.17482C5.62741 38.966 7.13603 35.1609 9.5457 31.9391C11.9554 28.7174 15.1793 26.1951 18.8862 24.6315C21.3748 26.7044 24.5113 27.8395 27.7501 27.8395C30.9889 27.8395 34.1254 26.7044 36.614 24.6315C40.3021 26.2092 43.5053 28.7376 45.8966 31.9584C48.2878 35.1791 49.7813 38.9769 50.2247 42.9637ZM52.3651 32.8911C50.872 29.9725 48.8726 27.3422 46.46 25.1225C48.0446 23.1559 50.0667 21.5865 52.3651 20.5395C54.3288 22.0166 56.7195 22.8153 59.1767 22.8153C61.6339 22.8153 64.0246 22.0166 65.9883 20.5395C68.4489 21.6638 70.5923 23.3805 72.2271 25.536C73.8618 27.6914 74.9368 30.2185 75.3559 32.8911H52.3651Z" fill="#495FEA"/></svg>