<svg width="15" height="16" viewBox="0 0 15 16" fill="none" xmlns="http://www.w3.org/2000/svg"><path d="M12.8033 2.69668C11.3867 1.28015 9.50332 0.5 7.5 0.5C5.49668 0.5 3.61327 1.28015 2.19668 2.69668C0.780147 4.11327 0 5.99668 0 8C0 10.0033 0.780147 11.8867 2.19668 13.3033C3.61327 14.7199 5.49668 15.5 7.5 15.5C9.50332 15.5 11.3867 14.7199 12.8033 13.3033C14.2199 11.8867 15 10.0033 15 8C15 5.99668 14.2199 4.11327 12.8033 2.69668ZM7.5 14.6211C3.84911 14.6211 0.878906 11.6509 0.878906 8C0.878906 4.34911 3.84911 1.37891 7.5 1.37891C11.1509 1.37891 14.1211 4.34911 14.1211 8C14.1211 11.6509 11.1509 14.6211 7.5 14.6211Z" fill="#B1B1B1"/><path d="M7.50024 12.4629C7.74295 12.4629 7.9397 12.2661 7.9397 12.0234C7.9397 11.7807 7.74295 11.584 7.50024 11.584C7.25754 11.584 7.06079 11.7807 7.06079 12.0234C7.06079 12.2661 7.25754 12.4629 7.50024 12.4629Z" fill="#B1B1B1"/><path d="M7.55502 3.53767C6.07658 3.50708 4.82739 4.73231 4.82739 6.20978H5.7063C5.7063 5.22277 6.54952 4.39569 7.5373 4.4164C8.47245 4.43524 9.24293 5.18081 9.29136 6.11377C9.34362 7.12071 8.50688 8.00357 7.50006 8.00357H7.06061V10.7783H7.93951V8.84697C9.26552 8.62988 10.2384 7.40398 10.1691 6.06822C10.0969 4.67732 8.94867 3.56574 7.55502 3.53767Z" fill="#B1B1B1"/></svg>