<svg width="57" height="48" viewBox="0 0 57 48" fill="none" xmlns="http://www.w3.org/2000/svg"><path fill-rule="evenodd" clip-rule="evenodd" d="M26.6923 0.156299C26.4145 0.232644 25.928 0.435573 25.6113 0.607266C24.5364 1.19006 24.0052 1.88415 21.648 5.78667C17.6004 12.4876 16.2277 14.7571 12.9937 20.0944C11.2285 23.0079 9.35551 26.1042 8.83167 26.9753C8.30773 27.8463 6.22554 31.2881 4.20454 34.6237C2.18343 37.9593 0.414316 40.982 0.272967 41.3407C-0.0619293 42.1909 -0.0939494 43.7741 0.206185 44.6429C0.669271 45.9833 1.84426 47.1971 3.21071 47.7467L3.84047 48H28.0201H52.1997L52.8318 47.7458C54.1287 47.2243 55.2776 46.0758 55.7741 44.8042C55.9679 44.3083 56.0197 43.9492 56.0227 43.0851C56.0271 41.7501 55.852 41.2484 54.7457 39.4263C54.3263 38.7355 53.1066 36.7204 52.0353 34.9483C50.9641 33.1762 48.9404 29.8341 47.5386 27.5213C46.1367 25.2086 44.1139 21.8665 43.0436 20.0944C41.9732 18.3223 39.802 14.7345 38.2185 12.1214C36.6352 9.50833 34.618 6.17331 33.736 4.71021C32.0237 1.86995 31.4537 1.16287 30.4286 0.607157C29.3384 0.0161706 27.8546 -0.16284 26.6923 0.156299ZM28.5388 3.77059C28.7661 3.86321 29.0299 4.04746 29.125 4.18016C29.22 4.31286 30.573 6.53483 32.1317 9.11787C33.6905 11.7009 35.5074 14.699 36.1693 15.7803C36.8313 16.8615 37.6793 18.2623 38.0537 18.893C38.4281 19.5238 39.7346 21.6863 40.9572 23.6987C42.1797 25.711 44.204 29.0532 45.4555 31.1256C46.707 33.198 48.7545 36.5831 50.0053 38.648C51.2562 40.7129 52.3265 42.5709 52.3836 42.777C52.5139 43.247 52.1811 44.008 51.7434 44.2413C51.3081 44.4734 4.7321 44.4734 4.29676 44.2413C3.9089 44.0346 3.52674 43.2403 3.61743 42.8292C3.65537 42.6568 4.35477 41.4151 5.17161 40.0699C5.98846 38.7248 8.05277 35.3142 9.75894 32.4908C11.4651 29.6675 13.8613 25.711 15.0835 23.6987C16.3057 21.6863 17.6128 19.5238 17.988 18.893C18.3633 18.2623 19.523 16.3455 20.5652 14.6334C21.6075 12.9214 23.4465 9.88655 24.6519 7.88926C25.8573 5.89196 26.9641 4.13779 27.1112 3.9911C27.3505 3.75279 27.5571 3.66497 27.9905 3.61714C28.0646 3.60895 28.3113 3.67797 28.5388 3.77059ZM26.9721 15.1592C26.3379 15.3776 26.0461 15.6205 25.7709 16.159C25.5958 16.5016 25.5832 16.7992 25.6394 19.2718C25.6956 21.7457 25.7928 24.3345 26.0279 29.6167C26.0987 31.2051 26.1367 31.4695 26.3241 31.6758C26.7079 32.0982 27.1555 32.2583 27.9653 32.2629C28.8595 32.2678 29.5621 31.9702 29.8142 31.4795C29.9282 31.2575 30.0014 30.235 30.0973 27.5213C30.1684 25.509 30.272 23.027 30.3275 22.0058C30.4691 19.3996 30.4603 16.5296 30.3097 16.2372C29.7512 15.1522 28.3277 14.6924 26.9721 15.1592ZM27.5027 34.7373C25.5149 35.1208 24.7958 37.7665 26.3073 39.1354C26.8852 39.6588 27.2518 39.8012 28.0201 39.8008C28.8163 39.8005 29.4041 39.5583 29.8992 39.0267C31.6279 37.1703 29.9994 34.2554 27.5027 34.7373Z" fill="#B80929"/></svg>