<svg width="21" height="21" viewBox="0 0 21 21" fill="none" xmlns="http://www.w3.org/2000/svg"><path d="M9.64209 0.691817C10.0211 -0.00312388 11.0189 -0.00312376 11.3979 0.691817L14.0311 5.51994C14.1749 5.78367 14.4296 5.96877 14.7249 6.02406L20.1304 7.03632C20.9085 7.18202 21.2168 8.13104 20.673 8.70624L16.8949 12.7024C16.6885 12.9207 16.5912 13.2202 16.6298 13.5181L17.3375 18.9719C17.4394 19.7568 16.6321 20.3434 15.917 20.0039L10.9488 17.6456C10.6775 17.5168 10.3626 17.5168 10.0912 17.6456L5.12306 20.0039C4.40797 20.3434 3.60069 19.7568 3.70255 18.9719L4.41022 13.5181C4.44887 13.2202 4.35156 12.9207 4.14519 12.7024L0.367045 8.70624C-0.176766 8.13104 0.131588 7.18202 0.909633 7.03632L6.31512 6.02406C6.61039 5.96877 6.86516 5.78367 7.00899 5.51994L9.64209 0.691817Z" fill="#FDD237"/></svg>