<svg width="40" height="40" viewBox="0 0 40 40" fill="none" xmlns="http://www.w3.org/2000/svg"><path d="M19.8552 21.5531C19.8966 21.5531 19.938 21.5531 19.9877 21.5531C20.0043 21.5531 20.0208 21.5531 20.0374 21.5531C20.0622 21.5531 20.0954 21.5531 20.1202 21.5531C22.5472 21.5117 24.5104 20.6585 25.9599 19.0267C29.149 15.4318 28.6189 9.269 28.5609 8.68089C28.3538 4.26589 26.2664 2.15366 24.5435 1.16794C23.2596 0.430731 21.7603 0.0331332 20.0871 0H20.0291C20.0208 0 20.0043 0 19.996 0H19.9463C19.0268 0 17.2211 0.149099 15.4899 1.13481C13.7504 2.12052 11.6299 4.23276 11.4228 8.68089C11.3648 9.269 10.8347 15.4318 14.0237 19.0267C15.465 20.6585 17.4282 21.5117 19.8552 21.5531ZM13.6344 8.88797C13.6344 8.86312 13.6427 8.83827 13.6427 8.8217C13.916 2.88258 18.1322 2.24477 19.938 2.24477H19.9711C19.9877 2.24477 20.0125 2.24477 20.0374 2.24477C22.2739 2.29447 26.0759 3.20563 26.3327 8.8217C26.3327 8.84655 26.3327 8.8714 26.341 8.88797C26.3493 8.94595 26.9291 14.5786 24.295 17.544C23.2513 18.7202 21.8597 19.3001 20.0291 19.3166C20.0125 19.3166 20.0043 19.3166 19.9877 19.3166C19.9711 19.3166 19.9628 19.3166 19.9463 19.3166C18.1239 19.3001 16.7241 18.7202 15.6887 17.544C13.0629 14.5952 13.6261 8.93767 13.6344 8.88797Z" fill="#B1B1B1"/><path d="M37.0098 31.7754C37.0098 31.7671 37.0098 31.7588 37.0098 31.7505C37.0098 31.6842 37.0015 31.618 37.0015 31.5434C36.9518 29.9033 36.8441 26.0682 33.2491 24.8423C33.2243 24.834 33.1912 24.8257 33.1663 24.8174C29.4305 23.8648 26.3243 21.7112 26.2912 21.6863C25.7859 21.3301 25.0901 21.4544 24.7339 21.9597C24.3777 22.4649 24.502 23.1607 25.0073 23.5169C25.1481 23.6163 28.4448 25.9108 32.5699 26.9711C34.4999 27.6586 34.7153 29.7211 34.7733 31.6097C34.7733 31.6843 34.7733 31.7505 34.7816 31.8168C34.7898 32.5623 34.7401 33.7137 34.6076 34.3763C33.2657 35.1384 28.0058 37.7725 20.0042 37.7725C12.0356 37.7725 6.74262 35.1301 5.39245 34.368C5.25991 33.7054 5.20193 32.554 5.2185 31.8085C5.2185 31.7422 5.22678 31.676 5.22678 31.6014C5.28476 29.7128 5.50013 27.6503 7.43013 26.9628C11.5552 25.9025 14.852 23.5998 14.9928 23.5086C15.4981 23.1525 15.6223 22.4567 15.2661 21.9514C14.9099 21.4461 14.2141 21.3219 13.7089 21.678C13.6757 21.7029 10.5861 23.8565 6.83374 24.8091C6.8006 24.8174 6.77575 24.8257 6.7509 24.834C3.15596 26.0682 3.04827 29.9033 2.99858 31.5352C2.99858 31.6097 2.99857 31.676 2.99029 31.7422C2.99029 31.7505 2.99029 31.7588 2.99029 31.7671C2.98201 32.1978 2.97373 34.4095 3.41274 35.5194C3.49557 35.7348 3.64467 35.917 3.84347 36.0413C4.09197 36.2069 10.0477 40.0007 20.0124 40.0007C29.9772 40.0007 35.9329 36.1986 36.1814 36.0413C36.3719 35.917 36.5293 35.7348 36.6122 35.5194C37.0263 34.4177 37.018 32.2061 37.0098 31.7754Z" fill="#B1B1B1"/></svg>