<svg width="56" height="48" viewBox="0 0 56 48" fill="none" xmlns="http://www.w3.org/2000/svg"><path fill-rule="evenodd" clip-rule="evenodd" d="M26.5856 0.156299C26.3088 0.232644 25.8243 0.435573 25.5089 0.607266C24.4382 1.19006 23.9092 1.88415 21.5614 5.78667C17.53 12.4876 16.1628 14.7571 12.9418 20.0944C11.1836 23.0079 9.31809 26.1042 8.79635 26.9753C8.2745 27.8463 6.20064 31.2881 4.18772 34.6237C2.1747 37.9593 0.412659 40.982 0.271875 41.3407C-0.0616815 42.1909 -0.0935736 43.7741 0.20536 44.6429C0.666594 45.9833 1.83688 47.1971 3.19786 47.7467L3.82511 48H27.908H51.9909L52.6204 47.7458C53.9122 47.2243 55.0565 46.0758 55.551 44.8042C55.744 44.3083 55.7957 43.9492 55.7986 43.0851C55.803 41.7501 55.6286 41.2484 54.5268 39.4263C54.109 38.7355 52.8941 36.7204 51.8272 34.9483C50.7602 33.1762 48.7447 29.8341 47.3484 27.5213C45.9522 25.2086 43.9375 21.8665 42.8714 20.0944C41.8053 18.3223 39.6428 14.7345 38.0656 12.1214C36.4886 9.50833 34.4795 6.17331 33.6011 4.71021C31.8956 1.86995 31.3279 1.16287 30.3069 0.607157C29.221 0.0161706 27.7432 -0.16284 26.5856 0.156299ZM28.4246 3.77059C28.651 3.86321 28.9138 4.04746 29.0085 4.18016C29.1031 4.31286 30.4507 6.53483 32.0032 9.11787C33.5557 11.7009 35.3654 14.699 36.0247 15.7803C36.684 16.8615 37.5286 18.2623 37.9015 18.893C38.2744 19.5238 39.5757 21.6863 40.7934 23.6987C42.011 25.711 44.0272 29.0532 45.2737 31.1256C46.5202 33.198 48.5594 36.5831 49.8053 38.648C51.0512 40.7129 52.1172 42.5709 52.1741 42.777C52.3038 43.247 51.9723 44.008 51.5364 44.2413C51.1028 44.4734 4.71318 44.4734 4.27957 44.2413C3.89326 44.0346 3.51263 43.2403 3.60296 42.8292C3.64075 42.6568 4.33735 41.4151 5.15093 40.0699C5.9645 38.7248 8.02056 35.3142 9.71991 32.4908C11.4193 29.6675 13.8058 25.711 15.0232 23.6987C16.2405 21.6863 17.5423 19.5238 17.9161 18.893C18.2898 18.2623 19.4449 16.3455 20.4829 14.6334C21.5211 12.9214 23.3527 9.88655 24.5533 7.88926C25.7539 5.89196 26.8562 4.13779 27.0028 3.9911C27.2411 3.75279 27.4469 3.66497 27.8785 3.61714C27.9523 3.60895 28.1981 3.67797 28.4246 3.77059ZM26.8642 15.1592C26.2326 15.3776 25.9419 15.6205 25.6678 16.159C25.4934 16.5016 25.4808 16.7992 25.5368 19.2718C25.5928 21.7457 25.6896 24.3345 25.9238 29.6167C25.9943 31.2051 26.0322 31.4695 26.2188 31.6758C26.6011 32.0982 27.0469 32.2583 27.8534 32.2629C28.7441 32.2678 29.4438 31.9702 29.6949 31.4795C29.8085 31.2575 29.8814 30.235 29.9769 27.5213C30.0477 25.509 30.1509 23.027 30.2062 22.0058C30.3472 19.3996 30.3385 16.5296 30.1885 16.2372C29.6321 15.1522 28.2144 14.6924 26.8642 15.1592ZM27.3927 34.7373C25.4129 35.1208 24.6966 37.7665 26.2021 39.1354C26.7777 39.6588 27.1428 39.8012 27.908 39.8008C28.701 39.8005 29.2865 39.5583 29.7796 39.0267C31.5014 37.1703 29.8794 34.2554 27.3927 34.7373Z" fill="#B80929"/></svg>