<svg width="48" height="48" viewBox="0 0 48 48" fill="none" xmlns="http://www.w3.org/2000/svg"><path d="M24 48C19.2533 48 14.6131 46.5924 10.6663 43.9553C6.71954 41.3181 3.6434 37.5698 1.8269 33.1844C0.0103988 28.799 -0.464881 23.9734 0.461164 19.3178C1.38721 14.6623 3.67299 10.3859 7.02945 7.02945C10.3859 3.67299 14.6623 1.38721 19.3178 0.461164C23.9734 -0.464881 28.799 0.0103988 33.1844 1.8269C37.5698 3.6434 41.3181 6.71954 43.9553 10.6663C46.5924 14.6131 48 19.2533 48 24C48 30.3652 45.4714 36.4697 40.9706 40.9706C36.4697 45.4714 30.3652 48 24 48ZM24 3.69232C19.9835 3.69232 16.0572 4.88334 12.7177 7.11478C9.37808 9.34622 6.77519 12.5178 5.23815 16.2286C3.70111 19.9393 3.29895 24.0225 4.08252 27.9618C4.8661 31.9011 6.80022 35.5196 9.6403 38.3597C12.4804 41.1998 16.0989 43.1339 20.0382 43.9175C23.9775 44.7011 28.0607 44.2989 31.7714 42.7619C35.4822 41.2248 38.6538 38.6219 40.8852 35.2824C43.1167 31.9428 44.3077 28.0165 44.3077 24C44.3077 18.6141 42.1681 13.4487 38.3597 9.6403C34.5513 5.83187 29.3859 3.69232 24 3.69232Z" fill="#B80929"/><path d="M16.1723 33.6734C15.9294 33.6748 15.6885 33.6282 15.4636 33.5364C15.2386 33.4445 15.0341 33.3091 14.8616 33.138C14.5177 32.7921 14.3247 32.3242 14.3247 31.8365C14.3247 31.3488 14.5177 30.8808 14.8616 30.5349L30.5354 14.8611C30.7063 14.6841 30.9104 14.5425 31.1361 14.4444C31.3617 14.3463 31.6045 14.2936 31.8505 14.2893C32.0965 14.2851 32.3409 14.3293 32.5698 14.4195C32.7987 14.5096 33.0076 14.644 33.1846 14.8149C33.3616 14.9859 33.5032 15.19 33.6013 15.4156C33.6994 15.6412 33.7521 15.884 33.7564 16.13C33.7607 16.376 33.7165 16.6204 33.6263 16.8494C33.5361 17.0783 33.4017 17.2872 33.2308 17.4642L17.4646 33.2303C17.1064 33.5378 16.6439 33.6964 16.1723 33.6734Z" fill="#B80929"/><path d="M31.8277 33.6722C31.3434 33.6702 30.8793 33.4779 30.5354 33.1369L14.8616 17.463C14.5591 17.1098 14.4011 16.6555 14.419 16.1909C14.437 15.7263 14.6296 15.2855 14.9584 14.9567C15.2872 14.628 15.7279 14.4353 16.1925 14.4174C16.6572 14.3994 17.1115 14.5575 17.4646 14.8599L33.2308 30.5338C33.4152 30.7065 33.5623 30.9152 33.6628 31.147C33.7633 31.3788 33.8152 31.6288 33.8152 31.8815C33.8152 32.1341 33.7633 32.3841 33.6628 32.6159C33.5623 32.8478 33.4152 33.0565 33.2308 33.2292C33.0398 33.3953 32.8167 33.5203 32.5753 33.5965C32.3339 33.6727 32.0795 33.6985 31.8277 33.6722Z" fill="#B80929"/></svg>