<svg width="25" height="26" viewBox="0 0 25 26" fill="none" xmlns="http://www.w3.org/2000/svg"><path d="M22.6509 3.22656H2.34322C1.05109 3.22656 0 4.31216 0 5.64672V20.1676C0 21.5021 1.05109 22.5877 2.34322 22.5877H22.6509C23.9431 22.5877 24.9941 21.5021 24.9941 20.1676V5.64672C24.9941 4.31216 23.9431 3.22656 22.6509 3.22656ZM22.6509 4.83998C22.757 4.83998 22.858 4.86272 22.9503 4.90244L12.4971 14.2598L2.04379 4.90244C2.13609 4.86278 2.23704 4.83998 2.34316 4.83998H22.6509ZM22.6509 20.9743H2.34322C1.91226 20.9743 1.56213 20.6127 1.56213 20.1675V6.60704L11.9852 15.937C12.1325 16.0686 12.3148 16.134 12.4971 16.134C12.6794 16.134 12.8617 16.0686 13.0089 15.937L23.432 6.60704V20.1676C23.432 20.6127 23.0819 20.9743 22.6509 20.9743Z" fill="#495FEA"/></svg>