<svg width="16" height="16" viewBox="0 0 16 16" fill="none" xmlns="http://www.w3.org/2000/svg"><path d="M16 9.50064C16 9.09998 15.8407 8.72664 15.566 8.4513C15.8773 8.11064 16.036 7.65395 15.9927 7.17864C15.9147 6.3313 15.1513 5.6673 14.254 5.6673H10.136C10.34 5.04795 10.6667 3.91264 10.6667 3.00064C10.6667 1.55464 9.438 0.333984 8.66666 0.333984C7.97466 0.333984 7.47931 0.723984 7.45866 0.739984C7.37931 0.803328 7.33331 0.899328 7.33331 1.00064V3.2613L5.41266 7.42064L5.33331 7.4613V7.33395C5.33331 7.14995 5.18397 7.00061 4.99997 7.00061H1.66666C0.747344 7.00064 0 7.74798 0 8.6673V14.0006C0 14.92 0.747344 15.6673 1.66666 15.6673H3.66666C4.38731 15.6673 5.00331 15.2073 5.23531 14.5653C5.79 14.8506 6.53666 15.0006 7 15.0006H13.1193C13.8453 15.0006 14.4807 14.5113 14.63 13.8366C14.7067 13.4886 14.662 13.1386 14.51 12.8346C15.002 12.5873 15.3333 12.0786 15.3333 11.5006C15.3333 11.2646 15.2793 11.0386 15.1773 10.8346C15.6693 10.5866 16 10.0786 16 9.50064ZM14.594 10.3233C14.4653 10.3386 14.3567 10.426 14.3153 10.5493C14.2747 10.6726 14.3087 10.808 14.4033 10.8973C14.5727 11.0566 14.6667 11.2713 14.6667 11.5006C14.6667 11.9213 14.3487 12.2746 13.928 12.3233C13.7994 12.3386 13.6907 12.426 13.6494 12.5493C13.6087 12.6726 13.6427 12.808 13.7374 12.8973C13.9567 13.104 14.0447 13.394 13.9787 13.6926C13.8967 14.0646 13.5354 14.334 13.1194 14.334H7C6.45866 14.334 5.55066 14.08 5.236 13.7646C5.14066 13.67 4.99666 13.642 4.87266 13.6926C4.748 13.744 4.66666 13.866 4.66666 14.0006C4.66666 14.552 4.218 15.0006 3.66666 15.0006H1.66666C1.11531 15.0006 0.666656 14.552 0.666656 14.0006V8.6673C0.666656 8.11595 1.11531 7.6673 1.66666 7.6673H4.66666V8.00064C4.66666 8.11598 4.72666 8.2233 4.82531 8.28464C4.92266 8.3433 5.04531 8.3493 5.14931 8.29864L5.81597 7.9653C5.88331 7.93195 5.93731 7.87595 5.96931 7.8073L7.96931 3.47395C7.98931 3.42995 7.99997 3.38195 7.99997 3.33395V1.1813C8.13866 1.10464 8.37934 1.00064 8.66666 1.00064C9.032 1.00064 10 1.90864 10 3.00064C10 4.17398 9.36134 5.8653 9.35534 5.88198C9.31669 5.98398 9.33 6.09933 9.392 6.18998C9.45466 6.27998 9.55734 6.33398 9.66666 6.33398H14.254C14.81 6.33398 15.282 6.73198 15.3287 7.23998C15.364 7.61998 15.1813 7.98133 14.854 8.18333C14.752 8.24599 14.6913 8.35933 14.696 8.47998C14.7007 8.60064 14.77 8.70864 14.8767 8.76398C15.1587 8.90733 15.3333 9.18998 15.3333 9.50064C15.3333 9.9213 15.0153 10.2746 14.594 10.3233Z" fill="#21B396"/><path d="M5.00034 7.66602C4.81634 7.66602 4.66699 7.81536 4.66699 7.99936V13.9994C4.66699 14.1834 4.81634 14.3327 5.00034 14.3327C5.18434 14.3327 5.33368 14.1834 5.33368 13.9994V7.99936C5.33368 7.81536 5.18434 7.66602 5.00034 7.66602Z" fill="#21B396"/></svg>