<svg width="13" height="12" viewBox="0 0 13 12" fill="none" xmlns="http://www.w3.org/2000/svg"><path fill-rule="evenodd" clip-rule="evenodd" d="M11.6945 0.0270947C11.4902 0.0887922 11.1306 0.394217 10.9112 0.692336C10.8696 0.749001 10.8213 0.810243 10.804 0.828434C10.7868 0.846656 10.6996 0.950222 10.6102 1.05861C10.5209 1.167 10.4395 1.2625 10.4292 1.27084C10.419 1.27917 10.3734 1.33599 10.3279 1.39705C10.2824 1.45814 10.2271 1.52636 10.2049 1.54864C10.1828 1.57096 10.0306 1.7529 9.8669 1.953C9.54501 2.34631 9.31832 2.61539 9.23959 2.6977C9.21227 2.72623 9.17816 2.76959 9.16379 2.79405C9.14939 2.81852 9.08057 2.90532 9.01084 2.98697C8.94108 3.06861 8.77208 3.27184 8.63529 3.43859C8.49849 3.60534 8.32889 3.80998 8.25837 3.89336C8.12476 4.05138 7.85947 4.3722 7.47022 4.84656C7.43681 4.88725 7.36113 4.97593 7.30204 5.04363C7.24295 5.11133 7.03912 5.35773 6.84912 5.59118C6.65912 5.82463 6.46187 6.06438 6.41084 6.12396C6.22272 6.34355 6.04129 6.56087 5.89358 6.74354C5.81021 6.84665 5.42923 7.30773 5.04698 7.76817L4.35196 8.60532L4.28902 8.53522C4.2544 8.49666 4.15787 8.38515 4.07449 8.28743C3.99112 8.18969 3.69979 7.85003 3.42711 7.5326C3.15443 7.2152 2.87474 6.88807 2.80559 6.80566C2.55961 6.51255 2.22372 6.1359 2.13413 6.05268C2.0841 6.00623 1.94085 5.91749 1.81579 5.85549C1.60153 5.74929 1.57179 5.74277 1.30038 5.74277C0.985222 5.74277 0.810499 5.79182 0.584932 5.94372C0.391229 6.07411 0.170725 6.33767 0.0908059 6.53425C-0.00775851 6.77671 -0.0289508 7.13977 0.041357 7.38165C0.0926554 7.55813 0.284539 7.88456 0.424336 8.03318C0.464265 8.07566 0.578807 8.20491 0.678857 8.32045C0.778907 8.43599 0.896603 8.57179 0.940382 8.62224C1.04371 8.7413 1.63336 9.43282 1.77892 9.6057C1.84089 9.67928 1.90529 9.75432 1.92205 9.77245C1.93882 9.79058 2.03432 9.90091 2.13428 10.0176C2.23424 10.1344 2.32316 10.2367 2.33186 10.245C2.3406 10.2534 2.41563 10.3419 2.49861 10.4419C2.58163 10.5418 2.66709 10.6422 2.68856 10.665C2.71002 10.6877 2.9194 10.9302 3.15385 11.2037C3.50863 11.6177 3.61396 11.7208 3.78183 11.8188C4.0372 11.9678 4.24488 12.0161 4.54109 11.9955C4.81168 11.9766 4.98728 11.9133 5.19626 11.7593C5.34225 11.6517 5.54492 11.4489 5.54492 11.4104C5.54492 11.4002 5.58428 11.335 5.63239 11.2656C5.70973 11.154 5.84868 10.9372 6.35451 10.1389C6.42849 10.0222 6.6006 9.75365 6.737 9.54215C6.87344 9.33065 7.14033 8.91453 7.33009 8.61745C7.51988 8.32036 7.6836 8.07045 7.69391 8.06211C7.70425 8.05377 7.72798 8.01966 7.74669 7.98631C7.7654 7.95296 7.89389 7.74831 8.03217 7.53154C8.27453 7.15171 8.38313 6.98233 8.92055 6.14612C9.05662 5.93441 9.3172 5.52687 9.49966 5.24052C9.68208 4.95416 9.8458 4.70392 9.86348 4.68442C9.88112 4.66493 9.91098 4.62221 9.92981 4.58949C9.97796 4.50585 10.3422 3.93308 10.6328 3.48406C10.7677 3.27563 10.9951 2.9209 11.1382 2.69579C11.7816 1.68356 12.0421 1.28527 12.0669 1.2759C12.0816 1.27032 12.0936 1.24968 12.0936 1.22997C12.0936 1.21026 12.1189 1.14659 12.1498 1.08847C12.4445 0.533651 12.3278 -0.00761961 11.9152 8.12044e-05C11.8383 0.00150616 11.7389 0.0136638 11.6945 0.0270947Z" fill="#21B396"/></svg>