<svg width="15" height="17" viewBox="0 0 15 17" fill="none" xmlns="http://www.w3.org/2000/svg"><path d="M10.3125 0.261719H1.875C0.840937 0.261719 0 1.18066 0 2.31063V8.45737C0 9.58735 0.840937 10.5063 1.875 10.5063V13.0674C1.875 13.2672 1.98187 13.4495 2.14781 13.5325C2.21062 13.5643 2.27719 13.5797 2.34375 13.5797C2.45344 13.5797 2.56219 13.5377 2.64844 13.4567L5.79844 10.5063H10.3125C11.3466 10.5063 12.1875 9.58735 12.1875 8.45737V2.31063C12.1875 1.18066 11.3466 0.261719 10.3125 0.261719Z" fill="#495FEA"/><path d="M13.125 3.33594V8.45822C13.125 10.1527 11.8631 11.5316 10.3125 11.5316H6.1453L4.08374 13.4617C4.27499 13.5334 4.47561 13.5805 4.68749 13.5805H9.20154L12.3506 16.5309C12.4378 16.6119 12.5465 16.6539 12.6562 16.6539C12.7228 16.6539 12.7903 16.6385 12.8522 16.6067C13.019 16.5238 13.125 16.3414 13.125 16.1416V13.5805C14.159 13.5805 15 12.6616 15 11.5316V5.38485C15 4.25487 14.159 3.33594 13.125 3.33594Z" fill="#495FEA"/></svg>