<svg width="16" height="16" viewBox="0 0 16 16" fill="none" xmlns="http://www.w3.org/2000/svg"><path d="M14.4306 10.1758C14.4634 10.2326 14.4847 10.2954 14.4933 10.3605C14.5019 10.4256 14.4975 10.4917 14.4805 10.5551C14.4635 10.6186 14.4342 10.678 14.3943 10.7301C14.3543 10.7822 14.3045 10.8259 14.2476 10.8587C14.1907 10.8916 14.128 10.9129 14.0629 10.9215C13.9978 10.93 13.9316 10.9257 13.8682 10.9087C13.8048 10.8917 13.7453 10.8624 13.6932 10.8224C13.6412 10.7825 13.5974 10.7326 13.5646 10.6758L12.4157 8.68586C11.7388 9.13921 10.9944 9.48258 10.2102 9.70326L10.5735 11.7635C10.5965 11.8941 10.5667 12.0285 10.4907 12.1371C10.4146 12.2458 10.2985 12.3198 10.1679 12.3428C10.1391 12.3479 10.1098 12.3504 10.0805 12.3504C9.96304 12.3503 9.8494 12.3088 9.75947 12.2332C9.66955 12.1577 9.60908 12.0529 9.58866 11.9372L9.23127 9.91053C8.41294 10.0301 7.58156 10.0298 6.76331 9.90968L6.40598 11.9364C6.38558 12.052 6.32511 12.1568 6.23519 12.2324C6.14527 12.308 6.03162 12.3495 5.91416 12.3496C5.88486 12.3496 5.85562 12.3471 5.82676 12.342C5.69617 12.319 5.58007 12.245 5.504 12.1364C5.42793 12.0278 5.39812 11.8934 5.42112 11.7628L5.78452 9.70167C5.00124 9.48065 4.25781 9.1372 3.58175 8.68406L2.42612 10.6856C2.39329 10.7425 2.34958 10.7923 2.29749 10.8323C2.2454 10.8723 2.18595 10.9016 2.12253 10.9186C2.05911 10.9356 1.99296 10.9399 1.92786 10.9313C1.86277 10.9228 1.8 10.9015 1.74314 10.8686C1.68628 10.8358 1.63644 10.7921 1.59647 10.74C1.5565 10.6879 1.52719 10.6285 1.5102 10.565C1.4932 10.5016 1.48887 10.4355 1.49744 10.3704C1.50602 10.3053 1.52732 10.2425 1.56016 10.1856L2.77874 8.07503C2.35372 7.70926 1.9629 7.30554 1.61112 6.86888C1.52779 6.76573 1.48884 6.63371 1.50285 6.50185C1.51686 6.36998 1.58268 6.24909 1.68583 6.16576C1.78897 6.08242 1.921 6.04348 2.05286 6.05749C2.18472 6.0715 2.30562 6.13732 2.38895 6.24046C2.77941 6.72633 3.22502 7.16516 3.7168 7.54814C3.72072 7.55095 3.72431 7.55403 3.72813 7.55693C4.94843 8.50631 6.45405 9.01491 8.0001 8.99998C9.54577 9.01489 11.051 8.50654 12.2712 7.55757C12.2745 7.5551 12.2775 7.55247 12.2809 7.55009C12.7736 7.16665 13.2201 6.72715 13.6112 6.24046C13.6946 6.13743 13.8154 6.07171 13.9472 6.05776C14.079 6.0438 14.211 6.08275 14.3141 6.16604C14.4172 6.24934 14.483 6.37016 14.497 6.50195C14.5111 6.63374 14.4722 6.76572 14.389 6.86888C14.0365 7.3064 13.6449 7.71084 13.2189 8.07719L14.4306 10.1758Z" fill="#B1B1B1"/></svg>