<svg width="15" height="13" viewBox="0 0 15 13" fill="none" xmlns="http://www.w3.org/2000/svg"><path d="M10.3125 0H1.875C0.840937 0 0 0.728812 0 1.625V6.5C0 7.39619 0.840937 8.125 1.875 8.125V10.1562C1.875 10.3147 1.98187 10.4593 2.14781 10.5251C2.21062 10.5503 2.27719 10.5625 2.34375 10.5625C2.45344 10.5625 2.56219 10.5292 2.64844 10.465L5.79844 8.125H10.3125C11.3466 8.125 12.1875 7.39619 12.1875 6.5V1.625C12.1875 0.728812 11.3466 0 10.3125 0Z" fill="#495FEA"/><path d="M13.1247 2.4375V6.5C13.1247 7.84387 11.8629 8.9375 10.3122 8.9375H6.14505L4.0835 10.4683C4.27475 10.5251 4.47537 10.5625 4.68724 10.5625H9.20129L12.3503 12.9025C12.4375 12.9667 12.5463 13 12.656 13C12.7225 13 12.79 12.9878 12.8519 12.9626C13.0188 12.8968 13.1247 12.7522 13.1247 12.5938V10.5625C14.1588 10.5625 14.9997 9.83369 14.9997 8.9375V4.0625C14.9997 3.16631 14.1588 2.4375 13.1247 2.4375Z" fill="#495FEA"/></svg>