<svg width="56" height="49" viewBox="0 0 56 49" fill="none" xmlns="http://www.w3.org/2000/svg"><path fill-rule="evenodd" clip-rule="evenodd" d="M26.5856 0.809131C26.3088 0.885476 25.8243 1.08841 25.5089 1.2601C24.4382 1.84289 23.9092 2.53698 21.5614 6.4395C17.53 13.1404 16.1628 15.4099 12.9418 20.7473C11.1836 23.6607 9.31809 26.7571 8.79635 27.6281C8.2745 28.4991 6.20064 31.9409 4.18772 35.2765C2.1747 38.6122 0.412659 41.6348 0.271875 41.9935C-0.0616815 42.8438 -0.0935736 44.4269 0.20536 45.2958C0.666594 46.6361 1.83688 47.85 3.19786 48.3996L3.82511 48.6528H27.908H51.9909L52.6204 48.3987C53.9122 47.8772 55.0565 46.7286 55.551 45.4571C55.744 44.9611 55.7957 44.602 55.7986 43.738C55.803 42.403 55.6286 41.9012 54.5268 40.0791C54.109 39.3883 52.8941 37.3732 51.8272 35.6011C50.7602 33.829 48.7447 30.4869 47.3484 28.1742C45.9522 25.8615 43.9375 22.5193 42.8714 20.7473C41.8053 18.9752 39.6428 15.3873 38.0656 12.7742C36.4886 10.1612 34.4795 6.82614 33.6011 5.36304C31.8956 2.52278 31.3279 1.8157 30.3069 1.25999C29.221 0.669003 27.7432 0.489992 26.5856 0.809131ZM28.4246 4.42342C28.651 4.51604 28.9138 4.70029 29.0085 4.833C29.1031 4.9657 30.4507 7.18766 32.0032 9.7707C33.5557 12.3537 35.3654 15.3518 36.0247 16.4331C36.684 17.5144 37.5286 18.9151 37.9015 19.5458C38.2744 20.1766 39.5757 22.3391 40.7934 24.3515C42.011 26.3639 44.0272 29.706 45.2737 31.7784C46.5202 33.8509 48.5594 37.2359 49.8053 39.3008C51.0512 41.3657 52.1172 43.2237 52.1741 43.4298C52.3038 43.8998 51.9723 44.6609 51.5364 44.8942C51.1028 45.1262 4.71318 45.1262 4.27957 44.8942C3.89326 44.6874 3.51263 43.8932 3.60296 43.4821C3.64075 43.3096 4.33735 42.0679 5.15093 40.7227C5.9645 39.3776 8.02056 35.967 9.71991 33.1437C11.4193 30.3203 13.8058 26.3639 15.0232 24.3515C16.2405 22.3391 17.5423 20.1766 17.9161 19.5458C18.2898 18.9151 19.4449 16.9983 20.4829 15.2863C21.5211 13.5743 23.3527 10.5394 24.5533 8.54209C25.7539 6.54479 26.8562 4.79062 27.0028 4.64394C27.2411 4.40562 27.4469 4.31781 27.8785 4.26997C27.9523 4.26178 28.1981 4.3308 28.4246 4.42342ZM26.8642 15.8121C26.2326 16.0304 25.9419 16.2733 25.6678 16.8119C25.4934 17.1545 25.4808 17.452 25.5368 19.9246C25.5928 22.3985 25.6896 24.9874 25.9238 30.2696C25.9943 31.8579 26.0322 32.1224 26.2188 32.3287C26.6011 32.751 27.0469 32.9111 27.8534 32.9157C28.7441 32.9206 29.4438 32.623 29.6949 32.1323C29.8085 31.9104 29.8814 30.8878 29.9769 28.1742C30.0477 26.1618 30.1509 23.6798 30.2062 22.6586C30.3472 20.0524 30.3385 17.1824 30.1885 16.8901C29.6321 15.8051 28.2144 15.3453 26.8642 15.8121ZM27.3927 35.3901C25.4129 35.7737 24.6966 38.4193 26.2021 39.7883C26.7777 40.3116 27.1428 40.4541 27.908 40.4536C28.701 40.4533 29.2865 40.2112 29.7796 39.6796C31.5014 37.8232 29.8794 34.9082 27.3927 35.3901Z" fill="#B80929"/></svg>