<svg width="17" height="16" viewBox="0 0 17 16" fill="none" xmlns="http://www.w3.org/2000/svg"><path fill-rule="evenodd" clip-rule="evenodd" d="M15.5926 0.0361263C15.3203 0.11839 14.8408 0.525623 14.5483 0.923115C14.4927 0.998668 14.4284 1.08032 14.4054 1.10458C14.3824 1.12887 14.2661 1.26696 14.147 1.41148C14.0279 1.556 13.9193 1.68333 13.9057 1.69445C13.892 1.70557 13.8312 1.78132 13.7705 1.86274C13.7098 1.94419 13.6361 2.03514 13.6066 2.06486C13.577 2.09461 13.3742 2.33719 13.1559 2.60399C12.7267 3.12842 12.4244 3.48718 12.3195 3.59694C12.283 3.63497 12.2376 3.69278 12.2184 3.7254C12.1992 3.75803 12.1074 3.87376 12.0145 3.98262C11.9214 4.09149 11.6961 4.36245 11.5137 4.58478C11.3313 4.80712 11.1052 5.07998 11.0112 5.19115C10.833 5.40184 10.4793 5.82961 9.96029 6.46208C9.91574 6.51633 9.81485 6.63457 9.73606 6.72484C9.65727 6.81511 9.3855 7.14364 9.13216 7.4549C8.87882 7.76617 8.61582 8.08584 8.54779 8.16528C8.29696 8.45807 8.05506 8.74783 7.85811 8.99139C7.74694 9.12887 7.23897 9.74364 6.7293 10.3576L5.88285 11.3771C5.84057 11.428 5.76292 11.4296 5.7187 11.3803C5.67253 11.3289 5.54382 11.1802 5.43266 11.0499C5.32149 10.9196 4.93305 10.4667 4.56948 10.0435C4.2059 9.62027 3.83299 9.18409 3.74078 9.07422C3.41282 8.68339 2.96496 8.1812 2.84551 8.07024C2.77881 8.00831 2.5878 7.88999 2.42105 7.80732C2.13537 7.66571 2.09572 7.65702 1.73384 7.65702C1.31363 7.65702 1.08066 7.72243 0.779909 7.92496C0.521638 8.09882 0.227633 8.45023 0.121074 8.71234C-0.0103447 9.03561 -0.0386011 9.51969 0.0551427 9.8422C0.12354 10.0775 0.379386 10.5128 0.565782 10.7109C0.61902 10.7675 0.771743 10.9399 0.905143 11.0939C1.03854 11.248 1.19547 11.429 1.25384 11.4963C1.39161 11.6551 2.17782 12.5771 2.3719 12.8076C2.45452 12.9057 2.54038 13.0058 2.56274 13.0299C2.58509 13.0541 2.71243 13.2012 2.84571 13.3568C2.97899 13.5125 3.09755 13.6489 3.10915 13.66C3.1208 13.6711 3.22085 13.7893 3.33149 13.9225C3.44217 14.0557 3.55612 14.1896 3.58474 14.2199C3.61336 14.2503 3.89253 14.5736 4.20513 14.9383C4.67818 15.4902 4.81861 15.6278 5.04244 15.7584C5.38294 15.957 5.65984 16.0215 6.05479 15.994C6.41557 15.9688 6.64971 15.8844 6.92835 15.6791C7.123 15.5356 7.39323 15.2652 7.39323 15.2139C7.39323 15.2003 7.4457 15.1134 7.50986 15.0208C7.61298 14.872 7.79824 14.5829 8.47268 13.5185C8.57132 13.3629 8.8008 13.0049 8.98267 12.7229C9.16458 12.4409 9.52044 11.886 9.77345 11.4899C10.0265 11.0938 10.2448 10.7606 10.2585 10.7495C10.2723 10.7384 10.304 10.6929 10.3289 10.6484C10.3539 10.604 10.5252 10.3311 10.7096 10.0421C11.0327 9.53562 11.1775 9.30977 11.8941 8.19483C12.0755 7.91255 12.4229 7.36916 12.6662 6.98736C12.9094 6.60555 13.1277 6.27189 13.1513 6.24589C13.1748 6.2199 13.2146 6.16294 13.2397 6.11933C13.3039 6.0078 13.7896 5.2441 14.177 4.64542C14.3569 4.3675 14.6601 3.89454 14.8509 3.59439C15.7088 2.24474 16.0562 1.71369 16.0893 1.7012C16.1088 1.69376 16.1249 1.66623 16.1249 1.63996C16.1249 1.61368 16.1585 1.52879 16.1997 1.4513C16.5926 0.711534 16.4371 -0.0101595 15.887 0.000108273C15.7844 0.00200821 15.6519 0.0182183 15.5926 0.0361263Z" fill="#21B396"/></svg>