<svg width="25" height="27" viewBox="0 0 25 27" fill="none" xmlns="http://www.w3.org/2000/svg">
<g clip-path="url(#clip0_849_73256)">
<path fill-rule="evenodd" clip-rule="evenodd" d="M12.4971 0.214844C5.5954 0.214844 0 5.99398 0 13.1223C0 20.2506 5.5954 26.0297 12.4971 26.0297C19.3987 26.0297 24.9941 20.2506 24.9941 13.1223C24.9941 5.99398 19.3987 0.214844 12.4971 0.214844ZM20.0144 17.0041C20.0144 19.1643 18.3133 20.9213 16.2218 20.9213H8.77237C6.68113 20.9213 4.97973 19.1643 4.97973 17.0041V9.31006C4.97973 7.15015 6.68113 5.39288 8.77237 5.39288H16.2218C18.3133 5.39288 20.0144 7.15015 20.0144 9.31006V17.0041ZM12.4971 10.8478C11.2646 10.8478 10.261 11.8838 10.261 13.1567C10.261 14.4302 11.2646 15.4665 12.4971 15.4665C13.7301 15.4665 14.7328 14.4302 14.7328 13.1567C14.7328 11.8841 13.7298 10.8478 12.4971 10.8478ZM8.77235 7.08304H16.2217C17.4111 7.08304 18.3784 8.08218 18.3784 9.31025V17.0043C18.3784 18.2326 17.4108 19.2318 16.2217 19.2318H8.77235C7.58332 19.2318 6.61594 18.2323 6.61594 17.0043V9.31025C6.61594 8.08218 7.58332 7.08304 8.77235 7.08304ZM8.62504 13.1573C8.62504 15.3626 10.3621 17.1567 12.497 17.1567C14.632 17.1567 16.3693 15.3623 16.3693 13.1573C16.3693 10.9522 14.6323 9.15811 12.497 9.15811C10.3621 9.15811 8.62504 10.9522 8.62504 13.1573ZM15.5774 9.03875C15.5774 9.56047 15.9884 9.98497 16.4938 9.98497C16.9989 9.98497 17.4099 9.56047 17.4099 9.03875C17.4099 8.51703 16.9989 8.09253 16.4938 8.09253C15.9884 8.09253 15.5774 8.51703 15.5774 9.03875Z" fill="url(#paint0_linear_849_73256)"/>
</g>
<defs>
<linearGradient id="paint0_linear_849_73256" x1="24.9941" y1="0.214844" x2="9.78544" y2="25.6031" gradientUnits="userSpaceOnUse">
<stop stop-color="#7E3DAC"/>
<stop offset="0.375" stop-color="#AD34AF"/>
<stop offset="0.619792" stop-color="#DA2F7B"/>
<stop offset="0.796875" stop-color="#E86C40"/>
<stop offset="1" stop-color="#FED372"/>
</linearGradient>
<clipPath id="clip0_849_73256">
<rect width="24.9941" height="25.8148" fill="white" transform="translate(0 0.214844)"/>
</clipPath>
</defs>
</svg>
