<svg width="20" height="20" viewBox="0 0 20 20" fill="none" xmlns="http://www.w3.org/2000/svg">
<g clip-path="url(#clip0_710_41745)">
<path d="M8.29169 15.2438L5.935 17.6005C4.95796 18.5776 3.37572 18.5776 2.39951 17.6007C1.42309 16.6243 1.42309 15.0419 2.39931 14.0657L7.11352 9.3515C8.08973 8.37524 9.67213 8.37524 10.6483 9.3515C10.9738 9.67693 11.5014 9.67693 11.8269 9.3515C12.1523 9.02607 12.1523 8.49841 11.8269 8.17298C10.1997 6.54586 7.56211 6.54586 5.935 8.17298L1.22083 12.8871C-0.406291 14.5143 -0.406291 17.1519 1.22083 18.779C2.84775 20.407 5.48558 20.407 7.11356 18.779L9.47025 16.4223C9.79568 16.0969 9.79568 15.5692 9.47025 15.2438C9.14482 14.9184 8.61712 14.9184 8.29169 15.2438Z" fill="black"/>
<path d="M18.78 1.22034C17.1528 -0.40678 14.5143 -0.40678 12.8872 1.22034L10.0597 4.04786C9.73428 4.37329 9.73428 4.90095 10.0597 5.22638C10.3851 5.55181 10.9128 5.55181 11.2382 5.22638L14.0658 2.39886C15.042 1.42261 16.6252 1.42261 17.6014 2.39886C18.5777 3.37508 18.5777 4.95747 17.6014 5.93369L12.4164 11.1188C11.4402 12.095 9.8578 12.095 8.88158 11.1188C8.55615 10.7933 8.02849 10.7933 7.70306 11.1188C7.37763 11.4442 7.37763 11.9718 7.70306 12.2973C9.33018 13.9244 11.9678 13.9244 13.5949 12.2973L18.78 7.11225C20.4071 5.48513 20.4071 2.84746 18.78 1.22034Z" fill="black"/>
</g>
<defs>
<clipPath id="clip0_710_41745">
<rect width="20" height="20" fill="white"/>
</clipPath>
</defs>
</svg>
