<svg width="54" height="40" viewBox="0 0 54 40" fill="none" xmlns="http://www.w3.org/2000/svg">
<path d="M46.6667 0H6.66667C2.985 0 0 2.985 0 6.66667V33.3333C0 37.015 2.985 40 6.66667 40H46.6667C50.3483 40 53.3333 37.015 53.3333 33.3333V6.66667C53.3333 2.985 50.3483 0 46.6667 0ZM35.6933 17.7897L49.8047 5.69656C49.9024 6.00906 50 6.32156 50 6.66667V33.3333C50 33.5645 49.9121 33.7696 49.8666 33.9876L35.6933 17.7897ZM46.6667 3.33333C46.888 3.33333 47.0833 3.41802 47.2917 3.46031L26.6667 21.1394L6.04167 3.46031C6.25 3.41802 6.44531 3.33333 6.66667 3.33333H46.6667ZM3.46521 33.9844C3.41958 33.7663 3.33333 33.5645 3.33333 33.3333V6.66667C3.33333 6.32156 3.4326 6.00906 3.53031 5.69656L17.6368 17.7865L3.46521 33.9844ZM6.66667 36.6667C6.32979 36.6667 6.02375 36.569 5.71615 36.4746L20.1693 19.9576L25.5827 24.5962C25.8935 24.8666 26.2809 25 26.6667 25C27.0524 25 27.4398 24.8666 27.7506 24.5964L33.1641 19.9577L47.6172 36.4747C47.3112 36.569 47.0052 36.6667 46.6667 36.6667H6.66667Z" fill="#B80929"/>
</svg>
