<svg width="20" height="20" viewBox="0 0 20 20" fill="none" xmlns="http://www.w3.org/2000/svg">
<path d="M17.7539 6.0918C18.8201 6.0918 19.6875 5.22438 19.6875 4.15821C19.6875 3.09203 18.8201 2.22461 17.7539 2.22461C16.6877 2.22461 15.8203 3.09203 15.8203 4.15821C15.8203 5.22438 16.6877 6.0918 17.7539 6.0918ZM17.7539 3.39649C18.1739 3.39649 18.5156 3.73821 18.5156 4.15821C18.5156 4.57821 18.1739 4.91993 17.7539 4.91993C17.3339 4.91993 16.9922 4.57821 16.9922 4.15821C16.9922 3.73821 17.3339 3.39649 17.7539 3.39649Z" fill="black"/>
<path d="M18.1771 11.3266C17.6207 11.3266 17.168 10.8739 17.168 10.3174V7.90029L12.8899 3.62217C12.0395 2.77182 10.6558 2.77174 9.80538 3.62217L7.4114 6.01619L8.24003 6.84482L10.634 4.4508C11.0275 4.05732 11.6678 4.05736 12.0612 4.4508L12.8042 5.19373L8.60913 9.38881L8.19483 9.80311L1.05054 16.9474L1.87917 17.776L9.02343 10.6318L11.6601 13.2685L12.7483 14.3567L7.55659 15.8816L7.88687 17.006L14.9734 14.9245L12.4888 12.4399L15.9961 8.93256V10.3174C15.9961 11.5201 16.9745 12.4985 18.1771 12.4985H20V11.3266H18.1771ZM13.6328 6.0224L15.4409 7.83049L11.6601 11.6112L9.85206 9.80311L13.6328 6.0224Z" fill="black"/>
<path d="M3.00781 3.71875H5.97656V4.89063H3.00781V3.71875Z" fill="black"/>
<path d="M0 6.0625H4.41406V7.23438H0V6.0625Z" fill="black"/>
<path d="M3.00781 8.40625H5.97656V9.57812H3.00781V8.40625Z" fill="black"/>
</svg>
