<svg width="20" height="15" viewBox="0 0 20 15" fill="none" xmlns="http://www.w3.org/2000/svg">
<path fill-rule="evenodd" clip-rule="evenodd" d="M1 2C1 1.44772 1.44772 1 2 1H18C18.5523 1 19 1.44772 19 2V4.33714C17.8176 4.89882 17 6.10317 17 7.5C17 8.89683 17.8176 10.1012 19 10.6629V13C19 13.5523 18.5523 14 18 14H2C1.44772 14 1 13.5523 1 13V10.6629C2.18242 10.1012 3 8.89683 3 7.5C3 6.10317 2.18242 4.89882 1 4.33714V2ZM20 2V5.05001C18.8589 5.28164 18 6.29052 18 7.5C18 8.70948 18.8589 9.71836 20 9.94999V13C20 14.1046 19.1046 15 18 15H2C0.895431 15 0 14.1046 0 13V9.94999C1.14112 9.71836 2 8.70948 2 7.5C2 6.29052 1.14112 5.28164 0 5.05001V2C0 0.89543 0.895431 0 2 0H18C19.1046 0 20 0.895431 20 2ZM13.3536 4.64645C13.1583 4.45118 12.8417 4.45118 12.6464 4.64645L6.64645 10.6464C6.45118 10.8417 6.45118 11.1583 6.64645 11.3536C6.84171 11.5488 7.15829 11.5488 7.35355 11.3536L13.3536 5.35355C13.5488 5.15829 13.5488 4.84171 13.3536 4.64645ZM7.5 6C7.77614 6 8 5.77614 8 5.5C8 5.22386 7.77614 5 7.5 5C7.22386 5 7 5.22386 7 5.5C7 5.77614 7.22386 6 7.5 6ZM7.5 7C8.32843 7 9 6.32843 9 5.5C9 4.67157 8.32843 4 7.5 4C6.67157 4 6 4.67157 6 5.5C6 6.32843 6.67157 7 7.5 7ZM13 10.5C13 10.7761 12.7761 11 12.5 11C12.2239 11 12 10.7761 12 10.5C12 10.2239 12.2239 10 12.5 10C12.7761 10 13 10.2239 13 10.5ZM14 10.5C14 11.3284 13.3284 12 12.5 12C11.6716 12 11 11.3284 11 10.5C11 9.67157 11.6716 9 12.5 9C13.3284 9 14 9.67157 14 10.5Z" fill="black"/>
</svg>
