<svg width="20" height="20" viewBox="0 0 20 20" fill="none" xmlns="http://www.w3.org/2000/svg">
<g clip-path="url(#clip0_1204_35387)">
<path d="M18.8643 8.52085C18.5556 8.29389 18.1722 8.0104 18.1217 7.82258C18.0669 7.61735 18.2626 7.16518 18.4208 6.80258C18.6913 6.17996 18.9713 5.53561 18.6608 4.99822C18.3469 4.45386 17.6417 4.37474 16.9608 4.29823C16.5721 4.25474 16.0887 4.20085 15.9443 4.05562C15.7991 3.91129 15.7452 3.42778 15.7017 3.03909C15.6252 2.35822 15.546 1.65387 15.0017 1.33908C14.5287 1.06431 13.8278 1.30431 13.1973 1.57908C12.8486 1.73038 12.4852 1.87471 12.1765 1.87822C11.9887 1.82865 11.7061 1.44432 11.4782 1.1356C11.0861 0.603464 10.6417 0 9.99998 0C9.3591 0 8.91391 0.603464 8.52171 1.13478C8.29389 1.44346 8.01126 1.82784 7.74517 1.88694C7.51124 1.88694 7.15125 1.73042 6.80258 1.57912C6.17042 1.30435 5.46868 1.06696 4.99911 1.33912C4.4539 1.65391 4.37478 2.35826 4.29823 3.03913C4.25564 3.42782 4.20085 3.91043 4.05648 4.05566C3.91125 4.20089 3.42778 4.25478 3.03994 4.29827C2.35822 4.37478 1.65297 4.45479 1.33908 4.99826C1.02864 5.53479 1.30863 6.17914 1.57908 6.80262C1.73735 7.16523 1.93386 7.61739 1.87907 7.82262C1.82865 8.01044 1.44428 8.29393 1.13645 8.52089C0.603464 8.91305 0 9.35824 0 9.99998C0 10.6417 0.603464 11.0869 1.13564 11.4791C1.44432 11.7061 1.8278 11.9896 1.87826 12.1774C1.93304 12.3826 1.73739 12.8348 1.57912 13.1974C1.30867 13.82 1.02868 14.4644 1.33912 15.0017C1.65302 15.5461 2.35826 15.6252 3.03913 15.7017C3.42782 15.7452 3.91129 15.7991 4.05566 15.9443C4.20089 16.0887 4.25478 16.5722 4.29827 16.9609C4.37478 17.6417 4.45394 18.3461 4.99826 18.6609C5.46957 18.9348 6.17042 18.6957 6.80262 18.4209C7.15133 18.2696 7.50782 18.1165 7.82347 18.1217C8.0113 18.1713 8.29389 18.5556 8.52175 18.8644C8.91391 19.3965 9.35828 20 10 20C10.6409 20 11.0861 19.3965 11.4774 18.8652C11.7052 18.5565 11.9878 18.1722 12.2539 18.1131C12.4887 18.1131 12.8487 18.2696 13.1965 18.4209C13.8296 18.6965 14.5304 18.9339 15 18.6617C15.5452 18.3469 15.6243 17.6426 15.7009 16.9609C15.7435 16.5722 15.7983 16.0896 15.9426 15.9443C16.0879 15.7991 16.5713 15.7452 16.9592 15.7017C17.6409 15.6252 18.3461 15.5452 18.66 15.0017C18.9713 14.4652 18.6913 13.8209 18.42 13.1974C18.2618 12.8348 18.0661 12.3835 18.1209 12.1774C18.1713 11.9896 18.5557 11.7061 18.8635 11.4791C19.3965 11.0869 20 10.6417 20 9.99998C20 9.35824 19.3965 8.91305 18.8643 8.52085ZM18.3496 10.7774C17.8878 11.1174 17.4104 11.4687 17.2817 11.9504C17.1487 12.4495 17.3904 13.0052 17.6243 13.5426C17.7739 13.8869 18 14.4069 17.9095 14.5643C17.8148 14.7287 17.2435 14.793 16.8643 14.8356C16.2869 14.9009 15.6895 14.9678 15.3295 15.3278C14.9695 15.6878 14.9026 16.2852 14.8383 16.8626C14.7957 17.2409 14.7313 17.813 14.5661 17.9078C14.5409 17.9226 14.4991 17.9261 14.4687 17.9261C14.2426 17.9261 13.8878 17.7713 13.5444 17.6226C13.0052 17.3887 12.4157 17.1557 11.9531 17.2809C11.4705 17.4096 11.1192 17.887 10.7783 18.3487C10.5487 18.66 10.2018 19.1304 10.0001 19.1304C9.79834 19.1304 9.45048 18.66 9.22181 18.3487C8.88183 17.8878 8.53051 17.4104 8.0479 17.2817C7.95313 17.2565 7.85139 17.2435 7.74444 17.2435C7.32966 17.2435 6.88532 17.4365 6.45574 17.6243C6.11315 17.773 5.75837 17.9278 5.53141 17.9278C5.50096 17.9278 5.45922 17.9243 5.43403 17.9095C5.26883 17.8139 5.20532 17.2426 5.16273 16.8643C5.09751 16.2869 5.03054 15.6895 4.67054 15.3295C4.3114 14.9695 3.71315 14.9026 3.13577 14.8374C2.75837 14.7948 2.18621 14.7304 2.09144 14.566C2.00013 14.4095 2.22709 13.8886 2.37664 13.5443C2.61057 13.0069 2.85228 12.4513 2.71924 11.9521C2.58966 11.4704 2.11227 11.1191 1.65143 10.7791C1.34013 10.5487 0.869673 10.2017 0.869673 9.99994C0.869673 9.79817 1.34009 9.45126 1.65143 9.22079C2.11316 8.88081 2.59056 8.52949 2.71924 8.04774C2.85228 7.54862 2.61053 6.99297 2.37664 6.45558C2.22795 6.11123 2.00099 5.59125 2.09144 5.43383C2.1871 5.26948 2.75841 5.20512 3.13667 5.16338C3.71405 5.09816 4.31144 5.03119 4.67144 4.67119C5.03144 4.31119 5.09841 3.7138 5.16362 3.13642C5.20536 2.75816 5.26972 2.18686 5.43493 2.09119C5.46016 2.0764 5.5019 2.07293 5.53231 2.07293C5.75841 2.07293 6.11319 2.2277 6.45578 2.37729C6.99493 2.61122 7.5836 2.84511 8.04709 2.71903C8.5297 2.59035 8.88101 2.11296 9.22186 1.65122C9.45142 1.33993 9.79838 0.869469 10.0001 0.869469C10.2018 0.869469 10.5497 1.33989 10.7792 1.65032C11.1192 2.11121 11.4705 2.5886 11.9532 2.71728C12.4123 2.83989 13.0053 2.61032 13.5445 2.37554C13.8871 2.22685 14.2418 2.07208 14.4688 2.07208C14.4992 2.07208 14.541 2.07554 14.5662 2.09034C14.7314 2.186 14.7949 2.75731 14.8375 3.13557C14.9027 3.71295 14.9697 4.31034 15.3297 4.67034C15.6888 5.03034 16.2871 5.09731 16.8644 5.16252C17.2418 5.20512 17.814 5.26948 17.9088 5.43383C18.0001 5.59035 17.7731 6.11123 17.6236 6.45558C17.3896 6.99297 17.1479 7.54862 17.281 8.04774C17.4105 8.52949 17.8879 8.88077 18.3488 9.22079C18.6601 9.45122 19.1305 9.79817 19.1305 9.99994C19.1305 10.2017 18.66 10.5487 18.3496 10.7774Z" fill="black"/>
<path d="M7.39115 7.82626C7.15115 7.82626 6.95635 8.02106 6.95635 8.26106V10.435L5.13026 8.00019C5.01809 7.85064 4.82158 7.78888 4.64505 7.84888C4.46766 7.90803 4.34766 8.07409 4.34766 8.26106V11.7393C4.34766 11.9793 4.54245 12.1741 4.78245 12.1741C5.02245 12.1741 5.21725 11.9793 5.21725 11.7393V9.56541L7.04333 12.0002C7.12681 12.1115 7.25725 12.1741 7.39115 12.1741C7.43725 12.1741 7.48331 12.1671 7.52855 12.1515C7.70594 12.0923 7.82594 11.9263 7.82594 11.7393V8.26106C7.82594 8.02106 7.63115 7.82626 7.39115 7.82626Z" fill="black"/>
<path d="M10.8697 11.3044H9.56539V8.69572H10.8697C11.1097 8.69572 11.3045 8.50093 11.3045 8.26093C11.3045 8.02093 11.1097 7.82617 10.8697 7.82617H9.1306C8.8906 7.82617 8.6958 8.02097 8.6958 8.26097V11.7392C8.6958 11.9792 8.8906 12.174 9.1306 12.174H10.8697C11.1097 12.174 11.3045 11.9792 11.3045 11.7392C11.3045 11.4992 11.1097 11.3044 10.8697 11.3044Z" fill="black"/>
<path d="M10.8697 9.56445H9.1306C8.8906 9.56445 8.6958 9.75925 8.6958 9.99925C8.6958 10.2392 8.8906 10.434 9.1306 10.434H10.8697C11.1097 10.434 11.3045 10.2392 11.3045 9.99921C11.3045 9.75921 11.1097 9.56445 10.8697 9.56445Z" fill="black"/>
<path d="M16.1914 7.8396C15.9566 7.78135 15.7218 7.92222 15.6644 8.15611L15.1575 10.1857L14.7601 8.9935C14.6419 8.63872 14.054 8.63872 13.9349 8.9935L13.5375 10.1857L13.0306 8.15611C12.9723 7.92218 12.7323 7.78046 12.5036 7.8396C12.2706 7.89785 12.1297 8.13353 12.1871 8.36656L13.0567 11.8448C13.1036 12.0318 13.2688 12.1665 13.4619 12.1735C13.6801 12.1822 13.8306 12.0596 13.8915 11.877L14.348 10.5056L14.8045 11.877C14.8645 12.0552 15.0306 12.1743 15.2175 12.1743C15.2227 12.1743 15.2288 12.1743 15.2332 12.1735C15.4262 12.1665 15.5914 12.0326 15.6384 11.8448L16.5079 8.36656C16.5661 8.13353 16.4253 7.89785 16.1914 7.8396Z" fill="black"/>
</g>
<defs>
<clipPath id="clip0_1204_35387">
<rect width="20" height="20" fill="white"/>
</clipPath>
</defs>
</svg>
