<svg width="101" height="73" viewBox="0 0 101 73" fill="none" xmlns="http://www.w3.org/2000/svg">
<rect x="0.944092" y="0.148438" width="99.9767" height="72.2816" rx="7.78414" fill="white"/>
<path fill-rule="evenodd" clip-rule="evenodd" d="M21.5563 25.9665C22.1955 25.9624 24.0949 25.7773 24.8994 28.7149C25.4414 30.6937 26.3047 33.935 27.4894 38.439H27.9718C29.2423 33.6906 30.115 30.4492 30.59 28.7149C31.403 25.7467 33.4353 25.9666 34.2483 25.9666L40.5203 25.9666V47.0737H34.1277V34.6349H33.699L30.1354 47.0737H25.3258L21.7622 34.6257H21.3335V47.0737H14.9409V25.9666L21.5563 25.9665ZM49.7 25.9666V38.4146H50.21L54.5447 28.1787C55.3862 26.1417 57.1796 25.9666 57.1796 25.9666H63.3657V47.0737H56.8396V34.6257H56.3296L52.0799 44.8616C51.2384 46.8894 49.36 47.0737 49.36 47.0737H43.1739V25.9666H49.7ZM85.923 35.9968C85.0126 38.7876 82.1539 40.7862 78.9888 40.7862H72.1448V47.0737H65.9389V35.9968H85.923Z" fill="#0F754E"/>
<path fill-rule="evenodd" clip-rule="evenodd" d="M79.2879 25.9668H65.6133C65.9387 30.666 69.6794 34.6888 73.5518 34.6888H86.354C87.0927 30.7832 84.5495 25.9668 79.2879 25.9668Z" fill="url(#paint0_linear_849_73142)"/>
<defs>
<linearGradient id="paint0_linear_849_73142" x1="86.4795" y1="31.4533" x2="65.6133" y2="31.4533" gradientUnits="userSpaceOnUse">
<stop stop-color="#1F5CD7"/>
<stop offset="1" stop-color="#02AEFF"/>
</linearGradient>
</defs>
</svg>
