<svg width="101" height="73" viewBox="0 0 101 73" fill="none" xmlns="http://www.w3.org/2000/svg">
<rect x="0.972168" y="0.148438" width="99.9767" height="72.2816" rx="7.78414" fill="white"/>
<path fill-rule="evenodd" clip-rule="evenodd" d="M51.0719 50.5575C48.0951 53.1781 44.2337 54.7601 40.0143 54.7601C30.5995 54.7601 22.9673 46.8839 22.9673 37.1681C22.9673 27.4524 30.5995 19.5762 40.0143 19.5762C44.2337 19.5762 48.0951 21.1581 51.0719 23.7787C54.0486 21.1581 57.91 19.5762 62.1294 19.5762C71.5442 19.5762 79.1764 27.4523 79.1764 37.1681C79.1764 46.8839 71.5442 54.76 62.1294 54.76C57.91 54.76 54.0486 53.1781 51.0719 50.5575Z" fill="#ED0006"/>
<path fill-rule="evenodd" clip-rule="evenodd" d="M51.0715 50.5577C54.7369 47.331 57.0611 42.5296 57.0611 37.1681C57.0611 31.8066 54.7369 27.0053 51.0715 23.7786C54.0483 21.1581 57.9096 19.5762 62.129 19.5762C71.5438 19.5762 79.176 27.4524 79.176 37.1681C79.176 46.8839 71.5438 54.7601 62.129 54.7601C57.9096 54.7601 54.0483 53.1781 51.0715 50.5577Z" fill="#F9A000"/>
<path fill-rule="evenodd" clip-rule="evenodd" d="M51.0719 50.5561C54.7372 47.3294 57.0613 42.5282 57.0613 37.1667C57.0613 31.8053 54.7372 27.004 51.0719 23.7773C47.4066 27.004 45.0825 31.8053 45.0825 37.1667C45.0825 42.5282 47.4066 47.3294 51.0719 50.5561Z" fill="#FF5E00"/>
</svg>
