<svg width="20" height="20" viewBox="0 0 20 20" fill="none" xmlns="http://www.w3.org/2000/svg">
<g clip-path="url(#clip0_710_41732)">
<path d="M9.99992 0C7.24247 0 5 2.24246 5 4.99992C5 7.75738 7.24247 9.99984 9.99992 9.99984C12.7574 9.99984 14.9998 7.75738 14.9998 4.99992C14.9998 2.24246 12.7574 0 9.99992 0ZM9.99992 7.49988C8.62119 7.49988 7.49996 6.37865 7.49996 4.99992C7.49996 3.62119 8.62119 2.49996 9.99992 2.49996C11.3787 2.49996 12.4999 3.62119 12.4999 4.99992C12.4999 6.37865 11.3787 7.49988 9.99992 7.49988Z" fill="#EE8108"/>
<path d="M16.63 9.86119C16.1412 9.37244 15.3513 9.37244 14.8625 9.86119C12.1826 12.5412 7.82012 12.5412 5.13891 9.86119C4.65017 9.37244 3.86018 9.37244 3.37144 9.86119C2.8827 10.3499 2.8827 11.1399 3.37144 11.6299C4.92641 13.1849 6.89763 14.0711 8.9301 14.3024L5.36641 17.8661C4.87767 18.3548 4.87767 19.1448 5.36641 19.6336C5.85515 20.1223 6.64514 20.1223 7.13388 19.6336L10.0001 16.7673L12.8663 19.6336C13.11 19.8773 13.43 19.9998 13.75 19.9998C14.07 19.9998 14.39 19.8773 14.6338 19.6336C15.1225 19.1448 15.1225 18.3548 14.6338 17.8661L11.0701 14.3024C13.1025 14.0711 15.0738 13.1849 16.6287 11.6299C17.1175 11.1412 17.1175 10.3499 16.63 9.86119Z" fill="#EE8108"/>
</g>
<defs>
<clipPath id="clip0_710_41732">
<rect width="20" height="20" fill="white"/>
</clipPath>
</defs>
</svg>
