<svg width="40" height="40" viewBox="0 0 40 40" fill="none" xmlns="http://www.w3.org/2000/svg">
<path fill-rule="evenodd" clip-rule="evenodd" d="M8.94091 0.252615C6.61713 0.732189 4.27188 2.16801 2.58043 4.14677C1.12962 5.84418 0 8.94012 0 11.2188C0 14.8551 3.22912 21.6774 7.37549 26.8015C8.80995 28.5744 12.3184 31.9888 14.0595 33.3066C19.2218 37.2138 25.3498 40 28.7812 40C31.0599 40 34.1558 38.8704 35.8532 37.4196C37.8758 35.6907 39.278 33.3647 39.7603 30.9385C40.2293 28.5786 40.0349 27.7377 38.9611 27.4854C36.9302 27.0084 29.7237 25.5242 29.4379 25.5242C29.1986 25.5242 28.4072 26.1736 27.1797 27.377L25.29 29.2297L23.7982 28.3562C21.0944 26.7732 19.1911 25.3008 16.9452 23.0548C14.6992 20.8089 13.2268 18.9056 11.6438 16.2018L10.7703 14.71L12.623 12.8203C13.8264 11.5928 14.4758 10.8014 14.4758 10.5621C14.4758 10.2763 12.9916 3.06977 12.5146 1.0389C12.263 -0.0319611 11.3223 -0.238879 8.94091 0.252615ZM11.1019 6.23741L11.8955 9.9415L9.94979 11.9158C8.54428 13.3421 8.0051 14.0039 8.00748 14.3001C8.0114 14.7946 9.32665 17.311 10.5976 19.2554C13.1529 23.165 16.835 26.8472 20.7446 29.4024C22.689 30.6733 25.2054 31.9886 25.6999 31.9925C25.9963 31.9949 26.6575 31.4557 28.0842 30.049L30.0585 28.1025L33.72 28.8843C35.7339 29.3143 37.413 29.6917 37.4515 29.7229C37.6092 29.8511 37.0704 31.7119 36.6099 32.6295C35.5845 34.6721 33.7183 36.2733 31.4398 37.0657C30.369 37.4381 30.0285 37.4768 28.4422 37.4061C26.368 37.3138 24.9659 36.8426 21.4837 35.0673C13.1406 30.8137 6.71369 23.6897 3.2722 14.8803C2.76027 13.5698 2.66184 13.088 2.59389 11.5578C2.52321 9.97147 2.56187 9.63104 2.93432 8.56017C3.89807 5.78866 5.97628 3.71743 8.65106 2.86217C10.3912 2.30579 10.2046 2.04863 11.1019 6.23741Z" fill="#B80929"/>
</svg>
