<svg width="174" height="168" viewBox="0 0 174 168" fill="none" xmlns="http://www.w3.org/2000/svg">
<circle cx="80" cy="80" r="80" fill="white"/>
<circle cx="80" cy="80" r="79.5" stroke="#495FEA"/>
<path d="M101.819 72.7297C103.827 72.7297 105.455 71.1017 105.455 69.0934C105.455 67.0851 103.827 65.457 101.819 65.457C99.8107 65.457 98.1826 67.0851 98.1826 69.0934C98.1826 71.1017 99.8107 72.7297 101.819 72.7297Z" fill="#495FEA"/>
<path d="M61.0093 56.3667C61.4566 56.3667 61.8166 56.043 61.8166 55.6395V53.4577C61.8166 53.0577 61.4566 52.7305 61.0093 52.7305H55.3511C54.9039 52.7305 54.5439 53.0541 54.5439 53.4577V55.6395C54.5439 56.0395 54.9039 56.3667 55.3511 56.3667H61.0093Z" fill="#495FEA"/>
<path d="M81.8197 98.1806C90.8561 98.1806 98.1834 90.8531 98.1834 81.8169C98.1834 72.7804 90.8561 65.4531 81.8197 65.4531C72.7834 65.4531 65.4561 72.7804 65.4561 81.8169C65.4561 90.8531 72.7834 98.1806 81.8197 98.1806ZM81.8197 69.0896C88.8487 69.0896 94.5469 74.7878 94.5469 81.8169C94.5469 88.8458 88.8487 94.5441 81.8197 94.5441C74.7907 94.5441 69.0924 88.8458 69.0924 81.8169C69.0924 74.7878 74.7907 69.0896 81.8197 69.0896Z" fill="#495FEA"/>
<path d="M40 65.4555V101.819C40 109.092 47.2727 109.092 47.2727 109.092H112.727C112.727 109.092 120 109.092 120 101.819V65.4555C120 58.1828 112.727 58.1828 112.727 58.1828H98.909L95.0472 51.7502C94.7709 51.2847 94.1018 50.9102 93.5782 50.9102H70.0582C69.5237 50.9102 68.8582 51.2993 68.589 51.7502L64.7272 58.1828H47.2727C47.2727 58.1827 40 58.1827 40 65.4555ZM67.1782 61.8192L71.229 54.5464H92.0582L96.6654 61.8192H112.687C112.687 61.8192 116.364 61.8192 116.364 65.521V101.75C116.364 105.456 112.687 105.456 112.687 105.456H47.3127C47.3127 105.456 43.6363 105.456 43.6363 101.75V65.521C43.6363 61.8192 47.3127 61.8192 47.3127 61.8192H67.1782Z" fill="#495FEA"/>
<circle cx="144" cy="138" r="24.375" fill="white"/>
<path d="M144 162.375C139.179 162.375 134.466 160.945 130.458 158.267C126.45 155.589 123.325 151.782 121.48 147.328C119.636 142.874 119.153 137.973 120.093 133.245C121.034 128.516 123.355 124.173 126.764 120.764C130.173 117.355 134.516 115.034 139.245 114.093C143.973 113.153 148.874 113.636 153.328 115.48C157.782 117.325 161.589 120.45 164.267 124.458C166.945 128.466 168.375 133.179 168.375 138C168.375 144.465 165.807 150.665 161.236 155.236C156.665 159.807 150.465 162.375 144 162.375ZM144 117.375C139.921 117.375 135.933 118.585 132.541 120.851C129.15 123.117 126.506 126.338 124.945 130.107C123.384 133.876 122.975 138.023 123.771 142.024C124.567 146.025 126.531 149.7 129.416 152.584C132.3 155.469 135.975 157.433 139.976 158.229C143.977 159.025 148.124 158.616 151.893 157.055C155.662 155.494 158.883 152.85 161.149 149.459C163.415 146.067 164.625 142.079 164.625 138C164.625 132.53 162.452 127.284 158.584 123.416C154.716 119.548 149.47 117.375 144 117.375Z" fill="#495FEA"/>
<path d="M144 151.125C143.503 151.125 143.026 150.927 142.674 150.576C142.323 150.224 142.125 149.747 142.125 149.25V126.75C142.125 126.253 142.323 125.776 142.674 125.424C143.026 125.073 143.503 124.875 144 124.875C144.497 124.875 144.974 125.073 145.326 125.424C145.677 125.776 145.875 126.253 145.875 126.75V149.25C145.875 149.747 145.677 150.224 145.326 150.576C144.974 150.927 144.497 151.125 144 151.125Z" fill="#495FEA"/>
<path d="M155.25 139.875H132.75C132.253 139.875 131.776 139.677 131.424 139.326C131.073 138.974 130.875 138.497 130.875 138C130.875 137.503 131.073 137.026 131.424 136.674C131.776 136.323 132.253 136.125 132.75 136.125H155.25C155.747 136.125 156.224 136.323 156.576 136.674C156.927 137.026 157.125 137.503 157.125 138C157.125 138.497 156.927 138.974 156.576 139.326C156.224 139.677 155.747 139.875 155.25 139.875Z" fill="#495FEA"/>
</svg>
