<svg width="40" height="40" viewBox="0 0 40 40" fill="none" xmlns="http://www.w3.org/2000/svg">
<g clip-path="url(#clip0_1216_21714)">
<path d="M38.4669 16.6806H31.3062V11.4392C31.3062 5.17457 26.2098 0.078125 19.9451 0.078125C13.6807 0.078125 8.584 5.17457 8.584 11.4392V16.6806H1.37696C0.574647 16.6806 -0.078125 17.3334 -0.078125 18.136V35.8222C-0.078125 38.1263 1.79657 40.001 4.10096 40.001H35.7429C38.0472 40.001 39.9219 38.1263 39.9219 35.8222V18.136C39.9219 17.3334 39.2692 16.6806 38.4669 16.6806ZM10.9281 11.4392C10.9281 6.46699 14.9729 2.42218 19.9451 2.42218C24.917 2.42218 28.9622 6.46699 28.9622 11.4392V16.6806H10.9281V11.4392ZM37.5779 35.8222C37.5779 36.8339 36.7548 37.6572 35.7429 37.6572H4.10096C3.08899 37.6572 2.26593 36.8339 2.26593 35.8222V19.0247H37.5779V35.8222Z" fill="#B8C0EE"/>
<path d="M12.8316 26.4434C12.7327 26.4434 12.6399 26.4617 12.5539 26.499L10.5897 27.1658L10.6639 25.2389C10.6514 24.9426 10.5543 24.7201 10.3724 24.5721C10.1906 24.4238 9.96656 24.3496 9.70045 24.3496C9.42213 24.3496 9.19172 24.4271 9.01014 24.5812C8.82795 24.736 8.7306 24.9551 8.71839 25.2389L8.81117 27.1289L6.84339 26.499C6.75611 26.4617 6.66211 26.4434 6.56232 26.4434C6.27484 26.4434 6.03101 26.5484 5.83142 26.7584C5.63153 26.9683 5.53174 27.203 5.53174 27.4624C5.53174 28.0059 5.7417 28.3209 6.16162 28.4072L8.08851 28.963L6.86567 30.7046C6.71765 30.8779 6.6435 31.0754 6.6435 31.2976C6.6435 31.582 6.77381 31.8136 7.03473 31.9925C7.29566 32.1716 7.55689 32.261 7.81782 32.261C8.11597 32.261 8.33356 32.1499 8.46998 31.9275L9.70045 30.0561L10.8861 31.9091C11.0344 32.1438 11.2688 32.261 11.5901 32.261C11.8742 32.261 12.1336 32.1655 12.3683 31.9738C12.6027 31.7825 12.7205 31.5448 12.7205 31.2606C12.7205 31.026 12.6707 30.8468 12.5722 30.7232L11.2752 28.8519L13.1651 28.4072C13.5847 28.3209 13.795 28.0493 13.795 27.5921C13.795 27.308 13.7022 27.0455 13.517 26.8048C13.3321 26.5637 13.1032 26.4434 12.8316 26.4434Z" fill="#B8C0EE"/>
<path d="M23.0401 26.4434C22.9412 26.4434 22.8484 26.4617 22.7623 26.499L20.7982 27.1658L20.8724 25.2389C20.8599 24.9426 20.7625 24.7201 20.5809 24.5721C20.3991 24.4238 20.1751 24.3496 19.9089 24.3496C19.6303 24.3496 19.4002 24.4271 19.2183 24.5812C19.0364 24.736 18.9391 24.9551 18.9269 25.2389L19.0197 27.1289L17.0519 26.499C16.9643 26.4617 16.8706 26.4434 16.7708 26.4434C16.4833 26.4434 16.2395 26.5484 16.0399 26.7584C15.84 26.9683 15.7402 27.203 15.7402 27.4624C15.7402 28.0059 15.9499 28.3209 16.3701 28.4072L18.297 28.963L17.0742 30.7046C16.9262 30.8779 16.852 31.0754 16.852 31.2976C16.852 31.582 16.9823 31.8136 17.2432 31.9925C17.5042 32.1716 17.7654 32.261 18.0263 32.261C18.3245 32.261 18.5421 32.1499 18.6785 31.9275L19.9089 30.0561L21.0946 31.9091C21.2429 32.1438 21.4772 32.261 21.7986 32.261C22.0827 32.261 22.3421 32.1655 22.5768 31.9738C22.8112 31.7825 22.9287 31.5448 22.9287 31.2606C22.9287 31.026 22.8792 30.8468 22.7807 30.7232L21.4837 28.8519L23.3736 28.4072C23.7932 28.3209 24.0035 28.0493 24.0035 27.5921C24.0035 27.308 23.9107 27.0455 23.7255 26.8048C23.5405 26.5637 23.3117 26.4434 23.0401 26.4434Z" fill="#B8C0EE"/>
<path d="M31.0814 25.2389C31.0689 24.9426 30.9715 24.7201 30.7899 24.5721C30.608 24.4238 30.384 24.3496 30.1179 24.3496C29.8393 24.3496 29.6092 24.4271 29.4273 24.5812C29.2454 24.736 29.1481 24.9551 29.1359 25.2389L29.2286 27.1289L27.2609 26.499C27.1733 26.4617 27.0796 26.4434 26.9798 26.4434C26.6923 26.4434 26.4485 26.5484 26.2489 26.7584C26.049 26.9683 25.9492 27.203 25.9492 27.4624C25.9492 28.0059 26.1589 28.3209 26.5791 28.4072L28.506 28.963L27.2831 30.7046C27.1351 30.8779 27.061 31.0754 27.061 31.2976C27.061 31.582 27.191 31.8136 27.4522 31.9925C27.7131 32.1716 27.9744 32.261 28.2353 32.261C28.5335 32.261 28.7507 32.1499 28.8875 31.9275L30.1179 30.0561L31.3035 31.9091C31.4519 32.1438 31.6862 32.261 32.0076 32.261C32.2917 32.261 32.5511 32.1655 32.7858 31.9738C33.0202 31.7825 33.1377 31.5448 33.1377 31.2606C33.1377 31.026 33.0882 30.8468 32.9896 30.7232L31.6926 28.8519L33.5826 28.4072C34.0022 28.3209 34.2125 28.0493 34.2125 27.5921C34.2125 27.308 34.1197 27.0455 33.9345 26.8048C33.7492 26.5637 33.5207 26.4434 33.249 26.4434C33.1502 26.4434 33.0574 26.4617 32.971 26.499L31.0072 27.1658L31.0814 25.2389Z" fill="#B8C0EE"/>
</g>
<defs>
<clipPath id="clip0_1216_21714">
<rect width="40" height="40" fill="white"/>
</clipPath>
</defs>
</svg>
