<svg width="40" height="40" viewBox="0 0 40 40" fill="none" xmlns="http://www.w3.org/2000/svg">
<path d="M7.61572 28.8219H32.3844V11.1797H7.61572V28.8219ZM9.95947 26.4781V24.5653L16.2064 19.6474L23.104 25.5263L24.6244 23.7426L22.8098 22.1962L26.0471 19.6474L30.0407 23.0513V26.4781H9.95947ZM30.0407 13.5234V19.9718L26.106 16.6182L20.9907 20.6456L16.2656 16.6182L9.95978 21.5825V13.5234H30.0407Z" fill="#B8C0EE"/>
<path d="M22.3923 16.375C22.3923 17.0223 21.8674 17.5469 21.2205 17.5469C20.5732 17.5469 20.0486 17.0223 20.0486 16.375C20.0486 15.728 20.5732 15.2031 21.2205 15.2031C21.8674 15.2031 22.3923 15.728 22.3923 16.375Z" fill="#B8C0EE"/>
<path d="M40 7.92969V0H32.0703V2.79297H7.92969V0H0V7.92969H2.79297V32.0703H0V40H7.92969V37.207H32.0703V40H40V32.0703H37.207V7.92969H40ZM34.4141 2.34375H37.6562V5.58594H34.4141V2.34375ZM2.34375 2.34375H5.58594V5.58594H2.34375V2.34375ZM5.58594 37.6562H2.34375V34.4141H5.58594V37.6562ZM37.6562 37.6562H34.4141V34.4141H37.6562V37.6562ZM34.8633 32.0703H32.0703V34.8633H7.92969V32.0703H5.13672V7.92969H7.92969V5.13672H32.0703V7.92969H34.8633V32.0703Z" fill="#B8C0EE"/>
</svg>
