<svg width="40" height="40" viewBox="0 0 40 40" fill="none" xmlns="http://www.w3.org/2000/svg">
<g clip-path="url(#clip0_1216_40759)">
<path d="M20 21.2637C19.3528 21.2637 18.8281 21.7884 18.8281 22.4355V31.2545C18.8281 31.9017 19.3528 32.4264 20 32.4264C20.6472 32.4264 21.1719 31.9017 21.1719 31.2545V22.4355C21.1719 21.7884 20.6472 21.2637 20 21.2637Z" fill="#B8C0EE"/>
<path d="M13.7789 22.3391C13.7255 21.6941 13.1596 21.2145 12.5144 21.2677C11.8694 21.3211 11.3897 21.8872 11.443 22.5322L12.1718 31.3511C12.2252 31.9963 12.7913 32.4758 13.4363 32.4225C14.0813 32.3692 14.561 31.8031 14.5077 31.1581L13.7789 22.3391Z" fill="#B8C0EE"/>
<path d="M27.4856 21.2677C26.8404 21.2143 26.2745 21.6941 26.2212 22.3391L25.4923 31.1581C25.439 31.8031 25.9187 32.3692 26.5637 32.4226C26.5965 32.4253 26.6292 32.4266 26.6615 32.4266C27.2651 32.4266 27.7776 31.9634 27.8282 31.3512L28.557 22.5322C28.6104 21.8872 28.1306 21.3211 27.4856 21.2677Z" fill="#B8C0EE"/>
<path d="M38.8282 15.8861C36.5103 15.8861 36.8129 15.8861 35.5172 15.8861L29.7828 2.89586C29.5954 2.47117 29.1749 2.19727 28.7107 2.19727H25.9056C25.2584 2.19727 24.7338 2.72195 24.7338 3.36914C24.7338 4.01633 25.2584 4.54102 25.9056 4.54102H27.947L32.9552 15.8862H7.045L12.0531 4.54102H14.0945C14.7417 4.54102 15.2664 4.01633 15.2664 3.36914C15.2664 2.72195 14.7417 2.19727 14.0945 2.19727H11.2895C10.8253 2.19727 10.4048 2.47125 10.2173 2.89586L4.48297 15.8861C3.01453 15.8861 4.72836 15.8861 1.17188 15.8861C0.524687 15.8861 0 16.4108 0 17.058C0 17.7052 0.524687 18.2298 1.17188 18.2298H2.40039L5.30523 36.8134C5.39437 37.3838 5.8857 37.8044 6.46305 37.8044H33.537C34.1144 37.8044 34.6057 37.3839 34.6948 36.8134L37.5997 18.2298H38.8282C39.4754 18.2298 40.0001 17.7052 40.0001 17.058C40.0001 16.4108 39.4754 15.8861 38.8282 15.8861ZM32.5341 35.4606H7.46602L4.77266 18.2298H35.2275L32.5341 35.4606Z" fill="#B8C0EE"/>
</g>
<defs>
<clipPath id="clip0_1216_40759">
<rect width="40" height="40" fill="white"/>
</clipPath>
</defs>
</svg>
