<svg width="16" height="16" viewBox="0 0 16 16" fill="none" xmlns="http://www.w3.org/2000/svg">
<g clip-path="url(#clip0_739_43371)">
<path d="M13.3492 2.69668C11.9326 1.28015 10.0492 0.5 8.0459 0.5C6.04258 0.5 4.15917 1.28015 2.74258 2.69668C1.32604 4.11327 0.545898 5.99668 0.545898 8C0.545898 10.0033 1.32604 11.8867 2.74258 13.3033C4.15917 14.7199 6.04258 15.5 8.0459 15.5C10.0492 15.5 11.9326 14.7199 13.3492 13.3033C14.7658 11.8867 15.5459 10.0033 15.5459 8C15.5459 5.99668 14.7658 4.11327 13.3492 2.69668ZM8.0459 14.6211C4.39501 14.6211 1.4248 11.6509 1.4248 8C1.4248 4.34911 4.39501 1.37891 8.0459 1.37891C11.6968 1.37891 14.667 4.34911 14.667 8C14.667 11.6509 11.6968 14.6211 8.0459 14.6211Z" fill="#B1B1B1"/>
<path d="M8.0459 12.4629C8.2886 12.4629 8.48535 12.2661 8.48535 12.0234C8.48535 11.7807 8.2886 11.584 8.0459 11.584C7.8032 11.584 7.60645 11.7807 7.60645 12.0234C7.60645 12.2661 7.8032 12.4629 8.0459 12.4629Z" fill="#B1B1B1"/>
<path d="M8.10067 3.53767C6.62224 3.50708 5.37305 4.73231 5.37305 6.20978H6.25195C6.25195 5.22277 7.09518 4.39569 8.08295 4.4164C9.01811 4.43524 9.78858 5.18081 9.83701 6.11377C9.88928 7.12071 9.05253 8.00357 8.04571 8.00357H7.60626V10.7783H8.48517V8.84697C9.81117 8.62988 10.784 7.40398 10.7147 6.06822C10.6426 4.67732 9.49433 3.56574 8.10067 3.53767Z" fill="#B1B1B1"/>
</g>
<defs>
<clipPath id="clip0_739_43371">
<rect width="15" height="15" fill="white" transform="translate(0.545898 0.5)"/>
</clipPath>
</defs>
</svg>
