<svg width="40" height="40" viewBox="0 0 40 40" fill="none" xmlns="http://www.w3.org/2000/svg">
<path d="M20.1016 0C9.21875 0 0.367188 8.85156 0.367188 19.7344C0.367188 23.9766 1.69531 28.0156 4.20312 31.4141C4.07812 32.3594 3.82812 33.2578 3.4375 34.0938C2.85938 35.3281 2.13281 36.1094 1.60156 36.6797C1.00781 37.3125 0.398437 37.9766 0.734375 38.8203C1.07031 39.6797 2.24219 39.9766 3.72656 39.9766C5.1875 39.9766 6.94531 39.6875 8.52344 39.3438C9.90625 39.0391 11.2734 38.6172 12.5781 38.0859C12.625 38.0703 12.6641 38.0469 12.7031 38.0156C15.0469 38.9688 17.5313 39.4531 20.0938 39.4531C25.0703 39.4531 29.8203 37.5938 33.4688 34.2266C33.8125 33.9062 33.8359 33.3672 33.5156 33.0156C33.1953 32.6719 32.6562 32.6484 32.3047 32.9688C28.9687 36.0469 24.6328 37.7422 20.0859 37.7422C17.6094 37.7422 15.2109 37.25 12.9531 36.2734C12.6094 36.125 12.2266 36.2188 11.9922 36.4766C11.9688 36.4844 11.9531 36.4844 11.9297 36.4922C10.7109 36.9844 9.44531 37.375 8.14844 37.6562C5.61719 38.2109 3.375 38.3516 2.52344 38.1719C2.61719 38.0625 2.73438 37.9375 2.84375 37.8203C3.42188 37.2031 4.28906 36.2656 4.97656 34.7891C5.49219 33.6953 5.8125 32.5 5.9375 31.2422C5.96094 30.9844 5.86719 30.7422 5.69531 30.5625C5.67969 30.5391 5.67188 30.5078 5.64844 30.4844C3.30469 27.3516 2.0625 23.6172 2.0625 19.6953C2.0625 9.75781 10.1484 1.67188 20.0859 1.67188C30.0234 1.67188 38.125 9.79688 38.125 19.7344C38.125 23.1016 37.1875 26.3828 35.4219 29.2344C35.1719 29.6328 35.2969 30.1641 35.6953 30.4141C36.0938 30.6641 36.625 30.5391 36.875 30.1406C38.8125 27.0234 39.8359 23.4297 39.8359 19.7422C39.8359 8.85156 30.9844 0 20.1016 0Z" fill="#495FEA"/>
<path d="M27.4453 13.2344C27.3047 9.57814 24.3359 6.60939 20.6797 6.46877C18.7422 6.39064 16.9141 7.09377 15.5234 8.42971C14.1328 9.76564 13.3672 11.5703 13.3672 13.5C13.3672 13.9688 13.75 14.3516 14.2188 14.3516C14.6875 14.3516 15.0703 13.9688 15.0703 13.5C15.0703 12.0391 15.6484 10.6719 16.7031 9.65627C17.7578 8.64064 19.125 8.11721 20.6094 8.17189C23.3281 8.27346 25.625 10.5703 25.7266 13.2891C25.8125 15.6328 24.0781 17.2031 22.1797 18.5547C20.8125 19.5313 19.5391 20.7031 19.5391 22.6563V27.3828C19.5391 27.8516 19.9219 28.2344 20.3906 28.2344C20.8594 28.2344 21.2422 27.8516 21.2422 27.3828V22.6563C21.2422 21.6641 21.7422 20.961 23.1641 19.9531C25.3516 18.4063 27.5625 16.3985 27.4453 13.2344Z" fill="#495FEA"/>
<path d="M20.4062 29.8594C19.4766 29.8594 18.7188 30.6172 18.7188 31.5469C18.7188 32.4766 19.4766 33.2344 20.4062 33.2344C21.3359 33.2344 22.0937 32.4766 22.0937 31.5469C22.0937 30.6172 21.3359 29.8594 20.4062 29.8594Z" fill="#495FEA"/>
</svg>
