<svg width="25" height="26" viewBox="0 0 25 26" fill="none" xmlns="http://www.w3.org/2000/svg">
<g clip-path="url(#clip0_849_73251)">
<path d="M12.4971 25.8891C19.399 25.8891 24.9941 20.1102 24.9941 12.9816C24.9941 5.85307 19.399 0.0742188 12.4971 0.0742188C5.59513 0.0742188 0 5.85307 0 12.9816C0 20.1102 5.59513 25.8891 12.4971 25.8891Z" fill="#039BE5"/>
<path d="M5.71857 12.7028L17.7678 7.90443C18.3271 7.69576 18.8155 8.04534 18.6343 8.91874L18.6353 8.91766L16.5837 18.9005C16.4317 19.6082 16.0245 19.7803 15.4548 19.4469L12.3306 17.0687L10.8236 18.5681C10.657 18.7402 10.5164 18.8854 10.1936 18.8854L10.4154 15.6016L16.2057 10.1987C16.4577 9.96962 16.1495 9.84054 15.8172 10.0686L8.66163 14.7217L5.57694 13.7278C4.90731 13.5084 4.89273 13.0362 5.71857 12.7028Z" fill="white"/>
</g>
<defs>
<clipPath id="clip0_849_73251">
<rect width="24.9941" height="25.8148" fill="white" transform="translate(0 0.0742188)"/>
</clipPath>
</defs>
</svg>
