<svg width="100" height="73" viewBox="0 0 100 73" fill="none" xmlns="http://www.w3.org/2000/svg">
<rect y="0.148438" width="99.9767" height="72.2816" rx="7.78414" fill="white"/>
<path fill-rule="evenodd" clip-rule="evenodd" d="M33.0298 47.5461H27.1334L22.7118 29.8042C22.502 28.988 22.0564 28.2665 21.4009 27.9265C19.7651 27.0719 17.9625 26.3918 15.9961 26.0488V25.3657H25.4947C26.8057 25.3657 27.7889 26.3918 27.9528 27.5835L30.2469 40.3813L36.1405 25.3657H41.873L33.0298 47.5461ZM45.1507 47.5461H39.582L44.1675 25.3657H49.7362L45.1507 47.5461ZM56.9402 31.5097C57.104 30.3151 58.0873 29.632 59.2343 29.632C61.0369 29.4605 63.0005 29.8035 64.6392 30.6551L65.6224 25.8796C63.9837 25.1965 62.1811 24.8535 60.5453 24.8535C55.1405 24.8535 51.2076 27.9258 51.2076 32.1898C51.2076 35.4336 53.9934 37.1368 55.9598 38.1629C58.0873 39.186 58.9066 39.8691 58.7427 40.8922C58.7427 42.4269 57.104 43.1099 55.4682 43.1099C53.5018 43.1099 51.5353 42.5984 49.7357 41.7438L48.7524 46.5223C50.7189 47.3739 52.8463 47.7169 54.8127 47.7169C60.873 47.8855 64.6392 44.8161 64.6392 40.2091C64.6392 34.4075 56.9402 34.0675 56.9402 31.5097ZM84.1284 47.5461L79.7068 25.3657H74.9575C73.9743 25.3657 72.991 26.0488 72.6633 27.0719L64.4756 47.5461H70.2081L71.3524 44.3052H78.3959L79.0513 47.5461H84.1284ZM75.7768 31.3354L77.4126 39.6949H72.8271L75.7768 31.3354Z" fill="#172B85"/>
</svg>
