<svg width="20" height="20" viewBox="0 0 20 20" fill="none" xmlns="http://www.w3.org/2000/svg">
<g clip-path="url(#clip0_710_41728)">
<path d="M17.2128 11.5375C17.8763 12.1852 18.5765 12.7946 19.1715 13.5076C19.4344 13.8245 19.6832 14.1514 19.8736 14.5192C20.1434 15.0419 19.899 15.6171 19.4303 15.6484L16.5166 15.647C15.7651 15.7094 15.1657 15.4069 14.6616 14.893C14.2582 14.4821 13.8846 14.0448 13.4967 13.6201C13.3377 13.4465 13.1712 13.2831 12.9724 13.154C12.5747 12.8958 12.2294 12.9748 12.0021 13.3897C11.7706 13.8116 11.7181 14.2788 11.6953 14.7491C11.6641 15.4352 11.4568 15.6155 10.7676 15.647C9.29472 15.7164 7.89691 15.4936 6.59835 14.7506C5.45351 14.0956 4.56577 13.1709 3.79304 12.124C2.28863 10.0856 1.13648 7.8457 0.101008 5.54305C-0.132078 5.02426 0.0383911 4.74578 0.610813 4.7359C1.56132 4.71742 2.51171 4.71875 3.46335 4.73457C3.84968 4.74023 4.10542 4.9618 4.2546 5.32676C4.76886 6.59125 5.39812 7.7943 6.18796 8.90941C6.39831 9.20629 6.61281 9.5032 6.9182 9.71215C7.25609 9.94352 7.51335 9.86684 7.6723 9.49043C7.77316 9.25176 7.81734 8.99469 7.84007 8.7391C7.91538 7.85969 7.92531 6.98176 7.79324 6.10543C7.71214 5.55852 7.40409 5.20445 6.85835 5.10098C6.57988 5.0482 6.62132 4.94457 6.75616 4.78563C6.99034 4.51148 7.21062 4.34082 7.64972 4.34082H10.9426C11.461 4.44312 11.5761 4.67602 11.6471 5.19762L11.6499 8.85531C11.6443 9.05723 11.7508 9.65648 12.1145 9.79012C12.4056 9.88527 12.5975 9.65238 12.7721 9.46781C13.5605 8.63105 14.1232 7.64215 14.6259 6.61816C14.849 6.16789 15.0409 5.70031 15.2268 5.23309C15.3645 4.88641 15.5806 4.71582 15.9711 4.72336L19.1403 4.72617C19.2343 4.72617 19.3294 4.72754 19.4204 4.74313C19.9544 4.83414 20.1008 5.06387 19.9359 5.58535C19.676 6.40352 19.1703 7.08535 18.6759 7.77031C18.1474 8.5016 17.5821 9.20789 17.058 9.94352C16.5764 10.6154 16.6147 10.954 17.2128 11.5375Z" fill="#436EAB"/>
</g>
<defs>
<clipPath id="clip0_710_41728">
<rect width="20" height="20" fill="white"/>
</clipPath>
</defs>
</svg>
