<svg width="36" height="14" viewBox="0 0 36 14" fill="none" xmlns="http://www.w3.org/2000/svg">
<path d="M4.64337 6.74002H3.95148C2.8648 6.74002 1.81097 5.94723 1.81097 3.96509C1.81097 1.90014 2.79885 1.05795 3.80327 1.05795H4.64337V6.74002ZM5.73006 0.000932377H3.85267C2.0087 0.000932377 0.444285 1.40488 0.444285 4.13029C0.444285 5.76549 1.20201 6.97116 2.55183 7.56578L0.0329447 12.1246C-0.0493233 12.2733 0.0329445 12.3887 0.164287 12.3887H1.33335C1.43216 12.3887 1.49811 12.3557 1.53097 12.2733L3.8197 7.79692H4.64337V12.2733C4.64337 12.3227 4.69278 12.3887 4.75818 12.3887H5.77947C5.87828 12.3887 5.91125 12.3392 5.91125 12.2569V0.166239C5.91125 0.0503369 5.8453 0.000932377 5.73006 0.000932377" fill="#ED1C24"/>
<path d="M11.9203 4.10585H10.8995C10.8171 4.10585 10.7677 4.17179 10.7677 4.22109V7.37611H8.87388V4.22109C8.87388 4.13882 8.84146 4.10585 8.75908 4.10585H7.73768C7.65596 4.10585 7.60645 4.15525 7.60645 4.22109V12.249C7.60645 12.3313 7.63942 12.3809 7.72125 12.3809H8.75908C8.82492 12.3809 8.87388 12.3313 8.87388 12.249V8.41704H10.7677V12.249C10.7677 12.3313 10.8171 12.3809 10.8995 12.3809H11.9203C12.0027 12.3809 12.0356 12.3149 12.0356 12.249V4.22109C12.0356 4.15525 11.9862 4.10585 11.9203 4.10585Z" fill="#231F20"/>
<path d="M35.2277 11.8537L35.0959 11.292C35.0799 11.2426 35.0633 11.2262 35.0139 11.2262C34.9317 11.2262 34.4869 11.4074 33.8449 11.4074C32.5935 11.4074 31.984 10.2021 31.984 8.28592C31.984 6.60086 32.4947 4.93289 33.3508 4.93289C33.5815 4.93289 33.8614 4.99872 34.3056 5.41216C34.3552 5.46157 34.3881 5.47811 34.4374 5.47811C34.4869 5.47811 34.5362 5.44458 34.5858 5.3622L35.0306 4.6358C35.0633 4.58584 35.0799 4.53588 35.0799 4.48648C35.0799 4.42053 35.0139 4.37113 34.9151 4.32172C34.2397 3.97478 33.779 3.90884 33.3837 3.90884C31.8358 3.90884 30.6338 5.75855 30.6338 8.64885C30.6338 11.1433 31.7865 12.5801 33.4331 12.5801C34.1251 12.5801 34.8658 12.2501 35.1621 12.035C35.2277 11.9855 35.244 11.9196 35.2277 11.8537Z" fill="#231F20"/>
<path d="M28.0721 7.83864L30.0478 4.22143C30.0808 4.17202 30.0642 4.10619 29.9983 4.10619H29.0269C28.7469 4.10619 28.6481 4.205 28.5498 4.41971L27.0674 7.50858C26.9854 7.69032 26.903 7.80567 26.8207 7.85562V4.22143C26.8207 4.15559 26.7878 4.10619 26.7219 4.10619H25.6517C25.6024 4.10619 25.5527 4.15559 25.5527 4.22143V12.2656C25.5527 12.315 25.5857 12.3809 25.6517 12.3809H26.7219C26.7878 12.3809 26.8207 12.3315 26.8207 12.2656V8.11974C26.8701 8.15271 26.903 8.20211 26.9359 8.2685L28.8128 12.1332C28.9117 12.3315 29.0599 12.3809 29.2741 12.3809H30.3278C30.3938 12.3809 30.4101 12.315 30.3771 12.2656L28.0721 7.83864Z" fill="#231F20"/>
<path d="M16.8598 11.3409H14.4722C15.3123 9.9041 15.6413 8.28545 15.7565 6.30345C15.7895 5.87403 15.8059 5.42763 15.8059 5.14708H16.8598V11.3409ZM18.6383 11.3409H18.4406C18.1936 11.3409 18.1276 11.2421 18.1276 11.0439V4.22197C18.1276 4.13959 18.0947 4.10662 18.0288 4.10662H14.7358C14.6533 4.10662 14.604 4.15613 14.604 4.22197V4.81658C14.604 6.81513 14.4887 9.39175 13.4349 11.3409H13.0725C12.9736 11.3409 12.9407 11.3908 12.9407 11.4732V13.8847C12.9407 13.9675 13.0066 14 13.056 14H13.8467C14.0274 14 14.0933 13.8681 14.0933 13.7523V12.3814H17.6175V13.8847C17.6175 13.9505 17.6663 14 17.7323 14H18.5724C18.6708 14 18.7695 13.9176 18.7695 13.7523V11.4732C18.7695 11.3908 18.7202 11.3409 18.6383 11.3409" fill="#231F20"/>
<path d="M21.8146 7.49124C21.4355 7.49124 20.8431 7.55719 20.8431 7.55719C20.8431 7.55719 20.8431 7.30951 20.8761 7.04495C21.0238 5.64101 21.3698 4.93104 21.9463 4.93104C22.4735 4.93104 22.8024 5.65744 22.8847 6.9296C22.9013 7.19372 22.9013 7.49124 22.9013 7.49124H21.8146ZM21.9958 3.90711C20.2177 3.90711 19.427 6.15325 19.427 8.59766C19.427 11.0919 20.5466 12.5781 22.1935 12.5781C23.0001 12.5781 23.7084 12.2647 24.0703 12.033C24.1362 12.0001 24.1526 11.9506 24.1362 11.8847L24.0044 11.3231C23.988 11.2572 23.955 11.2242 23.8726 11.2242C23.8072 11.2242 23.3295 11.4054 22.6541 11.4054C21.3862 11.4054 20.7937 10.2991 20.7937 8.84578V8.45463C20.7937 8.45463 21.4355 8.53171 21.8146 8.53171H24.2186V7.83774C24.2186 5.27808 23.3125 3.90711 21.9958 3.90711" fill="#231F20"/>
</svg>
